<?xml version="1.0" encoding="utf-8"?>
<!-- Generator: Adobe Illustrator 16.0.0, SVG Export Plug-In . SVG Version: 6.00 Build 0)  -->
<!DOCTYPE svg PUBLIC "-//W3C//DTD SVG 1.1//EN" "http://www.w3.org/Graphics/SVG/1.1/DTD/svg11.dtd">
<svg version="1.1" id="圖層_1" xmlns="http://www.w3.org/2000/svg" xmlns:xlink="http://www.w3.org/1999/xlink" x="0px" y="0px"
	 width="299.5px" height="227.167px" viewBox="0 0 299.5 227.167" enable-background="new 0 0 299.5 227.167" xml:space="preserve">
<g>
	<polygon fill="#9C7F4D" points="141.798,173.739 105.847,115.252 121.783,48.474 180.271,12.524 247.049,28.46 282.999,86.947 
		267.063,153.726 208.576,189.675 	"/>
	<polygon fill="#CFA968" points="146.483,167.08 113.647,113.893 128.128,53.21 181.444,20.581 242.363,35.119 275.199,88.307 
		260.718,148.99 207.402,181.618 	"/>
	
		<rect x="110.149" y="128.069" transform="matrix(0.852 -0.5236 0.5236 0.852 -53.9526 79.615)" fill="#B5B5B6" width="7.333" height="14.296"/>
</g>
<path fill="#B5B5B6" d="M184.633,193.749h20.667l3.182,11.926h22.047l-21.204-99.295c-1.172-6.815-7.152-12.009-14.374-12.009
	c-7.222,0-13.202,5.194-14.373,12.009l-21.174,99.295h22.048L184.633,193.749z M190.756,139.344c0,0,0.673-7.082,4.21-7.147
	c3.537-0.066,4.21,7.147,4.21,7.147l3.27,30.675h-14.96L190.756,139.344z"/>
<path fill="#898989" d="M246.822,136.417l-47.296-34.598c-3.451-2.344-8.153-1.447-10.498,2.005
	c-2.345,3.453-1.447,8.153,2.004,10.498l49.588,31.222c2.521,1.712,5.953,1.056,7.664-1.463
	C249.998,141.561,249.344,138.129,246.822,136.417z"/>
<circle fill="#4C4948" cx="243.752" cy="141.004" r="3.375"/>
<rect y="205.666" fill="#CFA968" width="299.5" height="21.501"/>
<polygon fill="#D3D3D4" points="138.592,205.666 28.652,205.666 24.093,198.875 143.152,198.875 "/>
</svg>
