<?xml version="1.0" encoding="utf-8"?>
<!-- Generator: Adobe Illustrator 16.0.0, SVG Export Plug-In . SVG Version: 6.00 Build 0)  -->
<!DOCTYPE svg PUBLIC "-//W3C//DTD SVG 1.1//EN" "http://www.w3.org/Graphics/SVG/1.1/DTD/svg11.dtd">
<svg version="1.1" id="圖層_1" xmlns="http://www.w3.org/2000/svg" xmlns:xlink="http://www.w3.org/1999/xlink" x="0px" y="0px"
	 width="75px" height="75px" viewBox="0 0 75 75" enable-background="new 0 0 75 75" xml:space="preserve">
<path fill="#276678" d="M30,41.25H3.75c-0.995,0-1.948,0.395-2.652,1.098C0.395,43.052,0,44.006,0,45v26.25
	c0,0.994,0.395,1.948,1.098,2.652C1.802,74.605,2.755,75,3.75,75H30c0.995,0,1.948-0.395,2.651-1.098
	c0.704-0.704,1.099-1.658,1.099-2.652V45c0-0.994-0.395-1.948-1.099-2.652C31.948,41.645,30.995,41.25,30,41.25z M26.25,67.5H7.5
	V48.75h18.75V67.5z M71.25,0H45c-0.994,0-1.948,0.395-2.651,1.098C41.645,1.802,41.25,2.755,41.25,3.75V30
	c0,0.995,0.395,1.948,1.099,2.652c0.703,0.703,1.657,1.098,2.651,1.098h26.25c0.994,0,1.948-0.395,2.652-1.098
	C74.605,31.948,75,30.995,75,30V3.75c0-0.995-0.395-1.948-1.098-2.652C73.198,0.395,72.244,0,71.25,0L71.25,0z M67.5,26.25H48.75
	V7.5H67.5V26.25z M71.25,41.25H45c-0.994,0-1.948,0.395-2.651,1.098C41.645,43.052,41.25,44.006,41.25,45v26.25
	c0,0.994,0.395,1.948,1.099,2.652C43.052,74.605,44.006,75,45,75h26.25c0.994,0,1.948-0.395,2.652-1.098
	C74.605,73.198,75,72.244,75,71.25V45c0-0.994-0.395-1.948-1.098-2.652C73.198,41.645,72.244,41.25,71.25,41.25z M67.5,67.5H48.75
	V48.75H67.5V67.5z M30,0H3.75C2.755,0,1.802,0.395,1.098,1.098C0.395,1.802,0,2.755,0,3.75V30c0,0.995,0.395,1.948,1.098,2.652
	c0.704,0.703,1.657,1.098,2.652,1.098H30c0.995,0,1.948-0.395,2.651-1.098c0.704-0.704,1.099-1.657,1.099-2.652V3.75
	c0-0.995-0.395-1.948-1.099-2.652C31.948,0.395,30.995,0,30,0L30,0z M26.25,26.25H7.5V7.5h18.75V26.25z"/>
</svg>
