<svg width="69" height="69" viewBox="0 0 69 69" fill="none" xmlns="http://www.w3.org/2000/svg">
<path d="M34.5 0C27.6766 0 21.0063 2.02339 15.3328 5.8143C9.65934 9.6052 5.23739 14.9934 2.62617 21.2974C0.0149483 27.6015 -0.668267 34.5383 0.662923 41.2306C1.99411 47.9229 5.27992 54.0703 10.1048 58.8952C14.9297 63.7201 21.0771 67.0059 27.7694 68.3371C34.4617 69.6683 41.3985 68.9851 47.7026 66.3738C54.0066 63.7626 59.3948 59.3407 63.1857 53.6672C66.9766 47.9937 69 41.3234 69 34.5C68.99 25.3531 65.3519 16.5837 58.8841 10.1159C52.4163 3.64808 43.6469 0.010045 34.5 0V0ZM34.5 62.1C29.0412 62.1 23.7051 60.4813 19.1663 57.4485C14.6275 54.4158 11.0899 50.1053 9.00094 45.062C6.91196 40.0188 6.36539 34.4694 7.43034 29.1155C8.49529 23.7616 11.1239 18.8438 14.9839 14.9838C18.8438 11.1239 23.7616 8.49528 29.1155 7.43033C34.4694 6.36537 40.0188 6.91195 45.0621 9.00092C50.1053 11.0899 54.4158 14.6275 57.4486 19.1663C60.4813 23.7051 62.1 29.0412 62.1 34.5C62.0909 41.8172 59.1801 48.832 54.0061 54.006C48.832 59.1801 41.8172 62.0909 34.5 62.1ZM34.5 32.775C33.585 32.775 32.7075 33.1385 32.0605 33.7855C31.4135 34.4325 31.05 35.31 31.05 36.225V46.575C31.05 47.49 31.4135 48.3675 32.0605 49.0145C32.7075 49.6615 33.585 50.025 34.5 50.025C35.415 50.025 36.2925 49.6615 36.9395 49.0145C37.5865 48.3675 37.95 47.49 37.95 46.575V36.225C37.95 35.31 37.5865 34.4325 36.9395 33.7855C36.2925 33.1385 35.415 32.775 34.5 32.775ZM34.5 18.975C33.6471 18.975 32.8133 19.2279 32.1041 19.7018C31.3949 20.1756 30.8422 20.8492 30.5158 21.6372C30.1894 22.4252 30.104 23.2923 30.2704 24.1288C30.4368 24.9654 30.8475 25.7338 31.4506 26.3369C32.0537 26.94 32.8221 27.3507 33.6587 27.5171C34.4952 27.6835 35.3623 27.5981 36.1503 27.2717C36.9383 26.9453 37.6119 26.3926 38.0857 25.6834C38.5596 24.9742 38.8125 24.1404 38.8125 23.2875C38.8125 22.1437 38.3582 21.0468 37.5494 20.2381C36.7407 19.4293 35.6438 18.975 34.5 18.975V18.975Z" fill="#333333"/>
</svg>
