<?xml version="1.0" encoding="utf-8"?>
<!-- Generator: Adobe Illustrator 16.0.0, SVG Export Plug-In . SVG Version: 6.00 Build 0)  -->
<!DOCTYPE svg PUBLIC "-//W3C//DTD SVG 1.1//EN" "http://www.w3.org/Graphics/SVG/1.1/DTD/svg11.dtd">
<svg version="1.1" id="圖層_1" xmlns="http://www.w3.org/2000/svg" xmlns:xlink="http://www.w3.org/1999/xlink" x="0px" y="0px"
	 width="255.84px" height="93.854px" viewBox="0 0 255.84 93.854" enable-background="new 0 0 255.84 93.854" xml:space="preserve">
<g>
	
		<linearGradient id="SVGID_1_" gradientUnits="userSpaceOnUse" x1="-2463.4189" y1="35.9417" x2="-2463.1755" y2="54.2617" gradientTransform="matrix(-1 0 0 -1 -2319.6875 133.7534)">
		<stop  offset="0" style="stop-color:#8DCADB"/>
		<stop  offset="0.1962" style="stop-color:#86C3D5"/>
		<stop  offset="0.4865" style="stop-color:#71B1C5"/>
		<stop  offset="0.8336" style="stop-color:#4E95AD"/>
		<stop  offset="1" style="stop-color:#3787A1"/>
	</linearGradient>
	<path fill="url(#SVGID_1_)" d="M179.148,78.679c0,0-2.625,8.373-3.854,11.82c-1.088,3.526-5.5,3.334-5.5,3.334
		s-35.249,0.042-37.832,0c-2.269-0.074-7.251-0.063-11.168-3.834c-1.922-1.951-13.013-13.209-13.013-13.209L179.148,78.679z"/>
	<path fill="#276375" d="M176.314,87.507c0,0-8.998,0.027-10.353,0c-2.396-0.109-4.168-0.901-4.584-3.673
		c-0.149-1.438-0.586-5.641-0.586-5.641l18.354,0.485L176.314,87.507z"/>
	<rect x="150.566" y="82.042" fill="#276375" width="5.875" height="5.875"/>
	<rect x="141.129" y="82.042" fill="#276375" width="5.875" height="5.875"/>
	<rect x="131.691" y="82.042" fill="#276375" width="5.875" height="5.875"/>
	<g id="XMLID_4_">
		<g>
			<path fill="#6FB5CB" d="M0.1,41.67c0,0.271,0.021,0.53,0.061,0.801C108.48,58.71,230.6,48.35,255.359,45.95
				c0.392-1.439,0.58-2.87,0.58-4.28c0-1.529-0.238-3.08-0.738-4.64c-25.12-2.42-146.91-12.7-254.99,3.49
				C0.14,40.91,0.1,41.29,0.1,41.67z"/>
			<path fill="#5FA7BF" d="M0.16,42.47c0.229,1.649,1.189,3.319,2.79,4.989C150.26,82.91,231.49,60.1,252.1,52.67
				c1.58-2.22,2.66-4.479,3.26-6.72C230.6,48.35,108.479,58.71,0.16,42.47z"/>
			<path fill="#80C4D7" d="M3.21,35.48c-1.65,1.689-2.67,3.38-3,5.04c108.08-16.19,229.87-5.91,254.99-3.49
				c-0.729-2.32-2.011-4.67-3.86-6.98C229.568,22.37,148.609,0.53,3.21,35.48z"/>
			<path fill="#90D2E3" d="M152.63,3.17C90.109,3.17,18.79,19.48,3.21,35.48C148.609,0.53,229.568,22.37,251.34,30.05
				C240.109,15.99,208.061,3.17,152.63,3.17z"/>
			<path fill="#4D9AB4" d="M2.95,47.46c15.33,16,89.67,32.04,152.68,32.04c56.149,0,86.41-12.739,96.47-26.83
				C231.49,60.1,150.26,82.91,2.95,47.46z"/>
		</g>
	</g>
	<g id="XMLID_5_">
		<g>
			<polygon fill="#90D2E3" points="9.13,9.83 10.479,16.77 44.35,5.37 39.13,0 			"/>
			<polygon fill="#80C4D7" points="10.479,16.77 11.88,23.94 50.2,11.39 44.35,5.37 			"/>
			<polygon fill="#6FB5CB" points="11.88,23.94 13.13,30.33 56.63,18 50.2,11.39 			"/>
		</g>
	</g>
	<g id="XMLID_6_">
		<g>
			<polygon fill="#4D9AB4" points="10.38,65.09 9.13,72.17 38.8,82.04 44.189,76.79 			"/>
			<polygon fill="#388DA9" points="11.62,58.11 10.38,65.09 44.189,76.79 50.55,70.59 			"/>
			<polygon fill="#1B819F" points="12.8,51.42 11.62,58.11 50.55,70.59 56.63,64.67 			"/>
		</g>
	</g>
	<g>
		<path fill="#084456" d="M128.979,52.362c0,0.771-0.164,1.36-0.489,1.765c-0.328,0.405-0.723,0.675-1.188,0.807
			c-0.463,0.132-1.281,0.197-2.453,0.197c-0.586,0-1.108-0.015-1.567-0.044l-0.938-2.577c0.43,0.049,0.894,0.072,1.392,0.072
			c1.143,0,1.893-0.039,2.248-0.117c0.357-0.077,0.535-0.282,0.535-0.614v-3.032h-5.757c-0.449,2.754-1.348,4.902-2.695,6.445
			l-2.197-1.406c1.777-1.787,2.666-4.917,2.666-9.391v-7.676h10.443V52.362z M142.206,34.901h-26.104v-2.49h26.104V34.901z
			 M127.265,30.785l-2.754,1.26c-1.191-0.703-2.651-1.372-4.38-2.007l2.783-1.348C124.535,29.247,125.985,29.945,127.265,30.785z
			 M126.518,41.654v-2.461h-5.464v2.461H126.518z M126.518,46.532v-2.549h-5.464v2.549H126.518z M137.738,30.009
			c-1.611,0.957-3.032,1.637-4.264,2.036l-2.754-1.26c1.563-0.664,2.975-1.372,4.233-2.124L137.738,30.009z M134.618,50.165h-2.607
			V37.201h2.607V50.165z M140.082,52.025c0,1.25-0.288,2.083-0.864,2.498c-0.575,0.415-1.646,0.623-3.208,0.623
			c-0.615,0-1.27-0.021-1.963-0.06l-0.835-2.577h3.75c0.138,0,0.267-0.078,0.388-0.234c0.123-0.156,0.185-0.317,0.185-0.483v-15.25
			h2.549L140.082,52.025L140.082,52.025z"/>
		<path fill="#084456" d="M172.396,39.999l-2.314,1.86c-0.566-0.908-1.188-1.787-1.859-2.637
			c-7.716,0.907-14.863,1.455-21.445,1.641l-0.631-2.52c2.871-0.929,5.986-4.088,9.347-9.479l3.032,0.601
			c-1.992,3.224-4.36,6.095-7.104,8.613c3.916-0.146,8.856-0.537,14.824-1.172c-1.24-1.367-2.744-2.769-4.513-4.204l2.314-1.771
			C167.631,34.037,170.414,37.06,172.396,39.999z M169.745,55.292h-2.726v-1.348h-15.775v1.348h-2.739V42.885h21.24V55.292z
			 M167.021,51.337v-5.845h-15.776v5.845H167.021z"/>
	</g>
</g>
</svg>
