<?xml version="1.0" encoding="utf-8"?>
<!-- Generator: Adobe Illustrator 16.0.0, SVG Export Plug-In . SVG Version: 6.00 Build 0)  -->
<!DOCTYPE svg PUBLIC "-//W3C//DTD SVG 1.1//EN" "http://www.w3.org/Graphics/SVG/1.1/DTD/svg11.dtd">
<svg version="1.1" id="圖層_1" xmlns="http://www.w3.org/2000/svg" xmlns:xlink="http://www.w3.org/1999/xlink" x="0px" y="0px"
	 width="255.84px" height="93.854px" viewBox="0 0 255.84 93.854" enable-background="new 0 0 255.84 93.854" xml:space="preserve">
<g>
	
		<linearGradient id="SVGID_1_" gradientUnits="userSpaceOnUse" x1="-35.7075" y1="35.1711" x2="-35.6922" y2="62.1286" gradientTransform="matrix(1 0 0 -1 179.0098 133.7534)">
		<stop  offset="0" style="stop-color:#49798C"/>
		<stop  offset="1" style="stop-color:#044353"/>
	</linearGradient>
	<path fill="url(#SVGID_1_)" d="M178.997,78.68c0,0-2.623,8.373-3.854,11.82c-1.088,3.526-5.5,3.334-5.5,3.334
		s-35.248,0.042-37.832,0c-2.268-0.074-7.25-0.063-11.167-3.834c-1.923-1.951-13.013-13.209-13.013-13.209L178.997,78.68z"/>
	<path fill="#5FA7BF" d="M176.163,87.508c0,0-8.998,0.027-10.353,0c-2.396-0.109-4.168-0.901-4.584-3.673
		c-0.147-1.438-0.586-5.641-0.586-5.641l18.355,0.485L176.163,87.508z"/>
	<rect x="150.415" y="82.043" fill="#5FA7BF" width="5.875" height="5.875"/>
	<rect x="140.979" y="82.043" fill="#5FA7BF" width="5.875" height="5.875"/>
	<rect x="131.54" y="82.043" fill="#5FA7BF" width="5.875" height="5.875"/>
	<g id="XMLID_13_">
		<g>
			<path fill="#306879" d="M255.795,41.668c0,1.42-0.189,2.851-0.58,4.28c-24.74,2.39-146.88,12.771-255.21-3.479
				c-0.04-0.271-0.061-0.53-0.061-0.801c0-0.37,0.04-0.75,0.11-1.13c108.09-16.21,229.9-5.93,255-3.51
				C255.555,38.588,255.795,40.138,255.795,41.668z"/>
			<path fill="#276375" d="M255.215,45.948c-0.6,2.25-1.689,4.521-3.29,6.74c-20.64,7.439-101.87,30.21-249.13-5.23
				c-1.601-1.67-2.561-3.34-2.79-4.989C108.335,58.719,230.475,48.338,255.215,45.948z"/>
			<path fill="#407487" d="M251.193,30.058c1.852,2.31,3.132,4.649,3.861,6.97c-25.101-2.42-146.911-12.7-255,3.51
				c0.32-1.67,1.351-3.359,3.01-5.06C148.484,0.538,229.436,22.378,251.193,30.058z"/>
			<path fill="#1B5869" d="M251.925,52.688c-10.069,14.09-40.34,26.81-96.45,26.81c-63.01,0-137.34-16.04-152.68-32.04
				C150.055,82.898,231.285,60.128,251.925,52.688z"/>
			<path fill="#4A7E91" d="M152.475,3.168c55.45,0,87.5,12.83,98.721,26.891c-21.76-7.681-102.711-29.521-248.13,5.42
				C18.655,19.478,89.955,3.168,152.475,3.168z"/>
		</g>
	</g>
	<g id="XMLID_15_">
		<g>
			<polygon fill="#306879" points="50.045,11.388 56.475,17.998 12.975,30.338 11.725,23.938 			"/>
			<polygon fill="#407487" points="44.194,5.368 50.045,11.388 11.725,23.938 10.325,16.778 			"/>
			<polygon fill="#4A7E91" points="38.975,-0.002 44.194,5.368 10.325,16.778 8.975,9.838 			"/>
		</g>
	</g>
	<g id="XMLID_14_">
		<g>
			<polygon fill="#084456" points="56.475,64.668 50.395,70.588 11.465,58.108 12.645,51.418 			"/>
			<polygon fill="#0F4D5F" points="50.395,70.588 44.035,76.788 10.225,65.098 11.465,58.108 			"/>
			<polygon fill="#1B5869" points="44.035,76.788 38.645,82.048 8.975,72.168 10.225,65.098 			"/>
		</g>
	</g>
	<g>
		<path fill="#F6F5F5" d="M121.737,35.641c-0.693,1.19-1.65,2.65-2.871,4.38v14.751h-2.637V42.995
			c-1.035,1.035-1.768,1.704-2.197,2.007l-1.406-2.489c2.217-1.476,4.517-4.165,6.899-8.071L121.737,35.641z M120.639,29.547
			c-1.943,2.832-4.097,5.122-6.46,6.87l-1.406-2.313c1.953-1.31,3.784-3.218,5.493-5.729L120.639,29.547z M139.447,52.589
			l-1.143,2.402c-3.888-0.771-6.826-1.694-8.818-2.769c-1.758,0.879-4.668,1.771-8.73,2.681l-1.113-2.344
			c2.91-0.479,5.361-1.128,7.354-1.948c-0.898-0.703-1.831-1.606-2.798-2.71c-0.586,0.518-1.475,1.19-2.666,2.021l-1.685-1.859
			c1.172-0.771,2.114-1.465,2.827-2.08l-1.084-1.67l2.007-1.289c0.205,0.352,0.498,0.752,0.879,1.201
			c0.566-0.586,1.157-1.349,1.772-2.285c-1.992,0.039-3.545,0.078-4.658,0.117l-0.542-2.402c1.914-0.518,4.214-1.616,6.899-3.296
			c-1.162,0.078-2.949,0.156-5.361,0.233l-0.454-2.123c2.412-1.318,4.702-3.351,6.87-6.095l2.578,1.113
			c-1.681,2.051-3.579,3.643-5.698,4.775c1.65-0.089,3.481-0.229,5.493-0.426c1.748-1.649,2.808-2.66,3.179-3.031l2.521,1.2
			c-3.623,3.623-7.485,6.245-11.587,7.866c2.041-0.106,4.863-0.399,8.467-0.879c-0.322-0.43-0.742-0.938-1.26-1.522l2.183-1.261
			c1.896,2.129,3.276,3.979,4.146,5.553l-2.284,1.187c-0.273-0.527-0.675-1.143-1.201-1.846c-2.158,0.233-4.276,0.43-6.356,0.586
			c-0.187,0.36-0.625,1.094-1.318,2.197h8.818v2.461c-1.396,1.776-2.945,3.236-4.645,4.38
			C134.672,51.696,137.143,52.316,139.447,52.589z M133.471,46.349h-7.383c0.898,1.133,2.021,2.144,3.369,3.031
			C130.395,48.903,131.732,47.892,133.471,46.349z"/>
		<path fill="#F6F5F5" d="M169.33,39.479l-2.314,1.859c-0.565-0.907-1.187-1.786-1.859-2.637
			c-7.715,0.908-14.863,1.455-21.445,1.642l-0.63-2.521c2.871-0.928,5.985-4.087,9.346-9.478l3.032,0.601
			c-1.992,3.223-4.359,6.094-7.104,8.613c3.916-0.146,8.856-0.537,14.824-1.172c-1.24-1.367-2.744-2.77-4.513-4.204l2.313-1.772
			C164.564,33.517,167.348,36.54,169.33,39.479z M166.68,54.772h-2.726v-1.349h-15.776v1.349h-2.738V42.365h21.24V54.772z
			 M163.954,50.817v-5.845h-15.776v5.845H163.954z"/>
	</g>
</g>
</svg>
