<?xml version="1.0" encoding="utf-8"?>
<!-- Generator: Adobe Illustrator 16.0.0, SVG Export Plug-In . SVG Version: 6.00 Build 0)  -->
<!DOCTYPE svg PUBLIC "-//W3C//DTD SVG 1.1//EN" "http://www.w3.org/Graphics/SVG/1.1/DTD/svg11.dtd">
<svg version="1.1" xmlns="http://www.w3.org/2000/svg" xmlns:xlink="http://www.w3.org/1999/xlink" x="0px" y="0px" width="1200px"
	 height="166.404px" viewBox="0 235.096 1200 166.404" enable-background="new 0 235.096 1200 166.404" xml:space="preserve">
<g id="圖層_2">
	<path opacity="0.2" fill="#58E0E5" d="M0,258.663c0,0,57.141-21.175,137.875,2.445c80.734,23.621,199.228,41.129,272.725,10.626
		s181.14-29.69,242.813-13.598s103.67,31.621,171.167,9.608c67.497-22.014,135.943-36.904,206.715-6.96s137.649,15.62,168.706-1.285
		c0,34.093,0,54.156,0,54.156s-71.991-27.885-157.5,4.631s-163.744-0.442-183.872-1.796s-213.295-28.273-287.257,8.197
		c-59.037,29.111-219.053,5.565-244.205,2.944c-17.955-1.871-107.333-17.369-189.292-1.623C83.305,336.494,0,313.656,0,313.656
		V258.663z"/>
	<path opacity="0.2" fill="#58E0E5" d="M1200,361.75c0,0-102,28.75-224.41-5.161C894.524,334.132,842,322.771,759,347.726
		c-76.204,22.912-150.739,36.323-212.412,20.231c-61.673-16.094-110.622-29.411-178.119-7.399
		c-67.497,22.014-124.048,17.57-199.763,4.751C92.938,352.481,31.057,341.615,0,358.521c0-34.094,0-83,0-83
		s52.102,54.409,140.5,42.777c90.701-11.934,164.287-10.731,184-6.448c56.333,12.24,207.095,13.528,285-13.513
		c73.656-25.566,230.849,1.368,256,3.989c17.955,1.871,114.21,25.863,192.398-3.32C1109.551,279.727,1200,278.75,1200,278.75V361.75
		z"/>
</g>
<g id="_andscape">
	<path fill="#D3E0EA" d="M116.18,361.788c-21.736,0.679-12.643-16.193,11.632-15.687c-4.552-9.108,7.08-18.217,15.678-15.181
		c-4.046-12.65,33.884-32.892,51.584-3.036c12.643-6.579,24.275,13.157,13.655,24.794c5.563,0,13.654,7.591,2.023,9.109
		C196.086,363.306,132.363,361.281,116.18,361.788z"/>
	<g>
		<path fill="#1687A7" d="M182.827,342.709c5.533,0.123,8.73-3.321,10.33-6.766c1.598-3.445,0.492-9.351-1.845-11.32
			C192.418,328.684,190.696,340.249,182.827,342.709z"/>
		<path fill="#1687A7" d="M207.132,353.412c2.771-3.991,6.317-13.307,3.214-17.963c-0.075,0.972-1.158,9.202-7.322,13.849
			c-1.833,0.84-4.003,1.057-6.255-0.017c0,0,0.655,1.311,2.126,2.217c-2.411,0.84-5.32,1.198-8.83,0.806
			c0.222,1.441,4.988,2.772,5.431,2.772c-0.393,0-29.511,0-32.321,0c-2.851,0-8.196-5.39-9.087-6.638
			c-0.891,0.535-0.178,4.457,2.138,5.884c2.316,1.426-14.076,1.426-20.49-2.495c0.891,3.03,2.672,5.347,5.345,5.347
			c0,0-31.358-0.178-33.497-0.534c-2.138-0.356,0.142,1.532,0.142,1.532c2.101,1.84,3.415,2.103,7.092,2.103
			c3.677,0,89.046,0,94.3,0C214.372,360.275,217.328,355.52,207.132,353.412z"/>
	</g>
	<path fill="#D3E0EA" d="M863.564,286.526c-11.282,0.353-6.563-8.405,6.038-8.143c-2.363-4.728,3.676-9.456,8.139-7.88
		c-2.102-6.566,17.588-17.074,26.776-1.576c6.563-3.415,12.601,6.829,7.088,12.87c2.888,0,7.088,3.94,1.05,4.729
		C905.042,287.314,871.965,286.263,863.564,286.526z"/>
	<g>
		<path fill="#1687A7" d="M898.159,276.622c2.873,0.063,4.532-1.725,5.362-3.513c0.829-1.788,0.255-4.854-0.958-5.876
			C903.138,269.342,902.245,275.345,898.159,276.622z"/>
		<path fill="#1687A7" d="M910.776,282.178c1.438-2.072,3.279-6.907,1.668-9.325c-0.039,0.505-0.601,4.777-3.801,7.189
			c-0.951,0.436-2.078,0.549-3.246-0.009c0,0,0.34,0.681,1.104,1.151c-1.252,0.436-2.762,0.621-4.584,0.418
			c0.115,0.748,2.589,1.438,2.819,1.438c-0.204,0-15.319,0-16.778,0c-1.479,0-4.254-2.797-4.717-3.445
			c-0.461,0.278-0.092,2.313,1.11,3.055c1.202,0.74-7.306,0.74-10.636-1.296c0.463,1.573,1.387,2.775,2.774,2.775
			c0,0-16.278-0.092-17.388-0.277c-1.109-0.185,0.074,0.796,0.074,0.796c1.09,0.955,1.771,1.092,3.682,1.092
			c1.908,0,46.222,0,48.949,0C914.534,285.74,916.069,283.272,910.776,282.178z"/>
	</g>
	<path fill="#D3E0EA" d="M511.563,316.244c-16.725,0.522-9.728-12.46,8.951-12.07c-3.502-7.009,5.448-14.018,12.063-11.681
		c-3.114-9.734,26.072-25.309,39.692-2.336c9.729-5.062,18.679,10.123,10.507,19.078c4.28,0,10.506,5.841,1.557,7.009
		C573.047,317.412,524.015,315.855,511.563,316.244z"/>
	<g>
		<path fill="#1687A7" d="M562.844,301.564c4.258,0.095,6.718-2.556,7.948-5.207c1.23-2.651,0.379-7.195-1.418-8.71
			C570.224,290.772,568.9,299.671,562.844,301.564z"/>
		<path fill="#1687A7" d="M581.546,309.8c2.132-3.071,4.86-10.239,2.473-13.822c-0.058,0.748-0.891,7.08-5.634,10.656
			c-1.411,0.646-3.08,0.813-4.813-0.013c0,0,0.504,1.008,1.636,1.706c-1.855,0.646-4.093,0.922-6.794,0.62
			c0.17,1.109,3.837,2.133,4.179,2.133c-0.302,0-22.707,0-24.87,0c-2.193,0-6.306-4.147-6.992-5.107
			c-0.685,0.412-0.137,3.43,1.646,4.527c1.782,1.097-10.831,1.097-15.766-1.92c0.686,2.332,2.056,4.114,4.112,4.114
			c0,0-24.129-0.137-25.774-0.411c-1.645-0.274,0.109,1.179,0.109,1.179c1.617,1.416,2.627,1.618,5.457,1.618s68.518,0,72.561,0
			C587.118,315.08,589.392,311.421,581.546,309.8z"/>
	</g>
	<path fill="#D3E0EA" d="M1139.382,351.296c-9.595,0.301-5.581-7.147,5.136-6.924c-2.01-4.021,3.125-8.042,6.921-6.701
		c-1.786-5.586,14.958-14.521,22.772-1.341c5.582-2.904,10.716,5.808,6.027,10.945c2.456,0,6.028,3.351,0.894,4.021
		C1174.657,351.967,1146.526,351.073,1139.382,351.296z"/>
	<g>
		<path fill="#1687A7" d="M1168.803,342.874c2.443,0.055,3.855-1.466,4.561-2.987c0.706-1.521,0.218-4.128-0.814-4.996
			C1173.038,336.683,1172.278,341.788,1168.803,342.874z"/>
		<path fill="#1687A7" d="M1179.533,347.599c1.223-1.762,2.788-5.874,1.419-7.929c-0.033,0.429-0.511,4.062-3.232,6.113
			c-0.81,0.37-1.768,0.466-2.761-0.008c0,0,0.289,0.579,0.938,0.979c-1.063,0.371-2.348,0.529-3.897,0.356
			c0.098,0.636,2.202,1.224,2.397,1.224c-0.173,0-13.027,0-14.269,0c-1.259,0-3.618-2.379-4.012-2.931
			c-0.393,0.236-0.078,1.968,0.944,2.598s-6.213,0.63-9.045-1.102c0.393,1.338,1.18,2.36,2.359,2.36c0,0-13.844-0.078-14.787-0.236
			c-0.943-0.156,0.063,0.678,0.063,0.678c0.927,0.812,1.508,0.928,3.131,0.928s39.31,0,41.629,0S1184.034,348.53,1179.533,347.599z"
			/>
	</g>
	<path fill="#D3E0EA" d="M45.041,297.03c-15.509-0.738-7.764-11.816,3.327-11.078c-0.37-4.8,8.873-14.4,17.375-8.493
		c3.697-6.277,23.66-8.862,26.987,6.647c4.437-1.847,5.916,0.369,7.024,2.954c4.419-2.453,8.133,0,8.873,2.584
		c9.612,0.738,13.482,5.684,7.567,6.792C110.278,297.544,60.567,297.768,45.041,297.03z"/>
	<path fill="#1687A7" d="M107.352,290.448c-2.554-4.769-7.551-1.331-7.551-1.331s-0.222-0.333-1.888-2.773
		c-1.666-2.44-6.108-1.109-6.108-1.109s0.667-1.553-1.776-5.324c1.737,17.089-18.894,15.533-18.31,11.26
		c2.332,0.887,4.54-0.39,4.207-1.832c-1.333,0.443-7.552,0.554-9.106-4.215c-1.444,0.888-0.444,5.435,1.333,5.879
		c-0.425,0.623-1.355,1.244-2.562,1.826c-2.813,1.356-6.039,1.675-9.082,0.972c-3.098-0.715-5.871-2.108-7.163-4.512
		c-0.19,2.762,2.384,4.952,2.384,4.952s0,0-2.956,0s-10.87,0.286-12.013-1.619c0,0,1.43,3.333,6.579,3.333
		c5.148,0,10.773,0,10.773,0s0.205-0.024,0.553-0.064c6.728,0.045,47.236,0.298,49.578-0.006c2.554-0.333,11.438,0,11.771-1.886
		C116.347,292.113,110.128,291.336,107.352,290.448z"/>
	<path fill="#D3E0EA" d="M397.196,278.939c-10.797-0.514-5.405-8.226,2.316-7.712c-0.257-3.342,6.177-10.025,12.096-5.912
		c2.573-4.37,16.471-6.17,18.787,4.627c3.088-1.286,4.118,0.257,4.89,2.057c3.077-1.707,5.662,0,6.177,1.799
		c6.692,0.514,9.386,3.957,5.268,4.728C442.611,279.297,408.004,279.453,397.196,278.939z"/>
	<path fill="#1687A7" d="M440.574,274.358c-1.778-3.32-5.257-0.927-5.257-0.927s-0.155-0.231-1.314-1.931
		c-1.16-1.698-4.252-0.772-4.252-0.772s0.464-1.081-1.237-3.706c1.209,11.896-13.153,10.813-12.747,7.838
		c1.624,0.618,3.161-0.271,2.929-1.274c-0.928,0.309-5.257,0.385-6.34-2.935c-1.005,0.618-0.309,3.783,0.928,4.093
		c-0.295,0.433-0.943,0.866-1.783,1.271c-1.958,0.945-4.204,1.167-6.322,0.677c-2.157-0.499-4.087-1.468-4.986-3.142
		c-0.133,1.923,1.659,3.448,1.659,3.448s0,0-2.058,0s-7.567,0.199-8.363-1.127c0,0,0.995,2.321,4.58,2.321c3.584,0,7.5,0,7.5,0
		s0.143-0.017,0.385-0.044c4.684,0.031,32.884,0.207,34.514-0.005c1.778-0.232,7.962,0,8.194-1.313
		C446.836,275.516,442.507,274.976,440.574,274.358z"/>
	<path fill="#D3E0EA" d="M976,321.192c-17.175-0.817-8.599-13.086,3.683-12.267c-0.408-5.316,9.825-15.947,19.242-9.404
		c4.092-6.952,26.2-9.816,29.885,7.36c4.912-2.046,6.549,0.409,7.776,3.271c4.895-2.715,9.007,0,9.827,2.863
		c10.644,0.817,14.928,6.294,8.379,7.52C1048.241,321.76,993.192,322.009,976,321.192z"/>
	<path fill="#1687A7" d="M1045.001,313.904c-2.829-5.28-8.362-1.473-8.362-1.473s-0.245-0.368-2.091-3.073
		c-1.846-2.7-6.764-1.228-6.764-1.228s0.738-1.719-1.967-5.895c1.924,18.924-20.924,17.201-20.276,12.469
		c2.583,0.982,5.028-0.432,4.658-2.029c-1.476,0.491-8.363,0.614-10.085-4.668c-1.598,0.983-0.49,6.018,1.477,6.51
		c-0.47,0.69-1.501,1.378-2.837,2.021c-3.116,1.504-6.686,1.856-10.057,1.077c-3.43-0.792-6.503-2.333-7.932-4.996
		c-0.211,3.059,2.639,5.483,2.639,5.483s0,0-3.272,0c-3.273,0-12.036,0.317-13.304-1.792c0,0,1.585,3.691,7.286,3.691
		c5.7,0,11.93,0,11.93,0s0.227-0.026,0.612-0.072c7.45,0.05,52.308,0.33,54.9-0.006c2.829-0.37,12.667,0,13.036-2.089
		C1054.961,315.747,1048.075,314.888,1045.001,313.904z"/>
	<path fill="#D3E0EA" d="M252.471,327.633c-13.354,0-8.218-9.261,2.396-8.232c-6.163-14.75,6.163-26.755,18.489-22.296
		c-3.082-4.802,5.82-17.151,14.723-12.349c0.685-13.72,39.375-29.156,49.304,7.89c11.983-5.488,17.461,7.889,14.38,12.691
		c8.218,0.343,7.19,6.86,5.821,9.261c0,0,7.875-1.372,12.326,2.401c4.451,3.773,1.369,10.633-7.19,10.633
		S252.471,327.633,252.471,327.633z"/>
	<path fill="#1687A7" d="M248.25,324.846c2.398,1.5,3.356,1.121,10.442,1.121c7.086,0,93.237,0,101.815,0
		c8.577,0,10.251-4.78,9.191-7.208s-10.148-3.035-14.843-2.731c2.078-2.082,5.15-9.256-4.695-10.167
		c2.727-2.579,0.909-8.952-0.908-10.167c0,0-1.364,15.174-17.873,10.774c2.121,5.614,8.179,5.766,8.179,5.766
		s-3.181,5.614-10.602,3.793c-0.455,1.669,2.878,3.49,2.878,3.49s-37.714,0-42.41,0s-9.694-4.249-9.694-4.249
		s1.06,4.097,2.575,5.007c1.515,0.911-3.483,3.187-10.753,3.187s-20.75,0-23.174,0C245.953,323.463,248.25,324.846,248.25,324.846z"
		/>
	<path fill="#D3E0EA" d="M1104.145,280.53c-6.115,0-3.765-4.241,1.099-3.77c-2.824-6.754,2.82-12.252,8.465-10.21
		c-1.41-2.199,2.666-7.854,6.743-5.655c0.313-6.283,18.031-13.352,22.578,3.613c5.488-2.513,7.997,3.613,6.585,5.812
		c3.764,0.157,3.294,3.142,2.667,4.242c0,0,3.606-0.629,5.645,1.099c2.038,1.728,0.627,4.87-3.294,4.87
		C1150.713,280.53,1104.145,280.53,1104.145,280.53z"/>
	<path fill="#1687A7" d="M1102.212,279.254c1.099,0.687,1.537,0.514,4.781,0.514s42.697,0,46.626,0s4.694-2.189,4.209-3.301
		c-0.485-1.111-4.647-1.39-6.798-1.251c0.952-0.953,2.358-4.239-2.148-4.656c1.248-1.181,0.415-4.099-0.418-4.655
		c0,0-0.624,6.949-8.184,4.934c0.971,2.571,3.745,2.641,3.745,2.641s-1.457,2.57-4.855,1.737c-0.208,0.764,1.317,1.598,1.317,1.598
		s-17.271,0-19.42,0c-2.151,0-4.439-1.946-4.439-1.946s0.484,1.876,1.179,2.293c0.693,0.417-1.595,1.459-4.925,1.459
		c-3.329,0-9.502,0-10.611,0C1101.16,278.621,1102.212,279.254,1102.212,279.254z"/>
	<path fill="#D3E0EA" d="M21.522,386.441c-6.297,0-3.875-4.367,1.13-3.882c-2.906-6.956,2.906-12.616,8.719-10.514
		c-1.453-2.265,2.744-8.088,6.942-5.823c0.323-6.47,18.567-13.748,23.249,3.721c5.651-2.588,8.234,3.72,6.781,5.984
		c3.875,0.161,3.391,3.234,2.745,4.367c0,0,3.714-0.646,5.813,1.132c2.099,1.779,0.646,5.015-3.391,5.015
		S21.522,386.441,21.522,386.441z"/>
	<path fill="#1687A7" d="M19.532,385.126c1.131,0.707,1.583,0.528,4.924,0.528s43.965,0,48.01,0c4.044,0,4.834-2.254,4.334-3.398
		c-0.5-1.145-4.785-1.431-6.999-1.288c0.98-0.981,2.428-4.364-2.214-4.794c1.286-1.217,0.429-4.222-0.428-4.794
		c0,0-0.643,7.155-8.428,5.08c1,2.647,3.856,2.719,3.856,2.719s-1.5,2.647-4.999,1.789c-0.214,0.787,1.357,1.646,1.357,1.646
		s-17.784,0-19.998,0c-2.214,0-4.571-2.003-4.571-2.003s0.5,1.932,1.214,2.361s-1.643,1.502-5.071,1.502s-9.785,0-10.928,0
		S19.532,385.126,19.532,385.126z"/>
	<path fill="#D3E0EA" d="M599.288,381.358c-13.982,0-8.604-9.696,2.509-8.619c-6.453-15.444,6.453-28.015,19.36-23.346
		c-3.227-5.028,6.094-17.958,15.415-12.93c0.717-14.366,41.228-30.528,51.624,8.261c12.549-5.746,18.284,8.26,15.059,13.288
		c8.604,0.36,7.527,7.185,6.094,9.698c0,0,8.246-1.437,12.906,2.513c4.661,3.951,1.434,11.135-7.528,11.135
		C705.764,381.358,599.288,381.358,599.288,381.358z"/>
	<path fill="#1687A7" d="M594.868,378.441c2.512,1.569,3.515,1.174,10.934,1.174c7.42,0,97.625,0,106.607,0
		c8.98,0,10.733-5.007,9.624-7.549s-10.625-3.177-15.541-2.858c2.176-2.181,5.392-9.691-4.917-10.646
		c2.855-2.701,0.951-9.374-0.951-10.646c0,0-1.428,15.889-18.714,11.281c2.22,5.879,8.563,6.038,8.563,6.038
		s-3.329,5.877-11.101,3.972c-0.477,1.747,3.014,3.654,3.014,3.654s-39.489,0-44.405,0s-10.15-4.449-10.15-4.449
		s1.109,4.29,2.696,5.242c1.586,0.954-3.647,3.338-11.261,3.338c-7.612,0-21.727,0-24.265,0
		C592.464,376.992,594.868,378.441,594.868,378.441z"/>
	<path fill="#D3E0EA" d="M174.635,270.564c-4.716,0-34.133,0-43.789,0s-5.39-2.916,0-2.916c0.673-2.691,4.94-3.364,7.635-2.916
		c1.348-2.916,4.491-2.242,5.614-1.121c0.225-1.121,7.41-6.728,12.351,0.225c0.74-1.49,4.137-0.404,3.369,1.121
		c1.347-2.018,7.41-3.364,8.982,1.122c1.431-1.561,4.716-0.449,5.165,1.121c1.123,0.449,6.063,0.449,8.309,1.346
		C184.516,269.443,182.271,270.564,174.635,270.564z"/>
	<g>
		<path fill="#1687A7" d="M182.575,268.942c0.04,0.646-1.898,1.25-3.837,1.25c-1.939,0-14.863,0-14.863,0s8.885-0.403,8.805-3.872
			c1.333,0.444,1.05,1.21,1.05,1.21S180.959,267.934,182.575,268.942z"/>
		<path fill="#1687A7" d="M167.632,264.788c1.494,1.21,1.211,4.235-1.979,4.114C167.228,267.49,168.237,265.917,167.632,264.788"/>
		<path fill="#1687A7" d="M156.596,267.251c0.778,1.087,3.37,0.104,3.525-1.036c0.467,0.622-0.052,2.226-1.348,2.537
			C157.218,268.959,156.389,268.338,156.596,267.251z"/>
		<path fill="#1687A7" d="M162.816,270.253h-24.932c0,0,1.866-0.621,2.747-1.243c-0.83,0.207-1.71-1.76-1.71-1.76
			s4.25,2.588,6.064-1.708c0.57,1.449-0.726,2.692-0.726,2.692s8.345,2.692,10.522-1.346c0.363,1.397-1.296,2.64-1.296,2.64
			L162.816,270.253z"/>
		<path fill="#1687A7" d="M127.185,268.763c0.842-0.071,1.293,0.695,2.188,0.695c0.895,0,8.502,0,8.502,0s-0.497,0.497-1.591,0.497
			c-1.094,0-6.066,0-8.354,0C125.643,269.955,124.848,268.962,127.185,268.763z"/>
	</g>
	<path fill="#D3E0EA" d="M480.366,375.69c-11.491,0-83.171,0-106.7,0s-13.133-7.104,0-7.104c1.641-6.558,12.037-8.198,18.604-7.105
		c3.284-7.104,10.944-5.464,13.68-2.731c0.547-2.732,18.057-16.395,30.095,0.547c1.804-3.63,10.08-0.984,8.208,2.732
		c3.282-4.918,18.056-8.197,21.887,2.732c3.487-3.804,11.491-1.094,12.584,2.73c2.736,1.095,14.773,1.095,20.247,3.279
		C504.442,372.955,498.971,375.69,480.366,375.69z"/>
	<g>
		<path fill="#1687A7" d="M499.713,371.735c0.098,1.576-4.625,3.049-9.349,3.049c-4.725,0-36.216,0-36.216,0
			s21.65-0.982,21.454-9.435c3.247,1.08,2.558,2.948,2.558,2.948S495.776,369.28,499.713,371.735z"/>
		<path fill="#1687A7" d="M463.301,361.614c3.641,2.949,2.952,10.322-4.823,10.027C462.316,368.199,464.776,364.365,463.301,361.614
			"/>
		<path fill="#1687A7" d="M436.411,367.614c1.895,2.651,8.21,0.253,8.589-2.521c1.137,1.514-0.126,5.426-3.284,6.182
			C437.927,371.778,435.906,370.265,436.411,367.614z"/>
		<path fill="#1687A7" d="M451.567,374.932h-60.751c0,0,4.546-1.514,6.694-3.029c-2.021,0.504-4.168-4.289-4.168-4.289
			s10.356,6.309,14.777-4.16c1.39,3.533-1.768,6.56-1.768,6.56s20.334,6.558,25.64-3.279c0.884,3.403-3.158,6.433-3.158,6.433
			L451.567,374.932z"/>
		<path fill="#1687A7" d="M364.744,371.303c2.052-0.177,3.15,1.693,5.331,1.693c2.18,0,20.718,0,20.718,0s-1.211,1.209-3.877,1.209
			c-2.665,0-14.781,0-20.355,0C360.988,374.205,359.05,371.783,364.744,371.303z"/>
	</g>
	<path fill="#D3E0EA" d="M1036.6,381.564c-17.752,0-128.481,0-164.83,0c-36.348,0-20.287-10.976,0-10.976
		c2.535-10.13,18.595-12.664,28.739-10.977c5.073-10.975,16.905-8.44,21.132-4.219c0.847-4.222,27.894-25.327,46.491,0.845
		c2.785-5.607,15.57-1.521,12.68,4.221c5.07-7.598,27.893-12.663,33.813,4.221c5.386-5.876,17.75-1.689,19.439,4.219
		c4.228,1.69,22.822,1.69,31.276,5.065C1073.791,377.339,1065.34,381.564,1036.6,381.564z"/>
	<g>
		<path fill="#1687A7" d="M1066.486,375.453c0.15,2.436-7.145,4.71-14.441,4.71c-7.299,0-55.946,0-55.946,0
			s33.445-1.518,33.142-14.574c5.017,1.668,3.951,4.555,3.951,4.555S1060.405,371.661,1066.486,375.453z"/>
		<path fill="#1687A7" d="M1010.237,359.819c5.624,4.556,4.561,15.946-7.45,15.49
			C1008.716,369.992,1012.517,364.07,1010.237,359.819"/>
		<path fill="#1687A7" d="M968.698,369.087c2.928,4.096,12.683,0.391,13.268-3.895c1.756,2.338-0.194,8.381-5.071,9.549
			C971.039,375.52,967.918,373.183,968.698,369.087z"/>
		<path fill="#1687A7" d="M992.111,380.393h-93.848c0,0,7.021-2.338,10.34-4.68c-3.123,0.778-6.438-6.626-6.438-6.626
			s15.997,9.746,22.828-6.427c2.146,5.459-2.731,10.134-2.731,10.134s31.412,10.13,39.606-5.066
			c1.367,5.258-4.877,9.938-4.877,9.938L992.111,380.393z"/>
		<path fill="#1687A7" d="M857.987,374.786c3.171-0.272,4.867,2.616,8.235,2.616c3.367,0,32.005,0,32.005,0
			s-1.871,1.868-5.989,1.868s-22.834,0-31.445,0C852.186,379.271,849.19,375.53,857.987,374.786z"/>
	</g>
	<path fill="#D3E0EA" d="M750.352,332.656c-18.512-0.881-9.267-14.103,3.97-13.222c-0.44-5.729,10.59-17.187,20.737-10.136
		c4.413-7.492,28.238-10.578,32.21,7.933c5.295-2.204,7.06,0.44,8.384,3.526c5.273-2.927,9.706,0,10.589,3.084
		c11.472,0.881,16.09,6.784,9.031,8.106C828.212,333.27,768.881,333.538,750.352,332.656z"/>
	<path fill="#1687A7" d="M824.72,324.802c-3.049-5.692-9.012-1.588-9.012-1.588s-0.266-0.397-2.254-3.31
		c-1.989-2.912-7.29-1.324-7.29-1.324s0.795-1.854-2.121-6.354c2.073,20.396-22.55,18.539-21.853,13.438
		c2.783,1.059,5.419-0.465,5.021-2.186c-1.592,0.529-9.014,0.662-10.869-5.031c-1.723,1.059-0.53,6.487,1.59,7.016
		c-0.506,0.743-1.618,1.485-3.056,2.179c-3.359,1.619-7.208,1.999-10.84,1.16c-3.697-0.854-7.007-2.516-8.549-5.385
		c-0.228,3.297,2.845,5.91,2.845,5.91s0,0-3.527,0s-12.974,0.342-14.338-1.932c0,0,1.706,3.978,7.851,3.978s12.858,0,12.858,0
		s0.245-0.029,0.66-0.077c8.03,0.054,56.377,0.356,59.172-0.007c3.048-0.397,13.65,0,14.048-2.25
		C835.454,326.787,828.032,325.861,824.72,324.802z"/>
	<path fill="#D3E0EA" d="M710.585,267.022c-6.298,0-45.585,0-58.48,0c-12.896,0-7.198-3.895,0-3.895
		c0.899-3.594,6.597-4.492,10.196-3.895c1.8-3.893,5.998-2.994,7.498-1.496c0.3-1.498,9.896-8.986,16.493,0.3
		c0.989-1.99,5.525-0.54,4.5,1.497c1.799-2.695,9.896-4.493,11.995,1.498c1.912-2.085,6.299-0.6,6.897,1.496
		c1.5,0.6,8.098,0.6,11.098,1.798C723.78,265.523,720.782,267.022,710.585,267.022z"/>
	<g>
		<path fill="#1687A7" d="M721.188,264.854c0.054,0.864-2.535,1.671-5.124,1.671c-2.59,0-19.85,0-19.85,0s11.866-0.538,11.759-5.171
			c1.78,0.592,1.402,1.616,1.402,1.616S719.03,263.509,721.188,264.854z"/>
		<path fill="#1687A7" d="M701.232,259.307c1.995,1.616,1.617,5.657-2.645,5.496C700.691,262.917,702.04,260.815,701.232,259.307"/>
		<path fill="#1687A7" d="M686.493,262.595c1.039,1.453,4.501,0.139,4.708-1.382c0.624,0.83-0.069,2.974-1.8,3.389
			C687.324,264.878,686.217,264.049,686.493,262.595z"/>
		<path fill="#1687A7" d="M694.801,266.607h-33.298c0,0,2.492-0.83,3.67-1.66c-1.108,0.275-2.285-2.352-2.285-2.352
			s5.677,3.458,8.1-2.279c0.762,1.936-0.97,3.594-0.97,3.594s11.146,3.595,14.054-1.797c0.484,1.866-1.731,3.526-1.731,3.526
			L694.801,266.607z"/>
		<path fill="#1687A7" d="M647.214,264.618c1.125-0.098,1.727,0.928,2.922,0.928s11.355,0,11.355,0s-0.664,0.663-2.125,0.663
			s-8.102,0-11.156,0S644.093,264.882,647.214,264.618z"/>
	</g>
</g>
</svg>
