<?xml version="1.0" encoding="utf-8"?>
<!-- Generator: Adobe Illustrator 16.0.0, SVG Export Plug-In . SVG Version: 6.00 Build 0)  -->
<!DOCTYPE svg PUBLIC "-//W3C//DTD SVG 1.1//EN" "http://www.w3.org/Graphics/SVG/1.1/DTD/svg11.dtd">
<svg version="1.1" id="圖層_1" xmlns="http://www.w3.org/2000/svg" xmlns:xlink="http://www.w3.org/1999/xlink" x="0px" y="0px"
	 width="1200px" height="462.851px" viewBox="0 0 1200 462.851" enable-background="new 0 0 1200 462.851" xml:space="preserve">
<path fill="#EEEEEE" d="M158.82,223.463c-22.314,0.698-12.979-16.623,11.941-16.104c-4.673-9.351,7.268-18.701,16.095-15.585
	c-4.154-12.986,34.785-33.767,52.956-3.116c12.979-6.754,24.92,13.506,14.017,25.453c5.711,0,14.017,7.793,2.078,9.351
	C240.85,225.022,175.433,222.944,158.82,223.463z"/>
<g>
	<path fill="#DDDDDD" d="M227.239,203.878c5.68,0.125,8.962-3.409,10.605-6.946c1.64-3.537,0.504-9.601-1.895-11.621
		C237.084,189.48,235.317,201.351,227.239,203.878z"/>
	<path fill="#DDDDDD" d="M252.19,214.865c2.844-4.097,6.485-13.661,3.299-18.44c-0.077,0.998-1.188,9.446-7.517,14.218
		c-1.882,0.862-4.109,1.085-6.421-0.019c0,0,0.672,1.347,2.183,2.275c-2.476,0.864-5.461,1.231-9.065,0.828
		c0.228,1.479,5.121,2.846,5.576,2.846c-0.403,0-30.295,0-33.181,0c-2.926,0-8.414-5.532-9.328-6.813
		c-0.915,0.549-0.183,4.575,2.195,6.04c2.377,1.463-14.45,1.463-21.035-2.562c0.915,3.11,2.744,5.49,5.488,5.49
		c0,0-32.192-0.185-34.388-0.55c-2.195-0.364,0.146,1.573,0.146,1.573c2.157,1.889,3.506,2.159,7.28,2.159
		c3.775,0,91.413,0,96.807,0C259.623,221.91,262.658,217.029,252.19,214.865z"/>
</g>
<path fill="#EEEEEE" d="M925.536,197.81c-22.314,0.698-12.979-16.623,11.941-16.104c-4.673-9.351,7.268-18.701,16.095-15.585
	c-4.153-12.986,34.785-33.767,52.956-3.116c12.979-6.754,24.92,13.506,14.018,25.453c5.711,0,14.017,7.793,2.077,9.351
	C1007.566,199.368,942.149,197.29,925.536,197.81z"/>
<g>
	<path fill="#DDDDDD" d="M993.955,178.225c5.681,0.125,8.962-3.409,10.605-6.946c1.64-3.537,0.505-9.601-1.896-11.621
		C1003.801,163.826,1002.033,175.698,993.955,178.225z"/>
	<path fill="#DDDDDD" d="M1018.906,189.211c2.845-4.097,6.485-13.661,3.3-18.44c-0.078,0.998-1.189,9.446-7.518,14.218
		c-1.881,0.862-4.109,1.085-6.42-0.019c0,0,0.672,1.347,2.182,2.275c-2.475,0.864-5.461,1.231-9.064,0.828
		c0.228,1.479,5.121,2.846,5.575,2.846c-0.403,0-30.296,0-33.181,0c-2.926,0-8.414-5.532-9.328-6.813
		c-0.914,0.549-0.183,4.575,2.195,6.04c2.377,1.463-14.451,1.463-21.035-2.562c0.914,3.11,2.743,5.49,5.487,5.49
		c0,0-32.192-0.185-34.388-0.55c-2.195-0.364,0.146,1.573,0.146,1.573c2.156,1.889,3.506,2.159,7.279,2.159
		c3.775,0,91.414,0,96.808,0S1029.374,191.375,1018.906,189.211z"/>
</g>
<path fill="#EEEEEE" d="M871.158,73.975c-11.583,0.362-6.739-8.629,6.197-8.36c-2.426-4.853,3.774-9.706,8.355-8.089
	c-2.158-6.74,18.056-17.527,27.488-1.617c6.736-3.506,12.936,7.01,7.276,13.211c2.965,0,7.276,4.045,1.078,4.855
	C913.737,74.784,879.781,73.705,871.158,73.975z"/>
<g>
	<path fill="#DDDDDD" d="M906.672,63.807c2.949,0.065,4.652-1.77,5.504-3.605c0.852-1.836,0.263-4.984-0.984-6.032
		C911.782,56.333,910.866,62.497,906.672,63.807z"/>
	<path fill="#DDDDDD" d="M919.624,69.512c1.477-2.128,3.366-7.091,1.713-9.573c-0.041,0.518-0.617,4.903-3.903,7.379
		c-0.976,0.448-2.133,0.563-3.332-0.009c0,0,0.351,0.699,1.134,1.182c-1.285,0.447-2.836,0.638-4.705,0.429
		c0.117,0.768,2.657,1.476,2.894,1.476c-0.21,0-15.728,0-17.224,0c-1.52,0-4.367-2.871-4.844-3.536
		c-0.473,0.285-0.094,2.374,1.14,3.136c1.234,0.76-7.5,0.76-10.918-1.331c0.475,1.614,1.424,2.849,2.847,2.849
		c0,0-16.71-0.095-17.849-0.284c-1.139-0.19,0.075,0.817,0.075,0.817c1.119,0.98,1.818,1.121,3.78,1.121c1.958,0,47.45,0,50.249,0
		C923.481,73.168,925.058,70.635,919.624,69.512z"/>
</g>
<path fill="#EEEEEE" d="M509.797,104.483c-17.169,0.536-9.986-12.792,9.189-12.391c-3.596-7.196,5.593-14.391,12.384-11.992
	c-3.197-9.993,26.766-25.981,40.747-2.398c9.988-5.196,19.176,10.392,10.787,19.585c4.393,0,10.785,5.996,1.598,7.196
	C572.916,105.682,522.58,104.084,509.797,104.483z"/>
<g>
	<path fill="#DDDDDD" d="M562.441,89.413c4.371,0.097,6.897-2.624,8.159-5.345c1.263-2.722,0.39-7.387-1.455-8.942
		C570.018,78.334,568.659,87.47,562.441,89.413z"/>
	<path fill="#DDDDDD" d="M581.641,97.868c2.188-3.153,4.99-10.512,2.54-14.19c-0.061,0.769-0.916,7.269-5.785,10.94
		c-1.448,0.663-3.162,0.834-4.94-0.014c0,0,0.518,1.036,1.68,1.751c-1.904,0.664-4.202,0.947-6.975,0.636
		c0.174,1.14,3.938,2.19,4.29,2.19c-0.31,0-23.311,0-25.532,0c-2.25,0-6.473-4.257-7.177-5.242
		c-0.704,0.423-0.142,3.521,1.689,4.648c1.829,1.125-11.119,1.125-16.185-1.973c0.703,2.395,2.11,4.224,4.221,4.224
		c0,0-24.771-0.14-26.459-0.422c-1.689-0.28,0.112,1.211,0.112,1.211c1.659,1.454,2.696,1.661,5.602,1.661c2.904,0,70.339,0,74.49,0
		C587.361,103.288,589.695,99.532,581.641,97.868z"/>
</g>
<path fill="#EEEEEE" d="M547.215,363.293c-23.588,0.735-13.72-17.574,12.625-17.023c-4.94-9.887,7.684-19.772,17.014-16.476
	c-4.393-13.73,36.772-35.697,55.981-3.295c13.723-7.14,26.346,14.278,14.82,26.907c6.035,0,14.817,8.238,2.195,9.887
	C633.934,364.94,564.778,362.743,547.215,363.293z"/>
<g>
	<path fill="#DDDDDD" d="M619.543,342.588c6.005,0.133,9.477-3.604,11.21-7.344c1.734-3.741,0.535-10.148-2-12.284
		C629.951,327.367,628.085,339.918,619.543,342.588z"/>
	<path fill="#DDDDDD" d="M645.92,354.205c3.007-4.333,6.856-14.442,3.49-19.496c-0.083,1.056-1.259,9.985-7.948,15.03
		c-1.99,0.91-4.345,1.146-6.788-0.02c0,0,0.712,1.423,2.309,2.405c-2.617,0.912-5.773,1.302-9.583,0.875
		c0.239,1.565,5.411,3.008,5.895,3.008c-0.427,0-32.027,0-35.079,0c-3.091,0-8.893-5.847-9.859-7.202
		c-0.967,0.582-0.194,4.838,2.321,6.387c2.513,1.545-15.277,1.545-22.236-2.711c0.966,3.29,2.899,5.804,5.799,5.804
		c0,0-34.032-0.192-36.352-0.58c-2.321-0.385,0.154,1.664,0.154,1.664c2.28,1.997,3.705,2.282,7.697,2.282
		c3.989,0,96.638,0,102.34,0C653.779,361.652,656.986,356.491,645.92,354.205z"/>
</g>
<path fill="#EEEEEE" d="M887.363,367.961c-18.407,0.574-10.706-13.714,9.853-13.284c-3.855-7.715,5.995-15.429,13.276-12.856
	c-3.428-10.714,28.694-27.855,43.685-2.571c10.708-5.571,20.559,11.143,11.564,20.997c4.71,0,11.563,6.429,1.713,7.715
	C955.033,369.246,901.068,367.532,887.363,367.961z"/>
<g>
	<path fill="#DDDDDD" d="M943.804,351.805c4.686,0.104,7.395-2.813,8.747-5.731c1.354-2.919,0.418-7.919-1.561-9.585
		C951.926,339.927,950.469,349.721,943.804,351.805z"/>
	<path fill="#DDDDDD" d="M964.387,360.87c2.346-3.382,5.351-11.271,2.724-15.214c-0.065,0.823-0.982,7.792-6.203,11.729
		c-1.553,0.71-3.39,0.895-5.297-0.016c0,0,0.556,1.11,1.802,1.877c-2.042,0.712-4.505,1.017-7.478,0.684
		c0.187,1.221,4.222,2.347,4.6,2.347c-0.333,0-24.992,0-27.374,0c-2.412,0-6.939-4.563-7.693-5.62
		c-0.755,0.454-0.151,3.775,1.812,4.983c1.961,1.206-11.922,1.206-17.353-2.115c0.755,2.567,2.263,4.529,4.525,4.529
		c0,0-26.556-0.15-28.366-0.453c-1.812-0.3,0.12,1.299,0.12,1.299c1.778,1.559,2.892,1.781,6.007,1.781c3.111,0,75.41,0,79.859,0
		C970.52,366.681,973.022,362.654,964.387,360.87z"/>
</g>
<path fill="#EEEEEE" d="M1106.857,296.406c-15.312,0.479-8.907-11.41,8.197-11.055c-3.207-6.414,4.985-12.833,11.047-10.692
	c-2.851-8.915,23.872-23.176,36.343-2.141c8.909-4.636,17.104,9.27,9.62,17.469c3.921,0,9.619,5.349,1.426,6.419
	C1163.156,297.476,1118.26,296.048,1106.857,296.406z"/>
<g>
	<path fill="#DDDDDD" d="M1153.812,282.961c3.902,0.09,6.155-2.34,7.283-4.768c1.125-2.426,0.348-6.587-1.301-7.974
		C1160.572,273.082,1159.361,281.228,1153.812,282.961z"/>
	<path fill="#DDDDDD" d="M1170.94,290.502c1.949-2.812,4.45-9.375,2.264-12.654c-0.053,0.685-0.815,6.484-5.159,9.758
		c-1.292,0.591-2.82,0.742-4.407-0.014c0,0,0.462,0.923,1.497,1.563c-1.694,0.593-3.747,0.843-6.219,0.568
		c0.155,1.013,3.515,1.952,3.826,1.952c-0.277,0-20.792,0-22.773,0c-2.01,0-5.775-3.797-6.402-4.678
		c-0.63,0.378-0.125,3.14,1.506,4.147c1.632,1.004-9.917,1.004-14.436-1.759c0.627,2.134,1.885,3.767,3.766,3.767
		c0,0-22.098-0.125-23.603-0.377c-1.503-0.249,0.1,1.081,0.1,1.081c1.482,1.297,2.41,1.483,5,1.483c2.589,0,62.738,0,66.438,0
		C1176.039,295.341,1178.123,291.989,1170.94,290.502z"/>
</g>
<path fill="#EEEEEE" d="M47.895,114.556c-15.921-0.758-7.97-12.131,3.416-11.373c-0.38-4.927,9.108-14.782,17.837-8.719
	c3.794-6.443,24.289-9.097,27.704,6.824c4.555-1.896,6.074,0.379,7.211,3.033c4.536-2.518,8.349,0,9.108,2.653
	c9.868,0.757,13.84,5.835,7.768,6.973C114.866,115.083,63.833,115.314,47.895,114.556z"/>
<path fill="#DDDDDD" d="M111.862,107.799c-2.622-4.896-7.752-1.367-7.752-1.367s-0.228-0.342-1.938-2.846
	c-1.711-2.505-6.271-1.139-6.271-1.139s0.685-1.594-1.823-5.466c1.783,17.543-19.396,15.946-18.797,11.559
	c2.395,0.912,4.661-0.4,4.319-1.881c-1.368,0.456-7.753,0.57-9.348-4.327c-1.482,0.912-0.456,5.58,1.368,6.035
	c-0.436,0.64-1.391,1.277-2.629,1.875c-2.888,1.393-6.2,1.719-9.324,0.998c-3.18-0.734-6.026-2.163-7.353-4.632
	c-0.195,2.835,2.447,5.084,2.447,5.084s0,0-3.034,0c-3.035,0-11.159,0.294-12.333-1.662c0,0,1.468,3.422,6.754,3.422
	c5.285,0,11.059,0,11.059,0s0.211-0.024,0.568-0.065c6.907,0.046,48.492,0.306,50.896-0.007c2.621-0.342,11.742,0,12.083-1.936
	C121.096,109.508,114.712,108.71,111.862,107.799z"/>
<path fill="#EEEEEE" d="M411.125,60.759c-11.084-0.528-5.549-8.445,2.377-7.917c-0.264-3.432,6.342-10.292,12.418-6.069
	c2.642-4.486,16.909-6.334,19.286,4.75c3.171-1.32,4.228,0.264,5.021,2.111c3.159-1.752,5.813,0,6.342,1.847
	c6.87,0.528,9.635,4.062,5.408,4.854C457.748,61.125,422.221,61.286,411.125,60.759z"/>
<path fill="#DDDDDD" d="M455.656,56.056c-1.825-3.409-5.396-0.952-5.396-0.952s-0.159-0.238-1.35-1.983
	c-1.19-1.742-4.364-0.792-4.364-0.792s0.476-1.11-1.271-3.805c1.241,12.212-13.502,11.1-13.085,8.046
	c1.667,0.635,3.245-0.278,3.007-1.308c-0.953,0.317-5.396,0.396-6.509-3.013c-1.031,0.635-0.317,3.884,0.953,4.201
	c-0.303,0.445-0.968,0.89-1.83,1.306c-2.01,0.969-4.316,1.198-6.49,0.694c-2.215-0.512-4.197-1.507-5.119-3.226
	c-0.137,1.975,1.703,3.54,1.703,3.54s0,0-2.113,0s-7.768,0.204-8.585-1.157c0,0,1.022,2.383,4.702,2.383s7.699,0,7.699,0
	s0.147-0.018,0.396-0.045c4.808,0.032,33.758,0.212,35.431-0.005c1.825-0.239,8.174,0,8.412-1.349
	C462.085,57.244,457.641,56.69,455.656,56.056z"/>
<path fill="#EEEEEE" d="M1053.86,127.551c-17.632-0.838-8.827-13.434,3.78-12.593c-0.417-5.458,10.087-16.371,19.754-9.654
	c4.201-7.137,26.897-10.078,30.68,7.556c5.043-2.1,6.724,0.419,7.983,3.357c5.023-2.787,9.245,0,10.088,2.939
	c10.926,0.838,15.325,6.461,8.603,7.72C1128.021,128.135,1071.51,128.39,1053.86,127.551z"/>
<path fill="#DDDDDD" d="M1124.695,120.069c-2.903-5.42-8.583-1.512-8.583-1.512s-0.253-0.378-2.147-3.154
	c-1.895-2.772-6.943-1.261-6.943-1.261s0.757-1.765-2.021-6.052c1.976,19.427-21.48,17.658-20.814,12.8
	c2.651,1.009,5.162-0.443,4.783-2.082c-1.517,0.504-8.586,0.63-10.354-4.792c-1.64,1.008-0.502,6.178,1.516,6.683
	c-0.481,0.709-1.54,1.415-2.911,2.075c-3.2,1.544-6.863,1.906-10.324,1.105c-3.522-0.813-6.678-2.395-8.144-5.129
	c-0.217,3.142,2.71,5.63,2.71,5.63s0,0-3.36,0c-3.358,0-12.356,0.325-13.657-1.84c0,0,1.628,3.791,7.479,3.791
	c5.853,0,12.248,0,12.248,0s0.232-0.028,0.628-0.074c7.646,0.05,53.698,0.338,56.358-0.006c2.905-0.38,13.005,0,13.384-2.146
	C1134.921,121.961,1127.852,121.079,1124.695,120.069z"/>
<path fill="#EEEEEE" d="M302.808,153.434c-13.708,0-8.436-9.509,2.46-8.452c-6.327-15.142,6.326-27.466,18.98-22.889
	c-3.164-4.93,5.974-17.607,15.115-12.678c0.703-14.085,40.422-29.931,50.614,8.101c12.302-5.635,17.925,8.098,14.762,13.028
	c8.437,0.352,7.381,7.042,5.976,9.507c0,0,8.084-1.408,12.654,2.465c4.569,3.873,1.405,10.916-7.382,10.916
	C407.202,153.432,302.808,153.434,302.808,153.434z"/>
<path fill="#DDDDDD" d="M298.475,150.573c2.462,1.539,3.446,1.15,10.72,1.15s95.715,0,104.522,0c8.805,0,10.523-4.907,9.436-7.399
	c-1.088-2.494-10.418-3.116-15.238-2.804c2.133-2.138,5.287-9.502-4.82-10.438c2.799-2.647,0.933-9.189-0.933-10.437
	c0,0-1.4,15.577-18.348,11.061c2.177,5.764,8.396,5.919,8.396,5.919s-3.265,5.763-10.883,3.894
	c-0.468,1.712,2.954,3.583,2.954,3.583s-38.717,0-43.538,0c-4.82,0-9.952-4.362-9.952-4.362s1.088,4.206,2.644,5.139
	c1.555,0.937-3.575,3.273-11.039,3.273s-21.302,0-23.791,0C296.117,149.153,298.475,150.573,298.475,150.573z"/>
<path fill="#EEEEEE" d="M1020.424,448.072c-16.896,0-10.397-11.72,3.033-10.417c-7.799-18.664,7.796-33.853,23.393-28.211
	c-3.9-6.076,7.363-21.701,18.629-15.625c0.866-17.36,49.82-36.891,62.383,9.983c15.162-6.944,22.093,9.981,18.195,16.058
	c10.397,0.434,9.098,8.68,7.365,11.718c0,0,9.963-1.736,15.596,3.038c5.632,4.773,1.732,13.454-9.098,13.454
	C1149.091,448.07,1020.424,448.072,1020.424,448.072z"/>
<path fill="#DDDDDD" d="M1015.083,444.545c3.034,1.896,4.247,1.418,13.213,1.418s117.97,0,128.824,0
	c10.853,0,12.97-6.049,11.63-9.12c-1.342-3.074-12.842-3.841-18.781-3.457c2.629-2.634,6.516-11.711-5.94-12.864
	c3.45-3.263,1.15-11.326-1.149-12.863c0,0-1.725,19.199-22.613,13.633c2.683,7.104,10.348,7.295,10.348,7.295
	s-4.023,7.103-13.414,4.8c-0.576,2.11,3.642,4.415,3.642,4.415s-47.72,0-53.661,0s-12.266-5.375-12.266-5.375
	s1.342,5.183,3.259,6.333c1.917,1.154-4.407,4.034-13.605,4.034s-26.255,0-29.321,0
	C1012.178,442.795,1015.083,444.545,1015.083,444.545z"/>
<path fill="#EEEEEE" d="M1120.959,65.33c-6.276,0-3.864-4.354,1.129-3.87c-2.898-6.935,2.896-12.579,8.691-10.482
	c-1.449-2.257,2.736-8.063,6.921-5.805c0.322-6.45,18.512-13.707,23.18,3.708c5.632-2.58,8.21,3.709,6.759,5.967
	c3.865,0.161,3.382,3.225,2.739,4.354c0,0,3.701-0.646,5.794,1.128c2.092,1.774,0.644,5-3.381,5
	C1168.766,65.33,1120.959,65.33,1120.959,65.33z"/>
<path fill="#DDDDDD" d="M1118.976,64.019c1.128,0.706,1.578,0.528,4.908,0.528s43.832,0,47.866,0c4.032,0,4.818-2.248,4.32-3.39
	c-0.498-1.14-4.771-1.427-6.978-1.284c0.978-0.978,2.42-4.351-2.207-4.779c1.281-1.213,0.427-4.208-0.428-4.778
	c0,0-0.642,7.134-8.402,5.064c0.997,2.64,3.845,2.712,3.845,2.712s-1.494,2.638-4.984,1.782c-0.214,0.785,1.353,1.642,1.353,1.642
	s-17.73,0-19.936,0c-2.208,0-4.559-1.998-4.559-1.998s0.498,1.926,1.21,2.354c0.713,0.428-1.636,1.498-5.056,1.498
	c-3.417,0-9.754,0-10.892,0C1117.896,63.37,1118.976,64.019,1118.976,64.019z"/>
<path fill="#EEEEEE" d="M723.475,439.218c-12.822,0-7.895-8.895,2.307-7.904c-5.922-14.17,5.918-25.7,17.757-21.416
	c-2.96-4.613,5.591-16.473,14.141-11.859c0.658-13.181,37.82-28.005,47.357,7.575c11.506-5.27,16.773,7.58,13.809,12.192
	c7.896,0.327,6.909,6.588,5.597,8.895c0,0,7.562-1.316,11.837,2.307c4.274,3.623,1.315,10.216-6.907,10.216
	C821.147,439.218,723.475,439.218,723.475,439.218z"/>
<path fill="#DDDDDD" d="M719.423,436.541c2.305,1.444,3.225,1.081,10.027,1.081c6.804,0,89.552,0,97.794,0
	c8.238,0,9.845-4.593,8.827-6.928c-1.018-2.326-9.746-2.912-14.256-2.621c1.997-1.999,4.944-8.891-4.509-9.765
	c2.617-2.478,0.872-8.6-0.874-9.765c0,0-1.311,14.577-17.167,10.348c2.037,5.395,7.855,5.542,7.855,5.542s-3.053,5.388-10.184,3.64
	c-0.437,1.604,2.764,3.355,2.764,3.355s-36.225,0-40.729,0c-4.512,0-9.313-4.082-9.313-4.082s1.017,3.935,2.472,4.809
	c1.456,0.874-3.342,3.061-10.329,3.061c-6.981,0-19.928,0-22.252,0C717.218,435.216,719.423,436.541,719.423,436.541z"/>
<path fill="#EEEEEE" d="M25.793,245.079c-6.465,0-3.979-4.482,1.16-3.985c-2.984-7.141,2.983-12.951,8.951-10.793
	c-1.492-2.326,2.817-8.304,7.126-5.978c0.332-6.642,19.06-14.113,23.867,3.819c5.801-2.657,8.453,3.818,6.961,6.144
	c3.978,0.165,3.481,3.319,2.818,4.482c0,0,3.813-0.662,5.968,1.163s0.663,5.147-3.481,5.147
	C75.019,245.079,25.793,245.079,25.793,245.079z"/>
<path fill="#DDDDDD" d="M23.75,243.73c1.16,0.726,1.625,0.541,5.055,0.541s45.134,0,49.286,0c4.151,0,4.962-2.313,4.449-3.487
	c-0.514-1.176-4.913-1.469-7.186-1.321c1.007-1.009,2.493-4.481-2.272-4.923c1.32-1.249,0.441-4.334-0.439-4.921
	c0,0-0.66,7.345-8.652,5.215c1.026,2.717,3.958,2.791,3.958,2.791s-1.54,2.717-5.132,1.838c-0.22,0.807,1.393,1.688,1.393,1.688
	s-18.257,0-20.53,0c-2.272,0-4.692-2.056-4.692-2.056s0.513,1.983,1.246,2.424c0.733,0.44-1.687,1.541-5.206,1.541
	c-3.52,0-10.046,0-11.219,0C22.637,243.06,23.75,243.73,23.75,243.73z"/>
<path fill="#EEEEEE" d="M597.749,235.761c-17.182,0-10.574-11.916,3.083-10.591c-7.93-18.98,7.93-34.429,23.791-28.689
	c-3.966-6.181,7.489-22.069,18.944-15.89c0.879-17.654,50.662-37.516,63.438,10.15c15.421-7.061,22.469,10.152,18.505,16.33
	c10.573,0.442,9.252,8.829,7.488,11.918c0,0,10.135-1.767,15.861,3.087c5.727,4.856,1.764,13.685-9.25,13.685
	C728.594,235.761,597.749,235.761,597.749,235.761z"/>
<path fill="#DDDDDD" d="M592.317,232.176c3.086,1.929,4.319,1.442,13.437,1.442c9.118,0,119.969,0,131.006,0
	c11.034,0,13.189-6.152,11.827-9.277c-1.363-3.122-13.058-3.903-19.099-3.512c2.674-2.68,6.627-11.907-6.042-13.081
	c3.507-3.319,1.168-11.521-1.169-13.082c0,0-1.755,19.524-22.996,13.86c2.728,7.225,10.521,7.42,10.521,7.42
	s-4.089,7.222-13.641,4.882c-0.586,2.146,3.703,4.49,3.703,4.49s-48.525,0-54.567,0c-6.041,0-12.472-5.467-12.472-5.467
	s1.361,5.271,3.312,6.441c1.95,1.173-4.48,4.101-13.838,4.101c-9.354,0-26.699,0-29.818,0
	C589.362,230.394,592.317,232.176,592.317,232.176z"/>
<path fill="#EEEEEE" d="M213.322,66.176c-4.841,0-35.04,0-44.953,0c-9.913,0-5.534-2.994,0-2.994
	c0.69-2.763,5.072-3.454,7.838-2.993c1.384-2.994,4.61-2.302,5.763-1.151c0.231-1.15,7.607-6.907,12.679,0.23
	c0.76-1.528,4.248-0.414,3.459,1.151c1.382-2.071,7.607-3.453,9.22,1.151c1.469-1.602,4.842-0.461,5.303,1.151
	c1.153,0.461,6.224,0.461,8.53,1.381C223.466,65.025,221.161,66.176,213.322,66.176z"/>
<g>
	<path fill="#DDDDDD" d="M221.473,64.51c0.042,0.663-1.948,1.283-3.939,1.283s-15.258,0-15.258,0s9.121-0.414,9.04-3.975
		c1.368,0.456,1.078,1.242,1.078,1.242S219.814,63.476,221.473,64.51z"/>
	<path fill="#DDDDDD" d="M206.133,60.246c1.533,1.242,1.243,4.348-2.032,4.224C205.719,63.02,206.754,61.405,206.133,60.246"/>
	<path fill="#DDDDDD" d="M194.804,62.774c0.798,1.116,3.459,0.107,3.619-1.063c0.479,0.639-0.053,2.286-1.384,2.604
		C195.442,64.528,194.591,63.89,194.804,62.774z"/>
	<path fill="#DDDDDD" d="M201.188,65.856h-25.594c0,0,1.916-0.638,2.82-1.276c-0.852,0.213-1.755-1.807-1.755-1.807
		s4.363,2.657,6.225-1.753c0.586,1.487-0.746,2.764-0.746,2.764s8.567,2.763,10.803-1.381c0.373,1.434-1.332,2.709-1.332,2.709
		L201.188,65.856z"/>
	<path fill="#DDDDDD" d="M164.61,64.327c0.864-0.073,1.328,0.712,2.247,0.712s8.728,0,8.728,0s-0.51,0.511-1.633,0.511
		c-1.124,0-6.228,0-8.576,0C163.027,65.551,162.212,64.531,164.61,64.327z"/>
</g>
<path fill="#EEEEEE" d="M485.813,273.866c-11.797,0-85.383,0-109.537,0c-24.155,0-13.482-7.293,0-7.293
	c1.685-6.732,12.357-8.417,19.098-7.295c3.372-7.291,11.235-5.608,14.044-2.803c0.562-2.805,18.536-16.831,30.895,0.563
	c1.852-3.729,10.348-1.012,8.426,2.804c3.37-5.049,18.536-8.416,22.468,2.805c3.58-3.906,11.797-1.124,12.919,2.802
	c2.809,1.125,15.166,1.125,20.785,3.367C510.528,271.058,504.911,273.866,485.813,273.866z"/>
<g>
	<path fill="#DDDDDD" d="M505.673,269.806c0.101,1.617-4.748,3.129-9.597,3.129c-4.852,0-37.179,0-37.179,0
		s22.225-1.007,22.023-9.685c3.333,1.109,2.627,3.026,2.627,3.026S501.632,267.285,505.673,269.806z"/>
	<path fill="#DDDDDD" d="M468.293,259.415c3.738,3.027,3.03,10.598-4.95,10.295C467.282,266.176,469.808,262.24,468.293,259.415"/>
	<path fill="#DDDDDD" d="M440.688,265.575c1.945,2.722,8.429,0.259,8.817-2.588c1.167,1.554-0.13,5.569-3.372,6.347
		C442.244,269.85,440.17,268.297,440.688,265.575z"/>
	<path fill="#DDDDDD" d="M456.248,273.087h-62.367c0,0,4.667-1.553,6.872-3.109c-2.074,0.518-4.279-4.402-4.279-4.402
		s10.631,6.478,15.17-4.271c1.427,3.627-1.815,6.735-1.815,6.735s20.874,6.732,26.322-3.366c0.907,3.493-3.242,6.604-3.242,6.604
		L456.248,273.087z"/>
	<path fill="#DDDDDD" d="M367.116,269.363c2.106-0.181,3.234,1.737,5.473,1.737c2.237,0,21.269,0,21.269,0s-1.243,1.241-3.979,1.241
		s-15.175,0-20.897,0C363.261,272.341,361.271,269.855,367.116,269.363z"/>
</g>
<path fill="#EEEEEE" d="M981.377,279.204c-18.225,0-131.896,0-169.213,0c-37.314,0-20.826-11.269,0-11.269
	c2.604-10.4,19.09-13,29.503-11.269c5.209-11.267,17.356-8.664,21.694-4.332c0.871-4.333,28.637-25.999,47.728,0.868
	c2.859-5.755,15.984-1.562,13.019,4.332c5.203-7.799,28.633-12.998,34.711,4.335c5.528-6.032,18.223-1.734,19.955,4.33
	c4.341,1.735,23.429,1.735,32.107,5.2C1019.557,274.866,1010.881,279.204,981.377,279.204z"/>
<g>
	<path fill="#DDDDDD" d="M1012.059,272.93c0.153,2.502-7.336,4.836-14.826,4.836c-7.492,0-57.433,0-57.433,0
		s34.334-1.559,34.023-14.962c5.149,1.713,4.057,4.676,4.057,4.676S1005.815,269.037,1012.059,272.93z"/>
	<path fill="#DDDDDD" d="M954.313,256.881c5.774,4.678,4.682,16.37-7.647,15.902C952.751,267.323,956.654,261.244,954.313,256.881"
		/>
	<path fill="#DDDDDD" d="M911.671,266.396c3.005,4.205,13.019,0.4,13.619-3.999c1.803,2.4-0.198,8.604-5.206,9.803
		C914.074,272.998,910.869,270.601,911.671,266.396z"/>
	<path fill="#DDDDDD" d="M935.705,278.002h-96.343c0,0,7.207-2.4,10.616-4.805c-3.207,0.799-6.61-6.802-6.61-6.802
		s16.423,10.004,23.436-6.6C869.006,265.402,864,270.2,864,270.2s32.246,10.399,40.659-5.201c1.402,5.398-5.008,10.203-5.008,10.203
		L935.705,278.002z"/>
	<path fill="#DDDDDD" d="M798.017,272.244c3.255-0.277,4.995,2.687,8.453,2.687c3.456,0,32.854,0,32.854,0s-1.92,1.918-6.146,1.918
		c-4.228,0-23.441,0-32.281,0C792.061,276.85,788.984,273.01,798.017,272.244z"/>
</g>
<path fill="#EEEEEE" d="M274.449,373.99c-21.803,0-157.788,0-202.43,0c-44.64,0-24.915-13.48,0-13.48
	c3.114-12.442,22.837-15.552,35.294-13.48c6.231-13.479,20.764-10.365,25.953-5.183c1.042-5.184,34.258-31.103,57.097,1.038
	c3.421-6.884,19.122-1.867,15.574,5.183c6.225-9.329,34.254-15.55,41.524,5.187c6.614-7.217,21.8-2.075,23.872,5.18
	c5.193,2.076,28.028,2.076,38.41,6.221C320.123,368.801,309.744,373.99,274.449,373.99z"/>
<g>
	<path fill="#DDDDDD" d="M311.153,366.485c0.184,2.993-8.775,5.785-17.736,5.785c-8.963,0-68.707,0-68.707,0
		s41.074-1.864,40.702-17.899c6.16,2.05,4.854,5.594,4.854,5.594S303.684,361.827,311.153,366.485z"/>
	<path fill="#DDDDDD" d="M242.073,347.285c6.907,5.596,5.601,19.583-9.149,19.023C240.203,359.778,244.873,352.505,242.073,347.285"
		/>
	<path fill="#DDDDDD" d="M191.059,358.667c3.595,5.031,15.574,0.479,16.292-4.784c2.157,2.872-0.236,10.293-6.228,11.728
		C193.934,366.566,190.1,363.698,191.059,358.667z"/>
	<path fill="#DDDDDD" d="M219.811,372.552H104.556c0,0,8.621-2.871,12.7-5.747c-3.837,0.955-7.908-8.138-7.908-8.138
		s19.646,11.968,28.036-7.895c2.635,6.705-3.354,12.446-3.354,12.446s38.576,12.441,48.642-6.222
		c1.677,6.458-5.991,12.206-5.991,12.206L219.811,372.552z"/>
	<path fill="#DDDDDD" d="M55.094,365.664c3.894-0.332,5.976,3.214,10.112,3.214c4.135,0,39.304,0,39.304,0s-2.297,2.295-7.353,2.295
		c-5.058,0-28.044,0-38.618,0C47.968,371.174,44.289,366.58,55.094,365.664z"/>
</g>
<path fill="#EEEEEE" d="M768.559,128.615c-19.004-0.904-9.513-14.478,4.076-13.573c-0.451-5.882,10.873-17.645,21.289-10.405
	c4.53-7.691,28.988-10.859,33.065,8.144c5.437-2.263,7.248,0.452,8.607,3.62c5.413-3.006,9.965,0,10.871,3.166
	c11.777,0.904,16.519,6.964,9.271,8.32C848.489,129.244,787.582,129.52,768.559,128.615z"/>
<path fill="#DDDDDD" d="M844.905,120.552c-3.131-5.843-9.252-1.631-9.252-1.631s-0.272-0.407-2.314-3.398
	c-2.042-2.988-7.483-1.359-7.483-1.359s0.816-1.902-2.178-6.521c2.129,20.938-23.149,19.031-22.434,13.795
	c2.857,1.087,5.564-0.478,5.154-2.244c-1.633,0.543-9.253,0.68-11.158-5.165c-1.768,1.088-0.544,6.66,1.633,7.203
	c-0.52,0.762-1.66,1.523-3.138,2.237c-3.448,1.662-7.399,2.052-11.127,1.19c-3.797-0.877-7.194-2.584-8.777-5.529
	c-0.234,3.386,2.921,6.068,2.921,6.068s0,0-3.621,0c-3.62,0-13.318,0.35-14.719-1.984c0,0,1.751,4.084,8.061,4.084
	c6.307,0,13.199,0,13.199,0s0.251-0.029,0.678-0.079c8.243,0.056,57.875,0.365,60.744-0.008c3.13-0.406,14.014,0,14.421-2.309
	C855.925,122.589,848.306,121.638,844.905,120.552z"/>
<path fill="#EEEEEE" d="M371.476,433.159c-30.447-1.449-15.24-23.195,6.531-21.747c-0.723-9.423,17.42-28.269,34.108-16.67
	c7.258-12.323,46.443-17.398,52.975,13.047c8.71-3.625,11.612,0.725,13.791,5.8c8.672-4.815,15.965,0,17.417,5.072
	c18.869,1.449,26.465,11.157,14.853,13.33C499.536,434.168,401.955,434.61,371.476,433.159z"/>
<path fill="#DDDDDD" d="M493.794,420.241c-5.016-9.36-14.823-2.612-14.823-2.612s-0.437-0.652-3.708-5.445
	c-3.271-4.787-11.989-2.178-11.989-2.178s1.308-3.048-3.489-10.448c3.411,33.545-37.089,30.49-35.942,22.102
	c4.578,1.741,8.915-0.766,8.258-3.596c-2.616,0.87-14.824,1.089-17.877-8.275c-2.832,1.743-0.871,10.671,2.616,11.541
	c-0.833,1.22-2.66,2.44-5.027,3.584c-5.525,2.663-11.855,3.287-17.827,1.907c-6.083-1.404-11.526-4.14-14.063-8.858
	c-0.375,5.425,4.68,9.723,4.68,9.723s0,0-5.801,0c-5.8,0-21.338,0.56-23.582-3.18c0,0,2.805,6.543,12.914,6.543
	c10.104,0,21.147,0,21.147,0s0.402-0.047,1.086-0.127c13.207,0.09,92.723,0.586,97.32-0.012c5.015-0.651,22.452,0,23.104-3.699
	C511.449,423.505,499.242,421.982,493.794,420.241z"/>
<path fill="#EEEEEE" d="M714.11,53.952c-6.466,0-46.796,0-60.034,0s-7.39-3.999,0-3.999c0.922-3.689,6.772-4.61,10.467-3.998
	c1.847-3.997,6.158-3.074,7.697-1.536c0.308-1.538,10.16-9.225,16.932,0.308c1.016-2.043,5.673-0.554,4.62,1.537
	c1.846-2.767,10.157-4.612,12.313,1.538c1.963-2.141,6.467-0.616,7.08,1.536c1.539,0.615,8.313,0.615,11.394,1.845
	C727.657,52.413,724.579,53.952,714.11,53.952z"/>
<g>
	<path fill="#DDDDDD" d="M724.995,51.727c0.056,0.887-2.602,1.715-5.259,1.715c-2.66,0-20.379,0-20.379,0s12.182-0.552,12.072-5.308
		c1.827,0.607,1.439,1.659,1.439,1.659S722.78,50.345,724.995,51.727z"/>
	<path fill="#DDDDDD" d="M704.51,46.032c2.047,1.658,1.659,5.807-2.716,5.643C703.953,49.738,705.339,47.58,704.51,46.032"/>
	<path fill="#DDDDDD" d="M689.378,49.408c1.066,1.491,4.62,0.142,4.833-1.419c0.642,0.852-0.071,3.054-1.847,3.479
		C690.23,51.751,689.094,50.9,689.378,49.408z"/>
	<path fill="#DDDDDD" d="M697.906,53.527h-34.183c0,0,2.559-0.853,3.768-1.705c-1.137,0.283-2.346-2.414-2.346-2.414
		s5.828,3.55,8.315-2.34c0.781,1.987-0.996,3.689-0.996,3.689s11.443,3.69,14.428-1.844c0.497,1.916-1.776,3.62-1.776,3.62
		L697.906,53.527z"/>
	<path fill="#DDDDDD" d="M649.055,51.484c1.155-0.1,1.773,0.953,2.999,0.953c1.228,0,11.658,0,11.658,0s-0.682,0.681-2.182,0.681
		s-8.317,0-11.453,0S645.851,51.755,649.055,51.484z"/>
</g>
</svg>
