<?xml version="1.0" encoding="utf-8"?>
<!-- Generator: Adobe Illustrator 16.0.0, SVG Export Plug-In . SVG Version: 6.00 Build 0)  -->
<!DOCTYPE svg PUBLIC "-//W3C//DTD SVG 1.1//EN" "http://www.w3.org/Graphics/SVG/1.1/DTD/svg11.dtd">
<svg version="1.1" id="圖層_1" xmlns="http://www.w3.org/2000/svg" xmlns:xlink="http://www.w3.org/1999/xlink" x="0px" y="0px"
	 width="1200px" height="166.404px" viewBox="0 0 1200 166.404" enable-background="new 0 0 1200 166.404" xml:space="preserve">
<g id="圖層_2">
	<path opacity="0.2" fill="#58E0E5" enable-background="new    " d="M-3.125,26.665c0,0,57.361-21.175,138.406,2.445
		c81.044,23.621,199.996,41.129,273.776,10.626c73.78-30.503,181.838-29.69,243.749-13.598
		c61.91,16.092,104.068,31.619,171.827,9.606c67.756-22.014,136.466-36.904,207.51-6.96c71.046,29.945,138.181,14.785,169.355-2.12
		c0,34.095,0.001,54.992,0.001,54.992s-72.269-27.885-158.106,4.631c-85.839,32.518-164.376-0.44-184.581-1.796
		c-20.205-1.354-214.116-28.271-288.363,8.197c-59.265,29.11-219.897,5.564-245.146,2.943
		c-18.024-1.87-107.747-17.368-190.021-1.622C80.501,104.496-3.125,81.658-3.125,81.658V26.665z"/>
	<path opacity="0.2" fill="#58E0E5" enable-background="new    " d="M1201.499,126.523c0,0-102.393,28.751-225.274-5.16
		C894.846,98.906,842.12,87.545,758.801,112.5c-76.498,22.912-151.32,36.323-213.231,20.23
		c-61.91-16.094-111.048-29.41-178.805-7.398c-67.757,22.015-124.526,17.57-200.533,4.751
		c-76.06-12.828-138.181-20.466-169.357-3.56c0-34.094,0.001-66.726,0.001-66.726s46.512,17.071,141.042,23.274
		c91.051-11.935,164.92-10.731,184.709-6.448c56.55,12.24,207.893,13.528,286.098-13.513c73.94-25.566,231.738,1.367,256.986,3.988
		c18.024,1.871,114.65,25.862,193.14-3.319c51.852-19.279,142.65-3.982,142.65-3.982L1201.499,126.523z"/>
</g>
<g id="_andscape">
	<path fill="#D3E0EA" d="M116.18,129.79c-21.736,0.681-12.643-16.191,11.632-15.687c-4.552-9.108,7.08-18.217,15.678-15.182
		c-4.046-12.649,33.884-32.893,51.584-3.035c12.643-6.579,24.275,13.155,13.655,24.794c5.563,0,13.654,7.591,2.023,9.107
		C196.086,131.308,132.363,129.283,116.18,129.79z"/>
	<g>
		<path fill="#1687A7" d="M182.827,110.712c5.533,0.122,8.73-3.32,10.33-6.767c1.598-3.445,0.492-9.351-1.845-11.319
			C192.418,96.686,190.696,108.251,182.827,110.712z"/>
		<path fill="#1687A7" d="M207.132,121.414c2.771-3.99,6.317-13.307,3.214-17.963c-0.075,0.973-1.158,9.202-7.322,13.851
			c-1.833,0.84-4.003,1.057-6.255-0.019c0,0,0.655,1.313,2.126,2.217c-2.411,0.841-5.32,1.198-8.83,0.808
			c0.222,1.439,4.988,2.771,5.431,2.771c-0.393,0-29.511,0-32.321,0c-2.851,0-8.196-5.39-9.087-6.638
			c-0.891,0.535-0.178,4.457,2.138,5.884c2.316,1.426-14.076,1.426-20.49-2.495c0.891,3.03,2.672,5.349,5.345,5.349
			c0,0-31.358-0.18-33.497-0.534c-2.138-0.356,0.142,1.531,0.142,1.531c2.101,1.841,3.415,2.104,7.092,2.104
			c3.677,0,89.046,0,94.3,0S217.328,123.522,207.132,121.414z"/>
	</g>
	<path fill="#D3E0EA" d="M863.564,54.528c-11.282,0.353-6.563-8.405,6.037-8.145c-2.362-4.728,3.677-9.454,8.14-7.88
		c-2.104-6.564,17.588-17.072,26.776-1.574c6.563-3.415,12.601,6.827,7.088,12.868c2.888,0,7.088,3.94,1.05,4.729
		C905.042,55.316,871.965,54.265,863.564,54.528z"/>
	<g>
		<path fill="#1687A7" d="M898.159,44.624c2.873,0.063,4.532-1.725,5.362-3.513c0.827-1.788,0.255-4.854-0.959-5.876
			C903.138,37.344,902.245,43.347,898.159,44.624z"/>
		<path fill="#1687A7" d="M910.776,50.18c1.438-2.072,3.277-6.907,1.668-9.325c-0.039,0.505-0.603,4.775-3.802,7.188
			c-0.95,0.438-2.078,0.549-3.246-0.009c0,0,0.341,0.681,1.104,1.151c-1.252,0.436-2.762,0.621-4.584,0.418
			c0.115,0.748,2.589,1.438,2.819,1.438c-0.204,0-15.319,0-16.778,0c-1.479,0-4.254-2.797-4.717-3.443
			c-0.461,0.276-0.092,2.313,1.109,3.055c1.201,0.74-7.307,0.74-10.637-1.296c0.463,1.573,1.387,2.773,2.774,2.773
			c0,0-16.278-0.092-17.389-0.275c-1.108-0.187,0.073,0.796,0.073,0.796c1.09,0.955,1.771,1.092,3.684,1.092
			c1.906,0,46.222,0,48.947,0C914.534,53.742,916.069,51.274,910.776,50.18z"/>
	</g>
	<path fill="#D3E0EA" d="M511.563,84.246c-16.725,0.522-9.728-12.46,8.951-12.068c-3.502-7.011,5.448-14.02,12.063-11.683
		c-3.114-9.733,26.071-25.309,39.692-2.336c9.729-5.062,18.679,10.123,10.507,19.078c4.278,0,10.506,5.841,1.557,7.009
		C573.047,85.414,524.015,83.857,511.563,84.246z"/>
	<g>
		<path fill="#1687A7" d="M562.844,69.566c4.258,0.095,6.719-2.556,7.948-5.207s0.379-7.195-1.418-8.71
			C570.224,58.774,568.9,67.674,562.844,69.566z"/>
		<path fill="#1687A7" d="M581.546,77.802c2.132-3.071,4.86-10.239,2.474-13.822c-0.059,0.748-0.892,7.08-5.635,10.656
			c-1.41,0.646-3.08,0.813-4.813-0.015c0,0,0.504,1.009,1.636,1.706c-1.854,0.646-4.093,0.922-6.794,0.62
			c0.17,1.109,3.837,2.133,4.179,2.133c-0.302,0-22.707,0-24.87,0c-2.191,0-6.306-4.146-6.99-5.105
			c-0.687,0.412-0.139,3.43,1.646,4.526c1.782,1.098-10.831,1.098-15.766-1.921c0.686,2.332,2.056,4.114,4.11,4.114
			c0,0-24.129-0.137-25.772-0.411c-1.646-0.272,0.108,1.18,0.108,1.18c1.616,1.415,2.627,1.617,5.457,1.617
			c2.829,0,68.519,0,72.562,0C587.118,83.082,589.393,79.424,581.546,77.802z"/>
	</g>
	<path fill="#D3E0EA" d="M1139.382,119.299c-9.595,0.302-5.581-7.146,5.136-6.925c-2.01-4.021,3.125-8.042,6.922-6.7
		c-1.785-5.586,14.957-14.521,22.771-1.342c5.582-2.902,10.716,5.81,6.027,10.945c2.456,0,6.026,3.352,0.894,4.021
		C1174.657,119.969,1146.526,119.075,1139.382,119.299z"/>
	<g>
		<path fill="#1687A7" d="M1168.803,110.876c2.443,0.057,3.855-1.466,4.563-2.985c0.706-1.521,0.218-4.128-0.814-4.996
			C1173.038,104.685,1172.278,109.79,1168.803,110.876z"/>
		<path fill="#1687A7" d="M1179.533,115.601c1.223-1.763,2.788-5.874,1.419-7.93c-0.033,0.43-0.511,4.063-3.232,6.112
			c-0.81,0.37-1.768,0.466-2.761-0.008c0,0,0.289,0.579,0.938,0.979c-1.063,0.371-2.348,0.528-3.896,0.355
			c0.098,0.636,2.202,1.225,2.396,1.225c-0.173,0-13.025,0-14.269,0c-1.259,0-3.618-2.38-4.012-2.932
			c-0.395,0.236-0.078,1.968,0.942,2.599c1.022,0.63-6.213,0.63-9.045-1.103c0.395,1.338,1.182,2.359,2.359,2.359
			c0,0-13.846-0.077-14.787-0.235c-0.943-0.156,0.063,0.678,0.063,0.678c0.929,0.813,1.51,0.929,3.133,0.929
			c1.621,0,39.31,0,41.629,0C1182.729,118.632,1184.034,116.532,1179.533,115.601z"/>
	</g>
	<path fill="#D3E0EA" d="M45.041,65.032c-15.509-0.738-7.764-11.816,3.327-11.078c-0.37-4.8,8.873-14.398,17.375-8.493
		c3.697-6.275,23.66-8.86,26.987,6.647c4.437-1.847,5.916,0.369,7.024,2.954c4.419-2.453,8.133,0,8.873,2.584
		c9.612,0.736,13.482,5.684,7.567,6.792C110.278,65.546,60.567,65.77,45.041,65.032z"/>
	<path fill="#1687A7" d="M107.352,58.45c-2.554-4.769-7.551-1.331-7.551-1.331s-0.222-0.333-1.888-2.771
		c-1.666-2.44-6.108-1.109-6.108-1.109s0.667-1.553-1.776-5.324c1.737,17.089-18.894,15.533-18.31,11.26
		c2.332,0.889,4.54-0.39,4.207-1.832c-1.333,0.443-7.552,0.556-9.106-4.215c-1.444,0.89-0.444,5.437,1.333,5.879
		c-0.425,0.623-1.355,1.244-2.562,1.826c-2.813,1.356-6.039,1.675-9.082,0.973c-3.098-0.716-5.871-2.107-7.163-4.513
		c-0.19,2.763,2.384,4.952,2.384,4.952s0,0-2.956,0s-10.87,0.286-12.013-1.619c0,0,1.43,3.333,6.579,3.333
		c5.148,0,10.773,0,10.773,0s0.205-0.022,0.553-0.063c6.728,0.045,47.236,0.298,49.578-0.006c2.554-0.333,11.438,0,11.771-1.888
		C116.347,60.115,110.128,59.338,107.352,58.45z"/>
	<path fill="#D3E0EA" d="M397.196,46.941c-10.797-0.515-5.405-8.228,2.316-7.712c-0.257-3.342,6.177-10.025,12.096-5.912
		c2.573-4.37,16.471-6.17,18.787,4.627c3.09-1.286,4.118,0.257,4.892,2.057c3.077-1.707,5.662,0,6.177,1.799
		c6.692,0.516,9.386,3.957,5.27,4.729C442.611,47.299,408.004,47.455,397.196,46.941z"/>
	<path fill="#1687A7" d="M440.574,42.36c-1.778-3.32-5.257-0.927-5.257-0.927s-0.155-0.231-1.314-1.933
		c-1.16-1.696-4.252-0.771-4.252-0.771s0.464-1.081-1.237-3.706c1.209,11.896-13.153,10.813-12.747,7.838
		c1.624,0.618,3.161-0.271,2.929-1.274c-0.928,0.311-5.257,0.387-6.34-2.935c-1.005,0.618-0.309,3.783,0.928,4.093
		c-0.295,0.435-0.943,0.866-1.783,1.271c-1.958,0.943-4.204,1.167-6.322,0.677c-2.157-0.499-4.087-1.468-4.986-3.142
		C400.06,43.475,401.852,45,401.852,45s0,0-2.058,0s-7.567,0.199-8.363-1.127c0,0,0.995,2.321,4.58,2.321c3.584,0,7.5,0,7.5,0
		s0.143-0.017,0.385-0.044c4.684,0.031,32.884,0.207,34.514-0.005c1.777-0.232,7.962,0,8.192-1.313
		C446.836,43.518,442.507,42.978,440.574,42.36z"/>
	<path fill="#D3E0EA" d="M976,89.194c-17.175-0.816-8.599-13.086,3.683-12.267c-0.406-5.316,9.825-15.947,19.242-9.404
		c4.092-6.952,26.2-9.816,29.885,7.359c4.912-2.047,6.551,0.408,7.776,3.271c4.895-2.715,9.007,0,9.827,2.863
		c10.644,0.815,14.928,6.294,8.379,7.52C1048.241,89.762,993.192,90.011,976,89.194z"/>
	<path fill="#1687A7" d="M1045.001,81.906c-2.829-5.28-8.362-1.473-8.362-1.473s-0.245-0.368-2.091-3.073
		c-1.846-2.7-6.764-1.229-6.764-1.229s0.737-1.72-1.968-5.896c1.925,18.924-20.925,17.201-20.275,12.469
		c2.583,0.982,5.027-0.432,4.658-2.027c-1.478,0.49-8.363,0.613-10.085-4.668c-1.6,0.981-0.49,6.018,1.477,6.51
		c-0.47,0.689-1.501,1.378-2.837,2.021c-3.116,1.504-6.686,1.856-10.057,1.077c-3.432-0.792-6.504-2.333-7.934-4.996
		c-0.211,3.061,2.641,5.483,2.641,5.483s0,0-3.272,0c-3.271,0-12.036,0.316-13.304-1.792c0,0,1.585,3.69,7.286,3.69
		c5.7,0,11.93,0,11.93,0s0.228-0.025,0.612-0.071c7.449,0.05,52.308,0.33,54.898-0.006c2.829-0.37,12.667,0,13.036-2.09
		C1054.961,83.749,1048.075,82.89,1045.001,81.906z"/>
	<path fill="#D3E0EA" d="M252.471,95.635c-13.354,0-8.218-9.263,2.396-8.232c-6.163-14.75,6.163-26.755,18.489-22.296
		c-3.082-4.802,5.82-17.151,14.723-12.351c0.685-13.72,39.375-29.154,49.304,7.892c11.983-5.488,17.461,7.889,14.38,12.69
		c8.218,0.344,7.19,6.859,5.821,9.262c0,0,7.875-1.372,12.326,2.399c4.451,3.773,1.369,10.635-7.19,10.635
		C354.161,95.635,252.471,95.635,252.471,95.635z"/>
	<path fill="#1687A7" d="M248.25,92.848c2.398,1.5,3.356,1.121,10.442,1.121s93.237,0,101.815,0c8.577,0,10.251-4.78,9.191-7.208
		c-1.06-2.43-10.148-3.035-14.843-2.731c2.078-2.082,5.15-9.256-4.695-10.167c2.727-2.579,0.909-8.952-0.908-10.167
		c0,0-1.364,15.174-17.873,10.774c2.121,5.613,8.179,5.766,8.179,5.766s-3.181,5.614-10.602,3.793
		c-0.455,1.669,2.878,3.49,2.878,3.49s-37.714,0-42.41,0c-4.696,0-9.694-4.249-9.694-4.249s1.06,4.097,2.575,5.007
		c1.515,0.911-3.483,3.188-10.753,3.188c-7.27,0-20.75,0-23.174,0C245.953,91.466,248.25,92.848,248.25,92.848z"/>
	<path fill="#D3E0EA" d="M1104.145,48.532c-6.113,0-3.765-4.241,1.101-3.77c-2.824-6.756,2.819-12.253,8.465-10.21
		c-1.41-2.199,2.666-7.854,6.743-5.655c0.313-6.283,18.031-13.354,22.578,3.613c5.486-2.515,7.997,3.611,6.585,5.812
		c3.764,0.157,3.294,3.142,2.667,4.242c0,0,3.604-0.629,5.645,1.099c2.038,1.729,0.627,4.87-3.294,4.87
		C1150.713,48.532,1104.145,48.532,1104.145,48.532z"/>
	<path fill="#1687A7" d="M1102.212,47.256c1.099,0.688,1.537,0.516,4.781,0.516s42.697,0,46.626,0s4.693-2.189,4.209-3.301
		c-0.485-1.111-4.647-1.392-6.798-1.252c0.952-0.952,2.356-4.238-2.148-4.655c1.248-1.183,0.415-4.101-0.418-4.655
		c0,0-0.624,6.949-8.184,4.934c0.971,2.571,3.745,2.643,3.745,2.643s-1.457,2.569-4.855,1.736c-0.208,0.765,1.317,1.599,1.317,1.599
		s-17.271,0-19.42,0c-2.151,0-4.439-1.946-4.439-1.946s0.484,1.876,1.179,2.293c0.693,0.417-1.595,1.459-4.925,1.459
		c-3.329,0-9.502,0-10.609,0C1101.16,46.623,1102.212,47.256,1102.212,47.256z"/>
	<path fill="#D3E0EA" d="M21.522,154.443c-6.297,0-3.875-4.367,1.13-3.882c-2.906-6.956,2.906-12.616,8.719-10.515
		c-1.453-2.266,2.744-8.089,6.942-5.822c0.323-6.471,18.567-13.748,23.249,3.721c5.651-2.588,8.234,3.72,6.781,5.984
		c3.875,0.16,3.391,3.232,2.745,4.366c0,0,3.714-0.646,5.813,1.133c2.099,1.777,0.646,5.015-3.391,5.015
		C69.473,154.443,21.522,154.443,21.522,154.443z"/>
	<path fill="#1687A7" d="M19.532,153.129c1.131,0.706,1.583,0.527,4.924,0.527s43.965,0,48.01,0c4.044,0,4.834-2.254,4.334-3.397
		c-0.5-1.146-4.785-1.432-6.999-1.287c0.98-0.981,2.428-4.364-2.214-4.794c1.286-1.219,0.429-4.224-0.428-4.795
		c0,0-0.643,7.154-8.428,5.08c1,2.646,3.856,2.72,3.856,2.72s-1.5,2.646-4.999,1.789c-0.214,0.786,1.357,1.646,1.357,1.646
		s-17.784,0-19.998,0c-2.214,0-4.571-2.003-4.571-2.003s0.5,1.933,1.214,2.361c0.714,0.429-1.643,1.502-5.071,1.502
		s-9.785,0-10.928,0C18.448,152.476,19.532,153.129,19.532,153.129z"/>
	<path fill="#D3E0EA" d="M599.288,149.36c-13.982,0-8.604-9.696,2.509-8.619c-6.453-15.443,6.453-28.015,19.36-23.346
		c-3.229-5.028,6.094-17.958,15.415-12.931c0.717-14.365,41.228-30.527,51.624,8.262c12.549-5.746,18.284,8.26,15.059,13.288
		c8.604,0.358,7.527,7.185,6.094,9.697c0,0,8.246-1.438,12.906,2.514c4.661,3.951,1.435,11.135-7.528,11.135
		S599.288,149.36,599.288,149.36z"/>
	<path fill="#1687A7" d="M594.868,146.443c2.512,1.569,3.515,1.174,10.934,1.174c7.42,0,97.625,0,106.607,0
		c8.979,0,10.731-5.007,9.624-7.549c-1.109-2.542-10.625-3.177-15.541-2.858c2.176-2.181,5.392-9.689-4.917-10.646
		c2.854-2.701,0.951-9.374-0.951-10.646c0,0-1.428,15.89-18.714,11.28c2.22,5.879,8.563,6.038,8.563,6.038
		s-3.328,5.877-11.101,3.972c-0.478,1.747,3.014,3.654,3.014,3.654s-39.489,0-44.405,0s-10.148-4.449-10.148-4.449
		s1.107,4.29,2.696,5.242c1.586,0.954-3.647,3.338-11.263,3.338c-7.61,0-21.727,0-24.265,0
		C592.464,144.994,594.868,146.443,594.868,146.443z"/>
	<path fill="#D3E0EA" d="M174.635,38.566c-4.716,0-34.133,0-43.789,0c-9.656,0-5.39-2.916,0-2.916
		c0.673-2.691,4.94-3.364,7.635-2.916c1.348-2.916,4.491-2.242,5.614-1.121c0.225-1.121,7.41-6.728,12.351,0.225
		c0.74-1.488,4.137-0.402,3.369,1.121c1.347-2.018,7.41-3.362,8.982,1.122c1.431-1.561,4.716-0.449,5.165,1.121
		c1.123,0.449,6.063,0.449,8.309,1.346C184.516,37.445,182.271,38.566,174.635,38.566z"/>
	<g>
		<path fill="#1687A7" d="M182.575,36.944c0.04,0.646-1.898,1.25-3.837,1.25s-14.863,0-14.863,0s8.885-0.403,8.805-3.872
			c1.333,0.444,1.05,1.21,1.05,1.21S180.959,35.936,182.575,36.944z"/>
		<path fill="#1687A7" d="M167.632,32.79c1.494,1.21,1.211,4.235-1.979,4.114C167.228,35.492,168.237,33.919,167.632,32.79"/>
		<path fill="#1687A7" d="M156.596,35.253c0.778,1.087,3.37,0.104,3.525-1.036c0.467,0.622-0.052,2.228-1.348,2.537
			C157.218,36.961,156.389,36.34,156.596,35.253z"/>
		<path fill="#1687A7" d="M162.816,38.255h-24.932c0,0,1.866-0.62,2.747-1.241c-0.83,0.206-1.71-1.762-1.71-1.762
			s4.25,2.588,6.064-1.708c0.57,1.449-0.726,2.692-0.726,2.692s8.345,2.691,10.522-1.346c0.363,1.396-1.296,2.64-1.296,2.64
			L162.816,38.255z"/>
		<path fill="#1687A7" d="M127.185,36.765c0.842-0.071,1.293,0.693,2.188,0.693s8.502,0,8.502,0s-0.497,0.497-1.591,0.497
			c-1.094,0-6.066,0-8.354,0C125.643,37.957,124.848,36.964,127.185,36.765z"/>
	</g>
	<path fill="#D3E0EA" d="M480.366,143.692c-11.491,0-83.171,0-106.7,0s-13.133-7.104,0-7.104c1.641-6.559,12.037-8.197,18.604-7.104
		c3.284-7.104,10.944-5.464,13.68-2.73c0.547-2.731,18.057-16.396,30.095,0.547c1.804-3.631,10.08-0.983,8.208,2.731
		c3.282-4.918,18.056-8.197,21.887,2.732c3.487-3.806,11.491-1.096,12.584,2.729c2.736,1.096,14.773,1.096,20.247,3.279
		C504.442,140.957,498.971,143.692,480.366,143.692z"/>
	<g>
		<path fill="#1687A7" d="M499.713,139.737c0.098,1.576-4.625,3.049-9.349,3.049c-4.727,0-36.216,0-36.216,0
			s21.648-0.98,21.452-9.435c3.247,1.08,2.56,2.947,2.56,2.947S495.776,137.282,499.713,139.737z"/>
		<path fill="#1687A7" d="M463.301,129.616c3.643,2.949,2.952,10.322-4.822,10.027C462.316,136.201,464.776,132.367,463.301,129.616
			"/>
		<path fill="#1687A7" d="M436.411,135.616c1.895,2.651,8.21,0.253,8.589-2.521c1.137,1.514-0.126,5.426-3.284,6.182
			C437.927,139.78,435.906,138.267,436.411,135.616z"/>
		<path fill="#1687A7" d="M451.567,142.934h-60.751c0,0,4.546-1.515,6.694-3.029c-2.021,0.504-4.168-4.289-4.168-4.289
			s10.356,6.311,14.777-4.16c1.39,3.533-1.768,6.562-1.768,6.562s20.333,6.558,25.64-3.279c0.884,3.403-3.158,6.434-3.158,6.434
			L451.567,142.934z"/>
		<path fill="#1687A7" d="M364.744,139.305c2.052-0.178,3.15,1.691,5.331,1.691c2.18,0,20.718,0,20.718,0s-1.211,1.209-3.877,1.209
			c-2.665,0-14.781,0-20.355,0C360.988,142.207,359.05,139.785,364.744,139.305z"/>
	</g>
	<path fill="#D3E0EA" d="M1036.6,149.566c-17.752,0-128.479,0-164.83,0c-36.348,0-20.287-10.977,0-10.977
		c2.535-10.131,18.597-12.663,28.739-10.978c5.073-10.975,16.905-8.439,21.132-4.219c0.849-4.223,27.896-25.327,46.491,0.845
		c2.785-5.606,15.57-1.521,12.681,4.221c5.069-7.598,27.894-12.662,33.813,4.223c5.386-5.876,17.75-1.689,19.438,4.219
		c4.229,1.689,22.821,1.689,31.275,5.064C1073.791,145.342,1065.34,149.566,1036.6,149.566z"/>
	<g>
		<path fill="#1687A7" d="M1066.486,143.455c0.148,2.438-7.146,4.71-14.441,4.71c-7.299,0-55.946,0-55.946,0
			s33.445-1.518,33.144-14.572c5.017,1.668,3.951,4.555,3.951,4.555S1060.405,139.663,1066.486,143.455z"/>
		<path fill="#1687A7" d="M1010.237,127.821c5.624,4.557,4.561,15.946-7.45,15.49
			C1008.716,137.994,1012.518,132.072,1010.237,127.821"/>
		<path fill="#1687A7" d="M968.698,137.09c2.928,4.097,12.683,0.392,13.268-3.896c1.756,2.338-0.194,8.381-5.071,9.549
			C971.039,143.522,967.918,141.185,968.698,137.09z"/>
		<path fill="#1687A7" d="M992.111,148.395h-93.85c0,0,7.021-2.338,10.342-4.681c-3.123,0.777-6.438-6.626-6.438-6.626
			s15.997,9.745,22.828-6.428c2.146,5.459-2.731,10.135-2.731,10.135s31.412,10.131,39.606-5.065
			c1.367,5.258-4.877,9.938-4.877,9.938L992.111,148.395z"/>
		<path fill="#1687A7" d="M857.987,142.788c3.171-0.271,4.866,2.616,8.233,2.616s32.006,0,32.006,0s-1.871,1.868-5.988,1.868
			c-4.118,0-22.834,0-31.445,0C852.186,147.273,849.189,143.532,857.987,142.788z"/>
	</g>
	<path fill="#D3E0EA" d="M750.352,100.658c-18.512-0.881-9.267-14.103,3.972-13.222c-0.44-5.729,10.59-17.188,20.735-10.137
		c4.413-7.491,28.238-10.577,32.211,7.934c5.295-2.204,7.061,0.439,8.385,3.525c5.271-2.927,9.706,0,10.589,3.085
		c11.472,0.881,16.09,6.783,9.03,8.104C828.212,101.272,768.881,101.54,750.352,100.658z"/>
	<path fill="#1687A7" d="M824.72,92.804c-3.049-5.692-9.012-1.589-9.012-1.589s-0.267-0.396-2.254-3.311
		c-1.989-2.912-7.29-1.324-7.29-1.324s0.795-1.854-2.121-6.354c2.073,20.396-22.55,18.539-21.854,13.438
		c2.782,1.061,5.42-0.465,5.021-2.186c-1.592,0.528-9.014,0.662-10.869-5.031c-1.723,1.06-0.53,6.487,1.59,7.017
		c-0.506,0.742-1.616,1.484-3.056,2.18c-3.359,1.619-7.208,1.999-10.84,1.16c-3.697-0.854-7.008-2.518-8.551-5.387
		c-0.228,3.298,2.847,5.91,2.847,5.91s0,0-3.527,0c-3.526,0-12.974,0.342-14.338-1.932c0,0,1.706,3.978,7.853,3.978
		c6.145,0,12.856,0,12.856,0s0.245-0.027,0.66-0.076c8.03,0.055,56.377,0.355,59.172-0.008c3.048-0.396,13.65,0,14.048-2.25
		C835.454,94.789,828.032,93.863,824.72,92.804z"/>
	<path fill="#D3E0EA" d="M710.585,35.024c-6.298,0-45.585,0-58.479,0c-12.896,0-7.197-3.896,0-3.896
		c0.898-3.594,6.598-4.49,10.195-3.895c1.801-3.895,5.998-2.994,7.498-1.496c0.3-1.498,9.896-8.986,16.493,0.3
		c0.989-1.99,5.525-0.54,4.5,1.497c1.799-2.695,9.896-4.493,11.995,1.498c1.912-2.085,6.299-0.6,6.896,1.496
		c1.5,0.6,8.1,0.6,11.1,1.798C723.78,33.525,720.782,35.024,710.585,35.024z"/>
	<g>
		<path fill="#1687A7" d="M721.188,32.856c0.056,0.864-2.533,1.671-5.123,1.671c-2.591,0-19.851,0-19.851,0
			s11.866-0.538,11.759-5.171c1.78,0.592,1.402,1.616,1.402,1.616S719.03,31.511,721.188,32.856z"/>
		<path fill="#1687A7" d="M701.232,27.309c1.994,1.614,1.615,5.655-2.646,5.496C700.691,30.919,702.04,28.817,701.232,27.309"/>
		<path fill="#1687A7" d="M686.493,30.597c1.039,1.451,4.501,0.139,4.708-1.384c0.624,0.83-0.069,2.976-1.8,3.391
			C687.324,32.88,686.217,32.052,686.493,30.597z"/>
		<path fill="#1687A7" d="M694.801,34.609h-33.298c0,0,2.492-0.83,3.67-1.66c-1.106,0.275-2.285-2.352-2.285-2.352
			s5.679,3.458,8.102-2.279c0.762,1.936-0.972,3.594-0.972,3.594s11.146,3.595,14.056-1.797c0.483,1.866-1.731,3.526-1.731,3.526
			L694.801,34.609z"/>
		<path fill="#1687A7" d="M647.214,32.62c1.125-0.098,1.729,0.928,2.922,0.928c1.195,0,11.355,0,11.355,0s-0.664,0.663-2.125,0.663
			s-8.104,0-11.156,0S644.093,32.884,647.214,32.62z"/>
	</g>
</g>
</svg>
