<?xml version="1.0" encoding="utf-8"?>
<!-- Generator: Adobe Illustrator 16.0.0, SVG Export Plug-In . SVG Version: 6.00 Build 0)  -->
<!DOCTYPE svg PUBLIC "-//W3C//DTD SVG 1.1//EN" "http://www.w3.org/Graphics/SVG/1.1/DTD/svg11.dtd">
<svg version="1.1" id="圖層_1" xmlns="http://www.w3.org/2000/svg" xmlns:xlink="http://www.w3.org/1999/xlink" x="0px" y="0px"
	 width="51px" height="50px" viewBox="0 -7 51 50" enable-background="new 0 -7 51 50" xml:space="preserve">
<path fill="#333333" d="M17.85,12.857c-0.676,0-1.325,0.271-1.803,0.753S15.3,14.746,15.3,15.428v5.142
	c0,0.684,0.269,1.338,0.747,1.818c0.478,0.482,1.127,0.754,1.803,0.754c0.676,0,1.325-0.271,1.803-0.754
	c0.478-0.48,0.747-1.136,0.747-1.818v-5.142c0-0.682-0.269-1.336-0.747-1.818S18.526,12.857,17.85,12.857z M48.45,15.429
	c0.677,0,1.325-0.271,1.803-0.753C50.73,14.193,51,13.539,51,12.857V2.571c0-0.682-0.27-1.336-0.747-1.818S49.127,0,48.45,0H2.55
	C1.874,0,1.225,0.271,0.747,0.753S0,1.89,0,2.571v10.286c0,0.682,0.269,1.336,0.747,1.818s1.126,0.753,1.803,0.753
	c0.677,0,1.325,0.271,1.803,0.753C4.832,16.664,5.1,17.318,5.1,18c0,0.682-0.269,1.336-0.747,1.818
	C3.875,20.3,3.226,20.57,2.55,20.57c-0.676,0-1.325,0.271-1.803,0.754S0,22.461,0,23.143V33.43c0,0.682,0.269,1.336,0.747,1.816
	C1.225,35.729,1.874,36,2.55,36h45.9c0.677,0,1.325-0.271,1.803-0.754C50.73,34.766,51,34.111,51,33.43V23.143
	c0-0.682-0.27-1.336-0.747-1.817s-1.126-0.753-1.803-0.753s-1.325-0.271-1.804-0.754C46.169,19.336,45.9,18.682,45.9,18
	c0-0.682,0.269-1.336,0.746-1.818C47.125,15.7,47.773,15.429,48.45,15.429z M45.9,10.749c-1.478,0.541-2.754,1.526-3.654,2.824
	c-0.902,1.297-1.387,2.843-1.387,4.428c0,1.584,0.483,3.131,1.387,4.429c0.9,1.297,2.178,2.282,3.654,2.823v5.604H20.4
	c0-0.682-0.269-1.336-0.747-1.817c-0.479-0.481-1.127-0.754-1.803-0.754c-0.676,0-1.325,0.271-1.803,0.754S15.3,30.176,15.3,30.857
	H5.1v-5.605c1.477-0.541,2.753-1.527,3.654-2.824C9.656,21.131,10.14,19.584,10.14,18s-0.484-3.13-1.386-4.428
	c-0.901-1.297-2.178-2.283-3.654-2.824V5.143h10.2c0,0.682,0.269,1.336,0.747,1.818s1.127,0.753,1.803,0.753
	c0.676,0,1.325-0.271,1.803-0.753S20.4,5.825,20.4,5.143h25.5V10.749z"/>
</svg>
