<?xml version="1.0" encoding="utf-8"?>
<!-- Generator: Adobe Illustrator 16.0.0, SVG Export Plug-In . SVG Version: 6.00 Build 0)  -->
<!DOCTYPE svg PUBLIC "-//W3C//DTD SVG 1.1//EN" "http://www.w3.org/Graphics/SVG/1.1/DTD/svg11.dtd">
<svg version="1.1" id="圖層_1" xmlns="http://www.w3.org/2000/svg" xmlns:xlink="http://www.w3.org/1999/xlink" x="0px" y="0px"
	 width="213.085px" height="213.543px" viewBox="0 0 213.085 213.543" enable-background="new 0 0 213.085 213.543"
	 xml:space="preserve">
<g id="圖層_2" display="none">
	
		<linearGradient id="SVGID_1_" gradientUnits="userSpaceOnUse" x1="-623.5122" y1="496.5493" x2="-306.9043" y2="503.9408" gradientTransform="matrix(1 0 0 1 1078.0195 80.8008)">
		<stop  offset="0" style="stop-color:#20565B"/>
		<stop  offset="0.4868" style="stop-color:#276678"/>
		<stop  offset="1" style="stop-color:#20565B"/>
	</linearGradient>
	<polygon display="inline" fill="url(#SVGID_1_)" points="752.214,532 471.714,532 426.714,629 797.214,629 	"/>
	<g display="inline">
		<g>
			
				<radialGradient id="SVGID_2_" cx="-466.0562" cy="240.9341" r="270.2432" gradientTransform="matrix(1 0 0 1 1078.0195 80.8008)" gradientUnits="userSpaceOnUse">
				<stop  offset="0.6144" style="stop-color:#276678"/>
				<stop  offset="0.8368" style="stop-color:#276576"/>
				<stop  offset="0.9169" style="stop-color:#25616F"/>
				<stop  offset="0.9738" style="stop-color:#225B64"/>
				<stop  offset="1" style="stop-color:#20565B"/>
			</radialGradient>
			<circle fill="url(#SVGID_2_)" cx="611.964" cy="321.735" r="270.243"/>
		</g>
	</g>
	<g display="inline">
		<g>
			<g>
				
					<radialGradient id="SVGID_3_" cx="-466.0601" cy="-17.1421" r="4.2764" gradientTransform="matrix(1 0 0 1 1078.0195 80.8008)" gradientUnits="userSpaceOnUse">
					<stop  offset="0" style="stop-color:#FFFFCC"/>
					<stop  offset="1" style="stop-color:#FFFF8C"/>
				</radialGradient>
				<circle fill="url(#SVGID_3_)" cx="611.96" cy="63.659" r="4.276"/>
			</g>
		</g>
		<g>
			<g>
				
					<radialGradient id="SVGID_4_" cx="-466.0601" cy="499.6997" r="4.2759" gradientTransform="matrix(1 0 0 1 1078.0195 80.8008)" gradientUnits="userSpaceOnUse">
					<stop  offset="0" style="stop-color:#FFFFCC"/>
					<stop  offset="1" style="stop-color:#FFFF8C"/>
				</radialGradient>
				<circle fill="url(#SVGID_4_)" cx="611.96" cy="580.5" r="4.276"/>
			</g>
		</g>
		<g>
			<g>
				
					<radialGradient id="SVGID_5_" cx="-559.0342" cy="30.0098" r="4.2835" gradientTransform="matrix(0.866 -0.5 0.5 0.866 951.8586 -207.2189)" gradientUnits="userSpaceOnUse">
					<stop  offset="0" style="stop-color:#FFFFCC"/>
					<stop  offset="1" style="stop-color:#FFFF8C"/>
				</radialGradient>
				<circle fill="url(#SVGID_5_)" cx="482.75" cy="98.281" r="4.277"/>
			</g>
		</g>
		<g>
			<g>
				
					<radialGradient id="SVGID_6_" cx="-559.0293" cy="546.8423" r="4.2735" gradientTransform="matrix(0.866 -0.5 0.5 0.866 951.8586 -207.2189)" gradientUnits="userSpaceOnUse">
					<stop  offset="0" style="stop-color:#FFFFCC"/>
					<stop  offset="1" style="stop-color:#FFFF8C"/>
				</radialGradient>
				<circle fill="url(#SVGID_6_)" cx="741.171" cy="545.878" r="4.276"/>
			</g>
		</g>
		<g>
			<g>
				
					<radialGradient id="SVGID_7_" cx="-663.1128" cy="24.3218" r="4.2729" gradientTransform="matrix(0.5 -0.866 0.866 0.5 698.6497 -393.5359)" gradientUnits="userSpaceOnUse">
					<stop  offset="0" style="stop-color:#FFFFCC"/>
					<stop  offset="1" style="stop-color:#FFFF8C"/>
				</radialGradient>
				<circle fill="url(#SVGID_7_)" cx="388.164" cy="192.869" r="4.276"/>
			</g>
		</g>
		<g>
			<g>
				
					<radialGradient id="SVGID_8_" cx="-663.1128" cy="541.1743" r="4.2793" gradientTransform="matrix(0.5 -0.866 0.866 0.5 698.6497 -393.5359)" gradientUnits="userSpaceOnUse">
					<stop  offset="0" style="stop-color:#FFFFCC"/>
					<stop  offset="1" style="stop-color:#FFFF8C"/>
				</radialGradient>
				<circle fill="url(#SVGID_8_)" cx="835.759" cy="451.29" r="4.276"/>
			</g>
		</g>
		<g>
			<g>
				
					<radialGradient id="SVGID_9_" cx="-750.4268" cy="-32.6299" r="4.2759" gradientTransform="matrix(0 -1 1 0 386.1709 -428.3477)" gradientUnits="userSpaceOnUse">
					<stop  offset="0" style="stop-color:#FFFFCC"/>
					<stop  offset="1" style="stop-color:#FFFF8C"/>
				</radialGradient>
				<circle fill="url(#SVGID_9_)" cx="353.541" cy="322.079" r="4.276"/>
			</g>
		</g>
		<g>
			<g>
				
					<radialGradient id="SVGID_10_" cx="-750.4268" cy="484.2104" r="4.2761" gradientTransform="matrix(0 -1 1 0 386.1709 -428.3477)" gradientUnits="userSpaceOnUse">
					<stop  offset="0" style="stop-color:#FFFFCC"/>
					<stop  offset="1" style="stop-color:#FFFF8C"/>
				</radialGradient>
				<circle fill="url(#SVGID_10_)" cx="870.382" cy="322.079" r="4.276"/>
			</g>
		</g>
		<g>
			<g>
				
					<radialGradient id="SVGID_11_" cx="-797.562" cy="-125.6011" r="4.2776" gradientTransform="matrix(-0.5 -0.866 0.866 -0.5 98.1512 -302.1849)" gradientUnits="userSpaceOnUse">
					<stop  offset="0" style="stop-color:#FFFFCC"/>
					<stop  offset="1" style="stop-color:#FFFF8C"/>
				</radialGradient>
				<circle fill="url(#SVGID_11_)" cx="388.164" cy="451.289" r="4.276"/>
			</g>
		</g>
		<g>
			<g>
				
					<radialGradient id="SVGID_12_" cx="-797.5562" cy="391.2397" r="4.2724" gradientTransform="matrix(-0.5 -0.866 0.866 -0.5 98.1512 -302.1849)" gradientUnits="userSpaceOnUse">
					<stop  offset="0" style="stop-color:#FFFFCC"/>
					<stop  offset="1" style="stop-color:#FFFF8C"/>
				</radialGradient>
				<circle fill="url(#SVGID_12_)" cx="835.759" cy="192.868" r="4.276"/>
			</g>
		</g>
		<g>
			<g>
				
					<radialGradient id="SVGID_13_" cx="-791.8896" cy="-229.6963" r="4.2745" gradientTransform="matrix(-0.866 -0.5 0.5 -0.866 -88.1658 -48.9778)" gradientUnits="userSpaceOnUse">
					<stop  offset="0" style="stop-color:#FFFFCC"/>
					<stop  offset="1" style="stop-color:#FFFF8C"/>
				</radialGradient>
				<path fill="url(#SVGID_13_)" d="M479.048,543.739c1.18-2.046,3.795-2.746,5.842-1.563c2.045,1.18,2.746,3.796,1.564,5.842
					c-1.182,2.045-3.795,2.746-5.842,1.563C478.57,548.4,477.867,545.783,479.048,543.739z"/>
			</g>
		</g>
		<g>
			<g>
				
					<radialGradient id="SVGID_14_" cx="-791.8882" cy="287.1567" r="4.2793" gradientTransform="matrix(-0.866 -0.5 0.5 -0.866 -88.1658 -48.9778)" gradientUnits="userSpaceOnUse">
					<stop  offset="0" style="stop-color:#FFFFCC"/>
					<stop  offset="1" style="stop-color:#FFFF8C"/>
				</radialGradient>
				<circle fill="url(#SVGID_14_)" cx="741.171" cy="98.279" r="4.276"/>
			</g>
		</g>
	</g>
</g>
<g id="圖層_3" display="none">
	<g id="XMLID_1_" display="inline">
		<g>
			<path fill="#8FB9D0" d="M824.769,198.879c20.91,36.141,32.883,78.101,32.883,122.851c0,44.76-11.973,86.73-32.883,122.87
				L611.97,321.74L824.769,198.879z"/>
			<path fill="#D3E0EA" d="M824.769,198.879L611.97,321.74h-0.01V76.05C702.89,76.05,782.291,125.45,824.769,198.879z"/>
			<path fill="#D3E0EA" d="M611.97,321.74L824.769,444.6C782.283,518.02,702.89,567.42,611.96,567.42V321.74H611.97z"/>
			<path fill="#8FB9D0" d="M611.96,321.74V567.42c-90.92,0-170.32-49.4-212.801-122.82L611.96,321.74z"/>
			<path fill="#8FB9D0" d="M611.96,76.05v245.69L399.16,198.879C441.64,125.45,521.031,76.05,611.96,76.05z"/>
			<path fill="#D3E0EA" d="M399.16,198.879L611.96,321.739L399.16,444.6c-20.91-36.14-32.879-78.109-32.879-122.87
				C366.281,276.98,378.25,235.02,399.16,198.879z"/>
		</g>
	</g>
	<circle display="inline" fill="#276678" cx="611.964" cy="321.735" r="32.272"/>
	<g display="inline">
		<g>
			<g>
				<g>
					<defs>
						
							<rect id="SVGID_15_" x="504.922" y="154.404" transform="matrix(-0.866 0.5 -0.5 -0.866 1078.2391 69.6322)" width="49.738" height="49.741"/>
					</defs>
					<clipPath id="SVGID_16_">
						<use xlink:href="#SVGID_15_"  overflow="visible"/>
					</clipPath>
					<g clip-path="url(#SVGID_16_)">
						<path fill="#50A5E6" d="M546.912,175.769c-3.59,2.071-3.102,13.108-1.465,16.801c2.197,4.976,5.154,3.405,5.154,3.405
							l13.162-7.6l-6.908-11.965C556.853,176.411,549.978,173.999,546.912,175.769z"/>
						<path fill="#1C6399" d="M550.753,185.209c-0.002-4.461-1.014-8.08-2.264-8.08c-1.25,0.002-2.262,3.619-2.264,8.082
							c0,4.463,1.014,8.08,2.264,8.08C549.742,193.292,550.753,189.672,550.753,185.209z"/>
						<path fill="#E2C196" d="M519.851,156.293c1.412-0.816,3.221-0.332,4.035,1.08c0.545,0.942,8.277,12.489,8.277,12.489
							l-2.438,9.444l-10.957-18.979C517.953,158.917,518.437,157.109,519.851,156.293z"/>
						<path fill="#F3D2A2" d="M521.386,162.303c-0.758-1.314-0.354-2.969,0.904-3.695s2.893-0.248,3.648,1.066
							c0,0,4.748,6.738,7.9,10.388c2.34,1.627,4.873,4.657,5.826,6.604c0.34,0.438,10.189,2.104,10.189,2.104
							c0.918,2.364,1.549,8.925-0.059,13.051l-6.232-1.065c-3.732,1.51-7.637-0.906-8.281-2.022
							C533.224,185.163,521.386,162.303,521.386,162.303L521.386,162.303z"/>
						<path fill="#E2C196" d="M515.041,159.086c-0.373,0.168-0.707,0.41-0.98,0.715c-0.271,0.305-0.479,0.662-0.604,1.052
							s-0.17,0.801-0.125,1.207c0.041,0.407,0.168,0.8,0.375,1.155c0.539,0.934,6.908,12.475,6.908,12.475l9.051,3.655
							l-10.818-18.906C518.083,159.115,516.435,158.458,515.041,159.086L515.041,159.086z"/>
						<path fill="#50A5E6" d="M518.193,192.349c3.59-2.072,12.902,3.869,15.285,7.131c3.207,4.394,0.369,6.167,0.369,6.167
							l-13.162,7.6l-6.908-11.967C513.777,201.281,515.128,194.12,518.193,192.349z"/>
						<path fill="#1C6399" d="M532.578,202.478c0.625-1.083-2.002-3.771-5.865-6.002c-3.867-2.231-7.506-3.162-8.131-2.079
							c-0.625,1.082,2.002,3.77,5.867,6C528.312,202.627,531.951,203.559,532.578,202.478z"/>
						<path fill="#F3D2A2" d="M519.292,163.511c-0.758-1.314-2.393-1.791-3.65-1.065c-1.258,0.727-1.662,2.383-0.902,3.695
							c0,0,3.465,7.479,5.047,12.035c0.238,2.84,1.596,6.548,2.809,8.348c0.209,0.516-3.271,9.876-3.271,9.876
							c1.59,1.978,6.955,5.806,11.332,6.478l2.191-5.933c3.174-2.477,3.033-7.065,2.391-8.183
							C533.173,185.192,519.292,163.511,519.292,163.511L519.292,163.511z"/>
						<path fill="#E2C196" d="M535.195,188.634c-0.238,0.138-0.521,0.175-0.787,0.103c-0.268-0.07-0.492-0.242-0.629-0.482
							l-15.395-26.66c-0.137-0.238-0.174-0.521-0.104-0.786s0.244-0.492,0.482-0.63c0.236-0.137,0.521-0.174,0.785-0.104
							c0.264,0.072,0.49,0.245,0.629,0.483l15.395,26.661c0.137,0.237,0.174,0.521,0.104,0.786
							C535.605,188.272,535.431,188.499,535.195,188.634z"/>
					</g>
				</g>
			</g>
		</g>
	</g>
	<g display="inline">
		<path fill="#323333" d="M675.05,154.47c-0.674-0.39-1.477-0.492-2.23-0.287c-0.756,0.205-1.4,0.703-1.793,1.384l-2.965,5.131
			c-0.393,0.682-0.502,1.489-0.303,2.245c0.199,0.759,0.691,1.401,1.367,1.79c0.674,0.391,1.477,0.493,2.232,0.288
			c0.754-0.206,1.398-0.703,1.793-1.385l2.963-5.132c0.393-0.683,0.502-1.488,0.303-2.246
			C676.218,155.504,675.726,154.86,675.05,154.47z M732,190.771c0.676,0.392,1.479,0.493,2.232,0.287
			c0.756-0.206,1.398-0.704,1.793-1.384l5.926-10.266c0.393-0.681,0.502-1.488,0.303-2.244s-0.688-1.4-1.365-1.791l-73.695-42.549
			c-0.678-0.391-1.48-0.494-2.232-0.287c-0.756,0.205-1.4,0.703-1.793,1.383l-5.926,10.266c-0.396,0.682-0.504,1.488-0.305,2.245
			c0.197,0.757,0.689,1.401,1.365,1.791c0.674,0.39,1.166,1.034,1.365,1.791s0.09,1.563-0.303,2.243
			c-0.395,0.682-1.037,1.18-1.793,1.386c-0.754,0.206-1.561,0.103-2.232-0.288c-0.674-0.391-1.479-0.494-2.23-0.287
			c-0.758,0.206-1.402,0.704-1.793,1.385l-5.93,10.266c-0.393,0.681-0.502,1.488-0.301,2.244c0.197,0.757,0.689,1.399,1.363,1.791
			l73.697,42.549c0.676,0.39,1.479,0.492,2.232,0.285c0.754-0.205,1.4-0.701,1.793-1.383l5.926-10.266
			c0.395-0.68,0.502-1.486,0.305-2.245c-0.199-0.756-0.689-1.399-1.365-1.791c-0.676-0.39-1.168-1.032-1.367-1.79
			c-0.197-0.756-0.09-1.563,0.303-2.244c0.396-0.681,1.039-1.179,1.793-1.385C730.521,190.277,731.324,190.381,732,190.771z
			 M732.152,184.631c-1.785-0.313-3.629-0.063-5.275,0.713c-1.646,0.775-3.021,2.039-3.934,3.619
			c-0.914,1.58-1.32,3.404-1.168,5.218c0.15,1.813,0.855,3.532,2.02,4.924l-3.229,5.594l-53.34-30.795
			c0.393-0.68,0.5-1.487,0.303-2.243c-0.199-0.759-0.689-1.402-1.365-1.793c-0.674-0.391-1.479-0.492-2.234-0.285
			c-0.754,0.205-1.398,0.703-1.793,1.383l-10.178-5.877l3.229-5.592c1.783,0.311,3.629,0.062,5.273-0.715
			c1.645-0.771,3.02-2.037,3.934-3.617c0.912-1.582,1.32-3.402,1.168-5.22c-0.15-1.813-0.855-3.53-2.02-4.923l3.229-5.594
			l10.18,5.877c-0.395,0.68-0.5,1.488-0.303,2.244c0.199,0.758,0.691,1.402,1.363,1.791c0.678,0.391,1.48,0.494,2.234,0.287
			c0.756-0.205,1.398-0.703,1.793-1.383l53.34,30.795L732.152,184.631z"/>
		<g>
			<path fill="#323333" d="M676.982,171.183c0.957-0.354,1.867-0.705,2.729-1.054c0.863-0.349,1.754-0.734,2.672-1.162
				s1.643-0.795,2.17-1.105c0.529-0.31,0.994-0.623,1.396-0.938c0.398-0.315,0.699-0.586,0.902-0.813
				c0.201-0.224,0.377-0.462,0.521-0.711c0.195-0.34,0.313-0.677,0.346-1.011c0.035-0.334-0.029-0.639-0.195-0.914
				s-0.396-0.499-0.689-0.669c-0.5-0.288-1.02-0.372-1.555-0.25c-0.537,0.122-0.957,0.448-1.268,0.981
				c-0.178,0.308-0.262,0.609-0.256,0.907c0.008,0.3,0.107,0.583,0.303,0.854c0.193,0.271,0.428,0.482,0.695,0.639
				c0.166,0.098,0.42,0.196,0.764,0.3c-1.113,0.511-2.268,1.067-3.453,1.673c-0.234-0.095-0.432-0.186-0.584-0.273
				c-0.426-0.244-0.838-0.59-1.24-1.037c-0.404-0.447-0.705-0.941-0.898-1.486c-0.195-0.544-0.244-1.127-0.146-1.751
				c0.096-0.624,0.307-1.219,0.631-1.78c0.438-0.758,1.014-1.373,1.73-1.848c0.721-0.474,1.5-0.751,2.348-0.832
				c0.846-0.081,1.672-0.004,2.48,0.229c0.813,0.233,1.625,0.587,2.445,1.061c0.758,0.438,1.426,0.956,2.01,1.559
				c0.584,0.604,0.98,1.236,1.189,1.903s0.256,1.353,0.145,2.052c-0.115,0.698-0.324,1.313-0.633,1.847
				c-0.217,0.378-0.506,0.774-0.865,1.19s-0.789,0.826-1.283,1.232c-0.496,0.406-1.105,0.841-1.836,1.305
				c-0.729,0.465-1.529,0.908-2.404,1.334c-0.875,0.428-1.928,0.914-3.156,1.46L676.982,171.183z"/>
			<path fill="#323333" d="M701.48,167.495c1.031,0.596,1.848,1.336,2.441,2.219c0.598,0.883,0.848,1.947,0.746,3.191
				c-0.1,1.245-0.531,2.531-1.297,3.858c-0.602,1.038-1.338,1.985-2.211,2.839s-1.734,1.45-2.582,1.784
				c-0.848,0.336-1.77,0.442-2.768,0.319s-1.949-0.446-2.859-0.974c-0.775-0.446-1.434-0.993-1.967-1.635
				c-0.535-0.644-0.896-1.394-1.084-2.253s-0.158-1.735,0.08-2.626c0.24-0.892,0.615-1.775,1.121-2.653
				c0.615-1.063,1.361-2.025,2.238-2.888c0.877-0.86,1.76-1.468,2.645-1.818c0.889-0.351,1.809-0.458,2.764-0.319
				C699.705,166.677,700.615,166.995,701.48,167.495z M699.771,170.302c-0.303-0.175-0.623-0.239-0.965-0.197
				c-0.412,0.052-0.813,0.218-1.195,0.5c-0.471,0.336-0.926,0.771-1.367,1.3c-0.49,0.581-0.957,1.26-1.404,2.034
				c-0.393,0.681-0.654,1.279-0.783,1.798c-0.129,0.521-0.133,0.979-0.014,1.37c0.119,0.394,0.352,0.69,0.697,0.892
				c0.189,0.109,0.402,0.178,0.635,0.198c0.229,0.022,0.52-0.032,0.865-0.167c0.346-0.133,0.729-0.389,1.154-0.769
				c0.424-0.38,0.816-0.804,1.184-1.271c0.365-0.468,0.697-0.966,1.002-1.489c0.629-1.09,0.947-1.987,0.953-2.693
				S700.283,170.598,699.771,170.302z"/>
			<path fill="#323333" d="M711.531,173.424c0.641,0.371,1.131,0.846,1.471,1.427s0.473,1.246,0.4,1.994
				c-0.074,0.748-0.352,1.534-0.826,2.362c-0.52,0.896-1.143,1.623-1.867,2.179c-0.725,0.555-1.467,0.836-2.225,0.843
				c-0.756,0.007-1.492-0.195-2.211-0.609c-0.5-0.289-0.92-0.645-1.258-1.063c-0.338-0.422-0.553-0.896-0.641-1.421
				c-0.09-0.526-0.057-1.073,0.102-1.641c0.156-0.566,0.391-1.121,0.701-1.658c0.463-0.801,1.068-1.504,1.818-2.109
				c0.752-0.604,1.521-0.907,2.305-0.906C710.089,172.819,710.832,173.021,711.531,173.424z M710.378,175.196
				c-0.236-0.137-0.52-0.145-0.846-0.021c-0.328,0.125-0.68,0.39-1.051,0.798c-0.373,0.409-0.691,0.844-0.959,1.306
				c-0.391,0.674-0.588,1.229-0.602,1.66c-0.01,0.436,0.135,0.738,0.438,0.912c0.385,0.222,0.852,0.117,1.398-0.313
				c0.547-0.434,1.039-1.025,1.479-1.783c0.369-0.642,0.557-1.188,0.561-1.637C710.8,175.665,710.662,175.359,710.378,175.196z
				 M704.199,186.895l5.604-3.441l8.914-5.673c0.396,0.245,0.75,0.457,1.057,0.636c0.264,0.149,0.611,0.345,1.051,0.58l-4.338,2.674
				l-7.488,4.74l-2.611,1.746c-0.385-0.236-0.717-0.438-0.998-0.603C705.205,187.45,704.81,187.23,704.199,186.895z
				 M718.765,184.281c0.637,0.365,1.123,0.814,1.463,1.347c0.346,0.531,0.496,1.174,0.465,1.928
				c-0.035,0.755-0.313,1.578-0.824,2.47c-0.35,0.604-0.77,1.159-1.258,1.668c-0.49,0.511-1.027,0.892-1.615,1.146
				c-0.588,0.257-1.174,0.341-1.76,0.256c-0.586-0.086-1.158-0.29-1.717-0.612c-0.65-0.376-1.145-0.835-1.48-1.376
				c-0.338-0.541-0.486-1.182-0.447-1.919c0.037-0.739,0.328-1.578,0.869-2.515c0.473-0.82,1.088-1.525,1.84-2.113
				c0.754-0.587,1.512-0.882,2.271-0.883C717.33,183.672,718.062,183.875,718.765,184.281z M717.634,186.077
				c-0.258-0.148-0.547-0.154-0.871-0.016c-0.322,0.141-0.658,0.398-1.006,0.779c-0.35,0.381-0.664,0.814-0.947,1.304
				c-0.215,0.373-0.363,0.681-0.453,0.92c-0.088,0.241-0.141,0.467-0.154,0.681c-0.018,0.213,0.012,0.405,0.082,0.582
				c0.068,0.174,0.191,0.31,0.363,0.408c0.115,0.066,0.24,0.104,0.371,0.111c0.135,0.007,0.299-0.031,0.498-0.117
				s0.422-0.24,0.67-0.461s0.479-0.465,0.691-0.73c0.213-0.267,0.416-0.565,0.609-0.899c0.361-0.629,0.559-1.167,0.586-1.613
				C718.101,186.577,717.955,186.261,717.634,186.077z"/>
		</g>
	</g>
	<g display="inline">
		<path fill="#003E8C" d="M787.904,296.821c0-0.777-0.314-1.525-0.867-2.076c-0.557-0.552-1.311-0.86-2.098-0.86h-5.926
			c-0.787,0-1.541,0.31-2.096,0.86c-0.557,0.551-0.867,1.299-0.867,2.076c0,0.78,0.313,1.527,0.867,2.079
			c0.555,0.55,1.309,0.861,2.096,0.861h5.926c0.787,0,1.541-0.313,2.098-0.861C787.591,298.348,787.904,297.601,787.904,296.821z
			 M784.939,364.288c0,0.78,0.313,1.527,0.867,2.078c0.557,0.553,1.313,0.86,2.098,0.86h11.852c0.785,0,1.539-0.312,2.096-0.86
			c0.557-0.55,0.867-1.298,0.867-2.078V279.19c0-0.779-0.313-1.525-0.867-2.077c-0.557-0.552-1.311-0.86-2.096-0.86h-11.852
			c-0.785,0-1.541,0.311-2.098,0.86c-0.557,0.552-0.867,1.298-0.867,2.077s-0.313,1.527-0.865,2.078
			c-0.559,0.551-1.313,0.859-2.098,0.859s-1.539-0.31-2.096-0.859c-0.557-0.551-0.867-1.299-0.867-2.078s-0.313-1.525-0.867-2.077
			c-0.557-0.552-1.311-0.86-2.096-0.86h-11.854c-0.785,0-1.539,0.311-2.096,0.86c-0.557,0.552-0.869,1.298-0.869,2.077v85.098
			c0,0.78,0.314,1.527,0.869,2.078c0.557,0.553,1.311,0.86,2.096,0.86h11.854c0.785,0,1.539-0.312,2.096-0.86
			c0.557-0.551,0.867-1.298,0.867-2.078c0-0.777,0.313-1.524,0.867-2.076c0.557-0.552,1.311-0.859,2.096-0.859
			s1.539,0.31,2.098,0.859C784.628,362.763,784.939,363.51,784.939,364.288z M790.333,361.352c-0.623-1.701-1.76-3.174-3.254-4.211
			c-1.496-1.04-3.277-1.598-5.104-1.598s-3.605,0.558-5.102,1.598c-1.496,1.037-2.631,2.51-3.256,4.211h-6.459V299.76
			c0.785,0,1.541-0.313,2.096-0.861c0.557-0.551,0.869-1.299,0.869-2.079c0-0.776-0.314-1.524-0.869-2.075
			c-0.555-0.553-1.311-0.861-2.096-0.861v-11.754h6.459c0.625,1.703,1.76,3.174,3.256,4.212c1.494,1.04,3.275,1.597,5.102,1.597
			s3.605-0.559,5.104-1.597c1.494-1.038,2.631-2.509,3.254-4.212h6.459v11.754c-0.785,0-1.539,0.31-2.094,0.861
			c-0.559,0.551-0.869,1.299-0.869,2.075c0,0.78,0.313,1.527,0.869,2.079c0.555,0.55,1.309,0.861,2.094,0.861v61.591
			L790.333,361.352L790.333,361.352z"/>
		<g>
			<path fill="#003E8C" d="M782.167,307.717c0.207-0.431,0.383-0.746,0.527-0.949s0.318-0.399,0.525-0.588
				c0.207-0.189,0.439-0.346,0.689-0.473c0.252-0.125,0.51-0.216,0.775-0.268c0.268-0.052,0.531-0.078,0.801-0.078
				c0.717,0,1.363,0.163,1.939,0.488c0.578,0.325,1.053,0.807,1.428,1.443c0.373,0.636,0.631,1.315,0.771,2.041
				s0.211,1.487,0.211,2.286c0,0.765-0.086,1.499-0.26,2.21c-0.176,0.709-0.447,1.318-0.816,1.825
				c-0.371,0.507-0.793,0.878-1.27,1.116c-0.48,0.236-1.051,0.355-1.717,0.355c-0.316,0-0.627-0.031-0.922-0.096
				c-0.297-0.063-0.566-0.161-0.814-0.294s-0.477-0.296-0.684-0.487c-0.209-0.191-0.389-0.396-0.545-0.61
				c-0.154-0.214-0.357-0.573-0.609-1.077c-0.133,0.474-0.252,0.836-0.359,1.088s-0.256,0.494-0.443,0.729
				c-0.188,0.231-0.41,0.433-0.666,0.6s-0.527,0.287-0.814,0.361c-0.289,0.072-0.594,0.109-0.912,0.109
				c-0.738,0-1.445-0.181-2.119-0.544c-0.674-0.36-1.215-0.854-1.621-1.48c-0.406-0.625-0.701-1.354-0.883-2.183
				s-0.27-1.676-0.27-2.542c0-0.829,0.08-1.626,0.242-2.393s0.438-1.449,0.816-2.048c0.381-0.602,0.83-1.036,1.348-1.312
				c0.521-0.272,1.107-0.41,1.768-0.41c0.385,0,0.758,0.051,1.121,0.148c0.361,0.1,0.705,0.252,1.025,0.455
				c0.322,0.204,0.592,0.438,0.813,0.705c0.219,0.267,0.389,0.526,0.51,0.783C781.876,306.886,782.013,307.25,782.167,307.717z
				 M780.681,311.079c0-0.666-0.168-1.186-0.506-1.56c-0.336-0.374-0.77-0.562-1.305-0.562c-0.311,0-0.6,0.082-0.865,0.25
				c-0.266,0.166-0.469,0.406-0.604,0.723c-0.139,0.313-0.207,0.656-0.207,1.024c0,0.387,0.074,0.735,0.223,1.051
				c0.146,0.313,0.369,0.563,0.66,0.75c0.293,0.185,0.627,0.275,1.006,0.275c0.502,0,0.895-0.172,1.176-0.516
				S780.681,311.694,780.681,311.079z M786.775,311.358c0-0.584-0.162-1.047-0.488-1.388c-0.326-0.34-0.727-0.511-1.199-0.511
				c-0.281,0-0.539,0.072-0.777,0.222c-0.234,0.146-0.41,0.354-0.525,0.622c-0.113,0.267-0.172,0.555-0.172,0.866
				c0,0.54,0.156,0.99,0.473,1.354c0.314,0.362,0.725,0.544,1.227,0.544c0.443,0,0.801-0.153,1.064-0.461
				C786.642,312.3,786.775,311.883,786.775,311.358z"/>
			<path fill="#003E8C" d="M789.839,326.222c0,1.189-0.234,2.267-0.699,3.225c-0.467,0.958-1.264,1.706-2.393,2.242
				s-2.459,0.805-3.99,0.805c-1.199,0-2.387-0.165-3.563-0.493c-1.178-0.329-2.123-0.776-2.838-1.344
				c-0.715-0.564-1.27-1.312-1.658-2.235c-0.395-0.927-0.59-1.913-0.59-2.966c0-0.896,0.145-1.733,0.434-2.52
				c0.289-0.785,0.758-1.473,1.41-2.065c0.65-0.592,1.422-1.006,2.314-1.242s1.844-0.355,2.857-0.355
				c1.229,0,2.436,0.165,3.617,0.494c1.186,0.33,2.148,0.79,2.896,1.382s1.303,1.336,1.66,2.231
				C789.66,324.276,789.839,325.223,789.839,326.222z M786.552,326.145c0-0.348-0.104-0.659-0.311-0.933
				c-0.252-0.333-0.596-0.598-1.031-0.788c-0.525-0.237-1.129-0.415-1.811-0.533c-0.746-0.133-1.568-0.2-2.465-0.2
				c-0.783,0-1.436,0.074-1.947,0.222c-0.516,0.148-0.912,0.372-1.193,0.672c-0.281,0.302-0.422,0.649-0.422,1.051
				c0,0.222,0.049,0.438,0.145,0.647c0.098,0.21,0.289,0.435,0.576,0.666c0.289,0.233,0.703,0.438,1.244,0.616
				s1.104,0.307,1.693,0.389c0.588,0.081,1.186,0.122,1.793,0.122c1.258,0,2.193-0.174,2.809-0.521
				C786.248,327.208,786.552,326.736,786.552,326.145z"/>
			<path fill="#003E8C" d="M789.728,337.89c0,0.739-0.166,1.402-0.5,1.987c-0.332,0.584-0.842,1.03-1.523,1.343
				c-0.688,0.312-1.504,0.466-2.459,0.466c-1.037,0-1.979-0.176-2.82-0.527c-0.844-0.352-1.457-0.853-1.842-1.504
				c-0.385-0.648-0.578-1.391-0.578-2.22c0-0.578,0.1-1.118,0.295-1.621s0.498-0.925,0.91-1.266c0.41-0.342,0.9-0.584,1.471-0.732
				c0.57-0.146,1.166-0.222,1.787-0.222c0.926,0,1.838,0.174,2.736,0.521c0.896,0.35,1.545,0.862,1.938,1.543
				C789.535,336.34,789.728,337.082,789.728,337.89z M787.619,337.778c0-0.271-0.135-0.521-0.404-0.744
				c-0.271-0.222-0.676-0.392-1.217-0.511c-0.539-0.118-1.076-0.177-1.609-0.177c-0.775,0-1.354,0.104-1.734,0.311
				c-0.385,0.207-0.572,0.485-0.572,0.833c0,0.444,0.324,0.795,0.971,1.057c0.648,0.259,1.408,0.389,2.281,0.389
				c0.74,0,1.307-0.111,1.699-0.334C787.423,338.378,787.619,338.104,787.619,337.778z M774.396,338.276l5.783,3.13l9.369,4.886
				c-0.016,0.468-0.021,0.878-0.021,1.231c0,0.303,0.008,0.701,0.021,1.197l-4.484-2.418l-7.85-4.116l-2.818-1.387
				c0.016-0.452,0.021-0.843,0.021-1.167C774.419,339.425,774.412,338.973,774.396,338.276z M783.945,349.584
				c0,0.73-0.146,1.378-0.436,1.938c-0.289,0.563-0.77,1.02-1.438,1.364c-0.672,0.347-1.521,0.521-2.551,0.521
				c-0.695,0-1.389-0.084-2.072-0.254c-0.688-0.17-1.285-0.443-1.803-0.826c-0.516-0.381-0.881-0.847-1.102-1.396
				c-0.217-0.552-0.326-1.148-0.326-1.791c0-0.754,0.15-1.411,0.449-1.973c0.301-0.563,0.779-1.014,1.438-1.35
				c0.66-0.336,1.531-0.504,2.613-0.504c0.947,0,1.863,0.18,2.75,0.537c0.885,0.358,1.52,0.867,1.9,1.524
				C783.751,348.033,783.945,348.771,783.945,349.584z M781.824,349.501c0-0.298-0.143-0.552-0.422-0.763
				c-0.283-0.211-0.676-0.371-1.182-0.48c-0.504-0.111-1.039-0.166-1.602-0.166c-0.432,0-0.771,0.021-1.023,0.064
				s-0.475,0.112-0.668,0.205c-0.191,0.093-0.346,0.213-0.461,0.361c-0.115,0.146-0.172,0.321-0.172,0.521
				c0,0.135,0.029,0.261,0.088,0.377c0.063,0.119,0.178,0.242,0.354,0.372c0.174,0.132,0.418,0.246,0.732,0.352
				c0.314,0.104,0.643,0.182,0.979,0.231c0.338,0.054,0.697,0.078,1.086,0.078c0.725,0,1.289-0.101,1.688-0.301
				C781.625,350.156,781.824,349.87,781.824,349.501z"/>
		</g>
	</g>
	<g display="inline">
		<path fill="#0F9142" d="M721.781,460.473c0.674-0.389,1.164-1.033,1.363-1.79s0.092-1.563-0.303-2.245l-2.963-5.131
			c-0.393-0.684-1.039-1.18-1.793-1.385c-0.756-0.205-1.559-0.104-2.232,0.285c-0.676,0.392-1.166,1.033-1.365,1.791
			c-0.199,0.757-0.092,1.563,0.303,2.244l2.963,5.132c0.393,0.684,1.039,1.181,1.793,1.387
			C720.302,460.967,721.105,460.863,721.781,460.473z M661.869,491.641c-0.674,0.391-1.166,1.035-1.363,1.791
			c-0.201,0.756-0.092,1.563,0.301,2.245l5.928,10.264c0.393,0.681,1.037,1.179,1.795,1.384c0.752,0.207,1.557,0.104,2.23-0.287
			l73.697-42.549c0.674-0.39,1.164-1.034,1.363-1.791c0.199-0.756,0.092-1.563-0.303-2.244l-5.926-10.264
			c-0.395-0.681-1.039-1.18-1.793-1.385c-0.756-0.206-1.559-0.104-2.232,0.287c-0.676,0.39-1.479,0.493-2.232,0.288
			c-0.756-0.206-1.4-0.704-1.793-1.387c-0.393-0.681-0.502-1.485-0.303-2.245c0.197-0.757,0.689-1.398,1.365-1.789
			s1.166-1.032,1.363-1.789c0.199-0.759,0.092-1.564-0.301-2.245l-5.928-10.267c-0.395-0.681-1.037-1.178-1.791-1.383
			c-0.756-0.206-1.561-0.104-2.234,0.286l-73.697,42.549c-0.676,0.392-1.166,1.035-1.363,1.792
			c-0.199,0.756-0.092,1.563,0.303,2.243l5.926,10.265c0.395,0.683,1.039,1.181,1.793,1.387c0.756,0.206,1.561,0.103,2.234-0.287
			c0.674-0.393,1.477-0.494,2.23-0.288c0.756,0.206,1.4,0.704,1.793,1.385c0.395,0.681,0.502,1.487,0.305,2.244
			C663.037,490.608,662.544,491.251,661.869,491.641z M667.111,494.842c1.16-1.392,1.867-3.109,2.02-4.923
			c0.152-1.814-0.254-3.638-1.168-5.22c-0.912-1.58-2.287-2.845-3.934-3.618c-1.646-0.774-3.49-1.022-5.273-0.714l-3.229-5.594
			l53.34-30.795c0.393,0.68,1.039,1.178,1.793,1.383c0.756,0.207,1.559,0.104,2.232-0.286c0.676-0.389,1.164-1.032,1.363-1.791
			c0.201-0.757,0.092-1.563-0.301-2.243l10.178-5.879l3.23,5.596c-1.162,1.391-1.869,3.109-2.021,4.924
			c-0.154,1.813,0.256,3.637,1.168,5.218s2.285,2.845,3.936,3.62c1.646,0.775,3.488,1.023,5.271,0.712l3.23,5.594l-10.182,5.877
			c-0.393-0.681-1.037-1.179-1.793-1.384s-1.559-0.103-2.23,0.287c-0.676,0.389-1.166,1.033-1.367,1.791
			c-0.197,0.756-0.09,1.564,0.303,2.244l-53.34,30.796L667.111,494.842z"/>
		<g>
			<path fill="#0F9142" d="M707.601,453.064c0.041,0.942,0.068,1.842,0.084,2.697c0.016,0.854,0.068,2.539,0.16,5.052l0.166,4.215
				c0.016,0.291,0.043,0.784,0.084,1.479c0.566-0.318,1.002-0.564,1.303-0.738c1.342-0.773,2.771-1.654,4.291-2.646
				c0.43,0.889,0.949,1.895,1.564,3.021l-10.334,5.967l-1.604-3.11l-0.252-5.743l-0.213-3.74c-0.076-1.033-0.176-2.212-0.299-3.535
				L707.601,453.064z"/>
			<path fill="#0F9142" d="M697.285,476.85c-1.031,0.596-2.078,0.932-3.143,1.007c-1.063,0.075-2.107-0.241-3.139-0.95
				c-1.029-0.709-1.926-1.728-2.691-3.055c-0.602-1.037-1.053-2.148-1.354-3.332c-0.305-1.184-0.389-2.227-0.256-3.129
				c0.133-0.9,0.502-1.753,1.105-2.555c0.605-0.805,1.363-1.469,2.273-1.992c0.773-0.447,1.574-0.742,2.396-0.885
				c0.824-0.145,1.654-0.08,2.492,0.188c0.84,0.269,1.584,0.729,2.234,1.383s1.229,1.42,1.736,2.298
				c0.613,1.064,1.074,2.191,1.383,3.382c0.307,1.189,0.391,2.259,0.252,3.2c-0.141,0.942-0.506,1.794-1.104,2.555
				C698.882,475.721,698.15,476.35,697.285,476.85z M695.71,473.965c0.301-0.176,0.52-0.419,0.652-0.735
				c0.162-0.384,0.219-0.813,0.166-1.288c-0.061-0.573-0.205-1.185-0.443-1.834c-0.258-0.713-0.611-1.458-1.059-2.231
				c-0.395-0.682-0.781-1.205-1.168-1.576c-0.387-0.372-0.777-0.604-1.18-0.698c-0.398-0.094-0.771-0.041-1.117,0.159
				c-0.191,0.109-0.355,0.261-0.49,0.45c-0.135,0.188-0.23,0.467-0.289,0.833c-0.057,0.364-0.027,0.825,0.088,1.385
				c0.117,0.557,0.287,1.108,0.512,1.66c0.223,0.55,0.486,1.089,0.789,1.612c0.631,1.092,1.248,1.813,1.857,2.173
				C694.636,474.231,695.197,474.262,695.71,473.965z"/>
			<path fill="#0F9142" d="M687.126,482.587c-0.641,0.368-1.299,0.558-1.971,0.562c-0.674,0.004-1.316-0.213-1.928-0.65
				c-0.611-0.437-1.154-1.068-1.635-1.896c-0.518-0.897-0.834-1.799-0.951-2.705c-0.117-0.907,0.01-1.688,0.381-2.349
				c0.371-0.659,0.916-1.196,1.635-1.61c0.5-0.288,1.018-0.474,1.551-0.556c0.533-0.081,1.051-0.03,1.551,0.156
				c0.502,0.186,0.957,0.485,1.371,0.905c0.412,0.42,0.775,0.898,1.086,1.438c0.463,0.802,0.77,1.679,0.916,2.631
				c0.148,0.952,0.025,1.769-0.367,2.449C688.373,481.643,687.826,482.184,687.126,482.587z M686.167,480.704
				c0.236-0.137,0.385-0.378,0.441-0.723c0.059-0.346,0.002-0.781-0.166-1.309c-0.166-0.526-0.385-1.021-0.65-1.482
				c-0.389-0.673-0.768-1.123-1.137-1.35c-0.371-0.229-0.707-0.252-1.01-0.078c-0.385,0.222-0.525,0.678-0.428,1.368
				c0.102,0.688,0.367,1.414,0.805,2.17c0.371,0.642,0.75,1.076,1.139,1.304C685.55,480.835,685.886,480.867,686.167,480.704z
				 M679.126,469.504l0.18,6.572l0.455,10.559c-0.412,0.22-0.77,0.418-1.078,0.596c-0.262,0.152-0.604,0.357-1.023,0.619
				l-0.148-5.094l-0.359-8.854l-0.209-3.136c0.398-0.213,0.738-0.401,1.021-0.564C678.142,470.098,678.529,469.865,679.126,469.504z
				 M674.105,483.426c-0.635,0.363-1.266,0.563-1.896,0.594s-1.264-0.157-1.898-0.564c-0.639-0.404-1.213-1.057-1.729-1.945
				c-0.35-0.604-0.619-1.244-0.814-1.923c-0.195-0.681-0.26-1.337-0.186-1.975c0.072-0.636,0.291-1.187,0.658-1.649
				c0.367-0.467,0.83-0.857,1.387-1.181c0.652-0.377,1.299-0.575,1.936-0.597c0.637-0.022,1.266,0.17,1.887,0.572
				c0.621,0.401,1.201,1.071,1.744,2.01c0.473,0.822,0.775,1.705,0.908,2.65s0.01,1.75-0.369,2.407
				C675.353,482.486,674.81,483.02,674.105,483.426z M673.119,481.548c0.256-0.147,0.404-0.396,0.445-0.746
				c0.041-0.352-0.016-0.771-0.172-1.265c-0.154-0.49-0.375-0.98-0.654-1.471c-0.217-0.372-0.404-0.656-0.57-0.853
				c-0.164-0.197-0.334-0.354-0.512-0.478c-0.178-0.122-0.355-0.191-0.543-0.219c-0.188-0.026-0.363,0.012-0.537,0.111
				c-0.115,0.064-0.211,0.152-0.283,0.266c-0.072,0.111-0.121,0.273-0.146,0.489s-0.006,0.483,0.063,0.811s0.164,0.646,0.287,0.964
				c0.125,0.318,0.283,0.646,0.477,0.979c0.363,0.629,0.73,1.065,1.104,1.313S672.798,481.732,673.119,481.548z"/>
		</g>
	</g>
	<g display="inline">
		<path fill="#D72517" d="M551.027,485.393c0.674,0.391,1.477,0.494,2.23,0.287c0.754-0.205,1.4-0.703,1.793-1.383l2.961-5.134
			c0.396-0.683,0.502-1.487,0.303-2.244c-0.199-0.759-0.689-1.4-1.363-1.79c-0.676-0.392-1.48-0.493-2.234-0.287
			c-0.754,0.205-1.398,0.703-1.793,1.384l-2.963,5.132c-0.393,0.681-0.5,1.489-0.301,2.245S550.351,485.003,551.027,485.393z
			 M494.078,449.093c-0.676-0.392-1.48-0.493-2.234-0.286c-0.754,0.205-1.398,0.703-1.791,1.383l-5.926,10.265
			c-0.393,0.683-0.502,1.488-0.303,2.244c0.199,0.757,0.689,1.401,1.365,1.79l73.697,42.55c0.676,0.392,1.479,0.493,2.232,0.287
			c0.756-0.205,1.398-0.703,1.793-1.384l5.926-10.264c0.393-0.684,0.5-1.488,0.301-2.245c-0.197-0.757-0.688-1.401-1.363-1.79
			c-0.676-0.391-1.168-1.034-1.365-1.791c-0.199-0.757-0.09-1.564,0.303-2.244s1.037-1.18,1.791-1.385
			c0.756-0.206,1.561-0.104,2.234,0.287c0.676,0.391,1.479,0.494,2.232,0.287c0.754-0.205,1.4-0.703,1.793-1.386l5.926-10.265
			c0.395-0.681,0.502-1.488,0.303-2.244s-0.689-1.401-1.365-1.791l-73.697-42.549c-0.676-0.391-1.479-0.492-2.23-0.286
			c-0.756,0.204-1.4,0.702-1.793,1.383l-5.928,10.267c-0.393,0.68-0.502,1.486-0.303,2.244s0.689,1.399,1.365,1.79
			c0.676,0.392,1.168,1.032,1.367,1.79c0.197,0.758,0.09,1.564-0.305,2.244c-0.393,0.683-1.035,1.181-1.791,1.387
			C495.556,449.586,494.751,449.482,494.078,449.093z M493.925,455.232c1.785,0.313,3.627,0.063,5.273-0.713
			c1.646-0.774,3.021-2.037,3.936-3.619c0.912-1.58,1.32-3.402,1.166-5.217c-0.148-1.813-0.855-3.533-2.02-4.925l3.229-5.595
			l53.34,30.797c-0.393,0.68-0.5,1.486-0.303,2.243c0.201,0.759,0.691,1.402,1.367,1.792c0.674,0.391,1.477,0.492,2.232,0.285
			c0.756-0.205,1.4-0.703,1.793-1.383l10.18,5.876l-3.23,5.594c-1.785-0.311-3.629-0.062-5.271,0.714
			c-1.648,0.773-3.023,2.038-3.938,3.619c-0.912,1.581-1.318,3.402-1.166,5.218c0.15,1.813,0.857,3.532,2.021,4.925l-3.23,5.594
			l-10.18-5.877c0.395-0.68,0.502-1.487,0.303-2.244c-0.199-0.758-0.689-1.402-1.363-1.791c-0.676-0.39-1.479-0.492-2.234-0.287
			c-0.754,0.206-1.4,0.703-1.793,1.384l-53.338-30.796L493.925,455.232z"/>
		<g>
			<path fill="#D72517" d="M539.691,474.419c-0.365-0.138-0.701-0.29-1.002-0.466c-0.736-0.425-1.314-0.949-1.734-1.576
				s-0.605-1.33-0.559-2.109c0.049-0.78,0.287-1.542,0.719-2.285c0.283-0.493,0.627-0.93,1.029-1.308
				c0.402-0.379,0.846-0.688,1.324-0.93c0.48-0.238,0.998-0.399,1.557-0.485c0.557-0.083,1.1-0.08,1.623,0.008
				c0.525,0.09,1.055,0.236,1.588,0.438c0.533,0.2,1.051,0.445,1.551,0.734c1.16,0.67,2.055,1.445,2.688,2.328
				c0.631,0.881,0.945,1.771,0.943,2.672c-0.002,0.9-0.24,1.756-0.709,2.57c-0.27,0.469-0.619,0.951-1.045,1.444
				c-0.43,0.497-1.045,1.027-1.855,1.593c-0.807,0.563-1.816,1.165-3.027,1.807c-1.215,0.643-2.387,1.191-3.521,1.646l-4.924-2.844
				c1.621-0.561,2.705-0.944,3.254-1.16c0.785-0.308,1.551-0.646,2.299-1.021c0.75-0.375,1.408-0.746,1.975-1.111
				c0.563-0.365,1.084-0.745,1.559-1.139c0.279-0.231,0.518-0.463,0.713-0.69c0.195-0.229,0.359-0.455,0.488-0.68
				c0.174-0.301,0.277-0.624,0.314-0.97c0.039-0.349-0.018-0.67-0.168-0.971c-0.148-0.302-0.395-0.549-0.732-0.743
				c-0.32-0.187-0.646-0.272-0.979-0.265c-0.334,0.008-0.637,0.11-0.912,0.309c-0.273,0.194-0.496,0.438-0.666,0.733
				c-0.301,0.521-0.332,1.005-0.094,1.459c0.236,0.454,0.543,0.788,0.914,1.003c0.117,0.066,0.297,0.15,0.547,0.252
				c-0.283,0.151-0.824,0.45-1.621,0.896L539.691,474.419z"/>
			<path fill="#D72517" d="M524.595,472.368c-1.031-0.596-1.846-1.336-2.441-2.219c-0.598-0.883-0.848-1.947-0.746-3.193
				c0.1-1.242,0.533-2.529,1.299-3.856c0.6-1.038,1.336-1.984,2.209-2.839c0.875-0.854,1.734-1.449,2.582-1.784
				s1.771-0.442,2.768-0.319c0.998,0.123,1.951,0.447,2.861,0.975c0.775,0.445,1.432,0.992,1.965,1.635
				c0.535,0.643,0.896,1.394,1.084,2.253c0.189,0.86,0.16,1.737-0.082,2.628c-0.24,0.891-0.613,1.773-1.119,2.651
				c-0.613,1.063-1.359,2.024-2.238,2.888c-0.877,0.861-1.76,1.467-2.646,1.818c-0.885,0.351-1.807,0.459-2.762,0.319
				C526.371,473.187,525.46,472.867,524.595,472.368z M526.306,469.562c0.303,0.174,0.621,0.239,0.963,0.197
				c0.414-0.054,0.814-0.218,1.199-0.5c0.467-0.337,0.922-0.771,1.365-1.303c0.49-0.579,0.957-1.259,1.406-2.032
				c0.391-0.682,0.65-1.278,0.779-1.798c0.131-0.521,0.135-0.978,0.018-1.37c-0.121-0.395-0.354-0.689-0.699-0.891
				c-0.189-0.109-0.402-0.178-0.635-0.2c-0.23-0.021-0.52,0.033-0.865,0.169c-0.346,0.133-0.729,0.39-1.154,0.769
				c-0.424,0.378-0.816,0.804-1.184,1.272c-0.365,0.469-0.699,0.965-1.002,1.488c-0.629,1.09-0.947,1.988-0.951,2.693
				C525.541,468.765,525.792,469.266,526.306,469.562z"/>
			<path fill="#D72517" d="M514.546,466.438c-0.641-0.37-1.131-0.845-1.471-1.426s-0.475-1.245-0.4-1.993s0.348-1.536,0.826-2.363
				c0.518-0.896,1.141-1.623,1.867-2.178c0.725-0.555,1.467-0.836,2.225-0.844c0.756-0.01,1.492,0.193,2.211,0.607
				c0.5,0.289,0.918,0.646,1.256,1.066c0.338,0.422,0.553,0.895,0.643,1.421s0.057,1.072-0.102,1.64
				c-0.154,0.568-0.391,1.121-0.703,1.659c-0.461,0.801-1.066,1.504-1.818,2.108c-0.75,0.604-1.52,0.907-2.303,0.905
				C515.99,467.041,515.246,466.842,514.546,466.438z M515.699,464.668c0.236,0.137,0.518,0.145,0.846,0.021
				c0.326-0.123,0.676-0.39,1.049-0.799c0.373-0.408,0.693-0.843,0.959-1.305c0.389-0.675,0.588-1.228,0.602-1.659
				c0.01-0.436-0.137-0.738-0.438-0.912c-0.385-0.222-0.85-0.116-1.396,0.313c-0.551,0.434-1.041,1.024-1.479,1.781
				c-0.371,0.643-0.557,1.188-0.561,1.637C515.277,464.198,515.416,464.505,515.699,464.668z M521.878,452.969l-5.605,3.441
				l-8.912,5.674c-0.396-0.246-0.748-0.457-1.057-0.637c-0.264-0.15-0.611-0.345-1.049-0.58l4.336-2.676l7.49-4.738l2.611-1.748
				c0.383,0.238,0.717,0.439,0.998,0.604C520.873,452.413,521.267,452.634,521.878,452.969z M507.31,455.582
				c-0.633-0.364-1.121-0.813-1.463-1.345c-0.342-0.531-0.496-1.174-0.461-1.93c0.035-0.754,0.311-1.577,0.824-2.469
				c0.348-0.604,0.768-1.16,1.258-1.668c0.49-0.51,1.029-0.893,1.615-1.146c0.588-0.254,1.174-0.341,1.76-0.255
				c0.586,0.087,1.158,0.289,1.715,0.611c0.652,0.377,1.146,0.836,1.484,1.377c0.336,0.541,0.484,1.18,0.447,1.92
				c-0.039,0.737-0.328,1.577-0.871,2.514c-0.475,0.821-1.088,1.525-1.84,2.113c-0.752,0.587-1.512,0.883-2.271,0.884
				C508.748,456.191,508.015,455.989,507.31,455.582z M508.443,453.787c0.258,0.147,0.547,0.153,0.869,0.017
				c0.324-0.141,0.66-0.399,1.01-0.781c0.348-0.38,0.664-0.814,0.943-1.303c0.217-0.373,0.365-0.681,0.455-0.92
				c0.086-0.24,0.141-0.469,0.156-0.682c0.016-0.214-0.012-0.406-0.082-0.581c-0.072-0.173-0.191-0.31-0.367-0.408
				c-0.113-0.066-0.238-0.104-0.371-0.11c-0.133-0.01-0.299,0.03-0.498,0.117c-0.197,0.086-0.422,0.236-0.668,0.46
				c-0.248,0.222-0.479,0.465-0.689,0.729c-0.215,0.268-0.418,0.566-0.611,0.9c-0.363,0.63-0.559,1.167-0.586,1.614
				C507.976,453.286,508.123,453.604,508.443,453.787z"/>
		</g>
	</g>
	<g display="inline">
		<path fill="#F0EA4D" d="M437.332,344.192c0,0.778,0.313,1.526,0.869,2.077c0.555,0.551,1.309,0.861,2.094,0.861h5.926
			c0.787,0,1.541-0.312,2.098-0.861c0.557-0.551,0.865-1.299,0.865-2.077c0-0.779-0.311-1.526-0.865-2.079
			c-0.557-0.549-1.311-0.858-2.098-0.858h-5.926c-0.785,0.001-1.539,0.312-2.094,0.86
			C437.644,342.664,437.332,343.413,437.332,344.192z M440.294,276.724c0-0.779-0.313-1.526-0.869-2.077
			c-0.555-0.551-1.309-0.859-2.094-0.859H425.48c-0.785,0-1.539,0.309-2.098,0.859c-0.555,0.55-0.867,1.297-0.867,2.077v85.099
			c0,0.779,0.314,1.527,0.867,2.076c0.559,0.553,1.313,0.861,2.098,0.861h11.852c0.787,0,1.539-0.311,2.094-0.86
			c0.559-0.55,0.869-1.298,0.869-2.077c0-0.777,0.314-1.524,0.869-2.078c0.555-0.551,1.309-0.857,2.094-0.859
			c0.787,0.002,1.541,0.311,2.096,0.859c0.559,0.552,0.867,1.301,0.867,2.078c0,0.779,0.314,1.527,0.869,2.078
			s1.313,0.859,2.094,0.86h11.855c0.785-0.001,1.539-0.312,2.092-0.86c0.557-0.551,0.871-1.299,0.871-2.078v-85.099
			c0-0.779-0.314-1.527-0.871-2.077c-0.553-0.551-1.307-0.859-2.092-0.859h-11.855c-0.783,0-1.539,0.311-2.094,0.86
			c-0.557,0.55-0.869,1.297-0.869,2.077c0,0.779-0.311,1.527-0.867,2.078c-0.555,0.55-1.309,0.859-2.096,0.859
			c-0.785,0-1.539-0.31-2.096-0.858C440.607,278.25,440.294,277.504,440.294,276.724z M434.904,279.663
			c0.623,1.7,1.758,3.174,3.252,4.211c1.496,1.039,3.275,1.598,5.102,1.599c1.826,0,3.609-0.56,5.105-1.599
			c1.492-1.037,2.631-2.511,3.254-4.211h6.459v61.592c-0.785,0.001-1.541,0.312-2.098,0.859c-0.555,0.552-0.867,1.299-0.867,2.079
			c0.002,0.777,0.313,1.525,0.867,2.076c0.557,0.552,1.313,0.861,2.098,0.861v11.753l-6.459,0.001
			c-0.623-1.702-1.76-3.175-3.254-4.212c-1.496-1.04-3.277-1.599-5.105-1.599c-1.824,0-3.604,0.559-5.102,1.6
			c-1.494,1.036-2.629,2.509-3.252,4.209l-6.461,0.002V347.13c0.785,0,1.541-0.313,2.096-0.861c0.555-0.551,0.867-1.299,0.867-2.077
			c0-0.779-0.313-1.524-0.867-2.078c-0.555-0.55-1.311-0.859-2.096-0.858v-61.593H434.904z"/>
		<g>
			<path fill="#F0EA4D" d="M450.617,335.65l-1.117,0.077c-0.361,0.021-0.691,0.046-0.986,0.072
				c-0.293,0.025-0.773,0.074-1.438,0.148c0.438-1.529,0.656-2.801,0.656-3.808c0-0.54-0.088-1.037-0.258-1.493
				c-0.17-0.455-0.412-0.805-0.725-1.049c-0.311-0.244-0.652-0.367-1.023-0.366c-0.541-0.001-0.951,0.249-1.23,0.749
				c-0.277,0.5-0.416,1.282-0.416,2.348c0,0.476,0.016,0.938,0.049,1.395s0.104,1.069,0.205,1.848l-7.17-0.57
				c-0.355-0.021-0.848-0.045-1.477-0.066c0.016-1.856,0.021-3.644,0.021-5.358c0-2.176-0.008-3.987-0.021-5.438
				c0.77,0.065,1.379,0.105,1.83,0.122l1.512,0.056l-0.059,1.477l-0.01,0.688v1.077c-0.008,0.458-0.012,1.026-0.012,1.709
				c0,0.229,0.008,0.605,0.021,1.132l2.541,0.226c-0.037-0.497-0.055-0.882-0.055-1.154c0-1.155,0.184-2.172,0.549-3.056
				c0.367-0.881,0.879-1.523,1.539-1.932c0.658-0.408,1.402-0.61,2.23-0.61c0.807,0,1.582,0.207,2.326,0.622
				c0.742,0.414,1.334,0.982,1.775,1.703c0.439,0.723,0.758,1.561,0.955,2.509c0.195,0.952,0.293,1.928,0.293,2.927
				c0,0.377-0.023,0.823-0.072,1.343c-0.049,0.519-0.102,0.955-0.16,1.31C450.835,334.64,450.744,335.096,450.617,335.65z"/>
			<path fill="#F0EA4D" d="M435.396,314.792c0-1.191,0.232-2.268,0.699-3.226c0.467-0.959,1.264-1.707,2.393-2.243
				c1.127-0.536,2.459-0.805,3.99-0.805c1.197,0,2.387,0.164,3.563,0.494c1.178,0.329,2.123,0.777,2.836,1.344
				c0.715,0.566,1.268,1.313,1.66,2.236s0.588,1.913,0.588,2.964c0,0.896-0.145,1.735-0.432,2.52
				c-0.289,0.784-0.762,1.475-1.41,2.065c-0.652,0.591-1.424,1.006-2.316,1.243c-0.893,0.235-1.844,0.354-2.857,0.354
				c-1.229,0-2.436-0.165-3.619-0.494c-1.186-0.329-2.15-0.79-2.896-1.382c-0.748-0.592-1.301-1.336-1.66-2.229
				C435.576,316.737,435.396,315.789,435.396,314.792z M438.683,314.868c0,0.35,0.104,0.658,0.313,0.934
				c0.25,0.333,0.596,0.596,1.031,0.789c0.523,0.234,1.129,0.414,1.811,0.531c0.748,0.135,1.568,0.2,2.463,0.2
				c0.785,0,1.436-0.071,1.949-0.222c0.514-0.147,0.912-0.372,1.193-0.671c0.279-0.3,0.422-0.65,0.422-1.05
				c0-0.224-0.047-0.438-0.146-0.649c-0.096-0.211-0.289-0.433-0.576-0.667c-0.289-0.232-0.701-0.438-1.242-0.616
				c-0.541-0.177-1.105-0.307-1.693-0.388c-0.588-0.082-1.188-0.122-1.793-0.122c-1.258,0-2.193,0.174-2.811,0.522
				C438.99,313.807,438.683,314.277,438.683,314.868z"/>
			<path fill="#F0EA4D" d="M435.507,303.123c0-0.738,0.168-1.4,0.5-1.985c0.334-0.584,0.842-1.032,1.525-1.343
				c0.684-0.312,1.506-0.468,2.459-0.468c1.037,0,1.977,0.178,2.818,0.528c0.846,0.353,1.459,0.853,1.844,1.503
				c0.385,0.652,0.578,1.393,0.578,2.22c0,0.578-0.1,1.117-0.295,1.621s-0.5,0.927-0.91,1.268c-0.41,0.34-0.9,0.584-1.473,0.731
				c-0.568,0.148-1.166,0.224-1.787,0.224c-0.924,0-1.838-0.176-2.734-0.521c-0.9-0.348-1.545-0.862-1.938-1.543
				C435.705,304.674,435.507,303.931,435.507,303.123z M437.617,303.235c0,0.274,0.135,0.522,0.404,0.744
				c0.271,0.222,0.678,0.393,1.217,0.511c0.541,0.119,1.078,0.179,1.607,0.179c0.777,0,1.357-0.104,1.738-0.312
				s0.572-0.485,0.572-0.833c0-0.444-0.324-0.795-0.975-1.055c-0.646-0.261-1.406-0.39-2.279-0.39c-0.74,0-1.307,0.111-1.699,0.333
				C437.812,302.636,437.617,302.908,437.617,303.235z M450.839,302.738l-5.785-3.131l-9.369-4.885
				c0.018-0.466,0.023-0.876,0.023-1.231c0-0.303-0.008-0.701-0.023-1.197l4.484,2.418l7.85,4.115l2.82,1.39
				c-0.016,0.45-0.021,0.84-0.021,1.166C450.818,301.588,450.824,302.039,450.839,302.738z M441.292,291.429
				c0-0.731,0.143-1.377,0.432-1.939c0.291-0.562,0.771-1.017,1.439-1.362c0.672-0.349,1.521-0.521,2.551-0.521
				c0.697,0.001,1.389,0.085,2.074,0.255c0.686,0.169,1.287,0.445,1.801,0.826s0.881,0.846,1.102,1.396
				c0.217,0.553,0.326,1.147,0.326,1.793c0,0.752-0.148,1.41-0.449,1.973c-0.303,0.563-0.779,1.011-1.439,1.348
				c-0.66,0.335-1.531,0.504-2.613,0.504c-0.945,0-1.863-0.179-2.748-0.537c-0.887-0.357-1.52-0.867-1.9-1.522
				C441.482,292.978,441.292,292.243,441.292,291.429z M443.412,291.512c0,0.296,0.141,0.55,0.422,0.761
				c0.283,0.21,0.676,0.371,1.18,0.481s1.039,0.168,1.604,0.168c0.43,0,0.77-0.022,1.021-0.066c0.252-0.045,0.479-0.113,0.668-0.206
				c0.193-0.092,0.35-0.212,0.461-0.36c0.115-0.147,0.172-0.321,0.172-0.521c0-0.133-0.027-0.259-0.09-0.377
				c-0.059-0.119-0.174-0.243-0.35-0.372c-0.174-0.13-0.418-0.247-0.734-0.35c-0.314-0.104-0.641-0.183-0.979-0.233
				c-0.338-0.052-0.699-0.078-1.084-0.077c-0.729-0.001-1.291,0.1-1.691,0.299C443.611,290.857,443.412,291.142,443.412,291.512z"/>
		</g>
	</g>
	
		<text transform="matrix(0.866 0.5 -0.5 0.866 670.021 121.0103)" display="inline" fill="#276678" font-family="'MicrosoftJhengHeiBold'" font-size="24">結帳九折</text>
	
		<text transform="matrix(0 1 -1 0 813.9839 275.6401)" display="inline" fill="#276678" font-family="'MicrosoftJhengHeiBold'" font-size="24">結帳八折</text>
	
		<text transform="matrix(0 -1 1 0 411.5757 367.2271)" display="inline" fill="#276678" font-family="'MicrosoftJhengHeiBold'" font-size="24">結帳五折</text>
	
		<text transform="matrix(0.866 -0.5 0.5 0.866 470.6108 172.0962)" display="inline" fill="#276678" font-family="'MicrosoftJhengHeiBold'" font-size="24">銘謝惠顧</text>
	
		<text transform="matrix(-0.866 0.5 -0.5 -0.866 755.4429 471.2134)" display="inline" fill="#276678" font-family="'MicrosoftJhengHeiBold'" font-size="24">結帳七折</text>
	
		<text transform="matrix(-0.866 -0.5 0.5 -0.866 557.4644 520.8931)" display="inline" fill="#276678" font-family="'MicrosoftJhengHeiBold'" font-size="24">結帳六折</text>
</g>
<g id="圖層_4" display="none">
	<g display="inline">
		
			<linearGradient id="SVGID_17_" gradientUnits="userSpaceOnUse" x1="-519.0981" y1="179.1489" x2="-432.6785" y2="278.6075" gradientTransform="matrix(1 0 0 1 1078.0195 80.8008)">
			<stop  offset="0" style="stop-color:#1B809E"/>
			<stop  offset="1" style="stop-color:#326380"/>
		</linearGradient>
		<path fill="url(#SVGID_17_)" d="M652.564,290.563h0.004l-0.449-0.555c-0.082-0.103-0.162-0.201-0.244-0.301l-19.609-24.215
			l-20.301-25.07l-20.299,25.07l-19.598,24.2c-0.115,0.14-0.227,0.277-0.338,0.417l-0.365,0.451h0.002
			c-6.984,8.822-11.156,19.973-11.156,32.1c0,28.583,23.172,51.756,51.756,51.756s51.756-23.173,51.756-51.756
			C663.72,310.534,659.548,299.385,652.564,290.563z"/>
		
			<linearGradient id="SVGID_18_" gradientUnits="userSpaceOnUse" x1="-501.5488" y1="276.9751" x2="-458.64" y2="204.5226" gradientTransform="matrix(1 0 0 1 1078.0195 80.8008)">
			<stop  offset="0" style="stop-color:#326380"/>
			<stop  offset="1" style="stop-color:#1890AD"/>
		</linearGradient>
		<path fill="url(#SVGID_18_)" d="M612.074,240.556l-0.109-0.134l-20.299,25.07l-19.6,24.2c-0.113,0.14-0.225,0.278-0.336,0.417
			l-0.365,0.451h0.002c-6.984,8.822-11.156,19.974-11.156,32.1c0,28.583,23.172,51.756,51.756,51.756c0.037,0,0.072,0,0.109,0
			L612.074,240.556L612.074,240.556z"/>
		<circle fill="#1F5364" cx="611.964" cy="325.626" r="37.685"/>
		
			<radialGradient id="SVGID_19_" cx="-461.144" cy="227.9438" r="54.9777" gradientTransform="matrix(1 0 0 1 1078.0195 80.8008)" gradientUnits="userSpaceOnUse">
			<stop  offset="0" style="stop-color:#FFFFFF"/>
			<stop  offset="0.252" style="stop-color:#FCFCFC"/>
			<stop  offset="0.4572" style="stop-color:#F2F2F2"/>
			<stop  offset="0.6461" style="stop-color:#E1E1E1"/>
			<stop  offset="0.8241" style="stop-color:#C9C9C9"/>
			<stop  offset="0.9947" style="stop-color:#ABAAAA"/>
			<stop  offset="1" style="stop-color:#AAA9A9"/>
		</radialGradient>
		<circle fill="url(#SVGID_19_)" cx="611.966" cy="322.661" r="34.72"/>
		<text transform="matrix(1 0 0 1 592.6138 340.9907)" fill="#1F5364" font-family="'ErasITC-Bold'" font-size="11.6453">START</text>
		<text transform="matrix(1 0 0 1 588.7329 327.4067)" fill="#1F5364" font-family="'MicrosoftJhengHeiBold'" font-size="23.2906">開始</text>
	</g>
</g>
<g id="XMLID_2_">
	<g>
		<path fill="#8FB9D0" d="M187.896,38.208c11.703,13.812,20.038,30.796,23.48,49.891c3.442,19.1,1.563,37.929-4.578,54.958
			l-100.253-36.055L187.896,38.208z"/>
		<path fill="#D3E0EA" d="M187.896,38.208l-81.351,68.794l-0.004,0.002L87.64,2.167C126.44-4.828,164.121,10.143,187.896,38.208z"/>
		<path fill="#D3E0EA" d="M106.545,107.002l100.253,36.055c-12.481,34.597-42.557,61.783-81.357,68.779l-18.9-104.833
			L106.545,107.002z"/>
		<path fill="#8FB9D0" d="M106.542,107.004l18.9,104.833c-38.796,6.994-76.477-7.979-100.251-36.037L106.542,107.004z"/>
		<path fill="#8FB9D0" d="M87.64,2.167l18.901,104.837L6.287,70.949C18.764,36.349,48.84,9.163,87.64,2.167z"/>
		<path fill="#D3E0EA" d="M6.287,70.949l100.254,36.055L25.19,175.799C13.487,161.986,5.151,144.999,1.708,125.9
			C-1.735,106.805,0.145,87.98,6.287,70.949z"/>
	</g>
</g>
<g enable-background="new    ">
	<path fill="#134556" d="M80.633,49.825l-4.014,1.558v10.823c0,2.836-1.378,4.254-4.134,4.254c-1.385,0-2.35-0.027-2.896-0.08
		l-0.979-3.635l3.595-0.04c0.186,0,0.382-0.106,0.589-0.319s0.31-0.419,0.31-0.619V52.64c-0.985,0.333-2.403,0.732-4.253,1.198
		l-0.819-3.435c1.411-0.306,3.102-0.771,5.072-1.397v-8.308h-4.713v-3.435h4.713v-6.49h3.515v6.49h4.014v3.435H76.62v7.029
		c1.105-0.333,2.343-0.792,3.714-1.378L80.633,49.825z M102.959,66.379h-3.554v-1.837H85.446v1.837h-3.555V36.945h8.747v-6.171
		h3.574v6.171h8.747V66.379z M90.638,48.766v-8.387h-5.192v8.387H90.638z M90.638,60.988v-8.826h-5.192v8.826H90.638z
		 M99.405,48.766v-8.387h-5.192v8.387H99.405z M99.405,60.988v-8.826h-5.192v8.826H99.405z"/>
	<path fill="#134556" d="M145.414,63.284l-1.438,3.435c-7.814-0.825-13.379-3.714-16.694-8.666
		c-3.302,4.766-8.807,7.654-16.515,8.666l-1.797-3.475c6.004-0.532,10.65-2.322,13.938-5.371h-13v-3.215h15.217
		c0.32-1.371,0.526-2.489,0.619-3.355l3.635,0.24c-0.04,1.012-0.246,2.05-0.619,3.115h15.716v3.215h-12.841
		C134.816,60.895,139.41,62.699,145.414,63.284z M121.65,51.822h-3.475v-6.909h-2.795c-0.652,3.581-1.725,5.924-3.215,7.029
		l-2.696-1.917c1.185-1.331,1.997-3.036,2.437-5.112h-2.197v-3.195h8.467v-2.896h-6.829v-7.029h3.395v3.914h3.435v-4.893h3.475
		V51.822z M143.158,32.891l-0.24,2.775c-4.008,3.448-10.277,5.784-18.811,7.009l-1.598-2.716c3.594-0.292,6.902-0.932,9.924-1.917
		c-1.438-0.984-2.962-1.87-4.572-2.655c-1.784,0.666-3.242,1.145-4.373,1.438l-1.559-2.756c3.541-0.731,6.543-1.943,9.007-3.634
		l3.954,0.738c-0.24,0.319-0.58,0.619-1.019,0.898L143.158,32.891z M144.955,45.931h-3.436v2.575c0,1.092-0.359,1.888-1.078,2.387
		s-1.916,0.749-3.594,0.749c-0.547,0-1.059-0.021-1.538-0.06l-1.158-2.996l3.115-0.08c0.466,0,0.699-0.226,0.699-0.679v-1.896
		h-10.024c1.797,0.985,3.395,2.01,4.793,3.075l-2.217,2.296c-1.744-1.331-3.488-2.409-5.232-3.234l2.177-2.137h-4.554v-2.896h15.058
		v-2.377h3.554v2.377h3.436V45.931z M128.919,38.283c-2.57,0.413-3.988,0.632-4.254,0.659l-0.399-1.678
		c1.678-0.2,3.161-0.433,4.453-0.699L128.919,38.283z M138.625,35.147l-7.129-0.658c1.623,0.825,2.961,1.617,4.014,2.376
		C136.76,36.359,137.798,35.787,138.625,35.147z M144.675,52.201l-1.758,2.237c-1.186-0.64-2.303-1.085-3.355-1.338l1.758-2.137
		C142.305,51.19,143.423,51.602,144.675,52.201z"/>
</g>
<g enable-background="new    ">
	<path fill="#134556" d="M84.068,87.618l-1.598,3.095c-4.021-1.091-7.402-2.316-10.144-3.674v1.138h-13.18v-1.138
		c-3.355,1.385-6.637,2.543-9.845,3.475l-1.717-3.155c7.016-1.491,12.96-4.187,17.833-8.088l3.794,1.019
		c-0.12,0.213-0.379,0.486-0.779,0.818C72.799,84.129,78.011,86.299,84.068,87.618z M83.649,110.422H68.073v1.558
		c0,1.038-0.22,1.82-0.659,2.347c-0.439,0.525-0.958,0.858-1.558,0.998s-1.784,0.21-3.555,0.21c-1.278,0-2.283-0.027-3.015-0.08
		l-0.999-3.056h5.032c0.266,0,0.519-0.112,0.759-0.339s0.359-0.466,0.359-0.72v-0.918H48.024v-2.696h16.415v-1.837H50.28v-2.456
		h14.158v-1.837c-2.29,0.079-5.085,0.119-8.387,0.119c-1.705,0-3.095-0.013-4.174-0.04l-0.819-2.855
		c3.967,0.146,7.342,0.22,10.125,0.22c6.403,0,12.274-0.399,17.613-1.198l1.298,2.576c-2.916,0.427-6.923,0.792-12.021,1.099v1.917
		h13.299v2.456H68.073v1.837h15.576V110.422z M77.359,96.803H54.035v-7.029h23.324V96.803z M73.685,94.227V92.39H57.769v1.837
		H73.685z M69.251,85.441c-0.692-0.413-1.837-1.179-3.435-2.297c-1.145,0.839-2.37,1.604-3.674,2.297H69.251z"/>
	<path fill="#134556" d="M97.847,80.089c-0.213,1.211-0.626,2.889-1.238,5.032l-0.938,3.015v27.438h-3.515v-19.45
		c-0.825,1.438-1.518,2.543-2.077,3.314l-1.637-4.213c2.742-4.367,4.759-9.619,6.05-15.756L97.847,80.089z M124.925,112.559
		l-1.277,3.115c-4.541-0.52-8.74-1.392-12.602-2.616c-3.142,1.278-7.368,2.229-12.68,2.855l-1.378-3.035
		c4.061-0.267,7.482-0.812,10.265-1.638c-1.585-0.932-2.624-1.584-3.116-1.957c-1.811,1.039-3.282,1.805-4.414,2.297l-1.877-2.496
		c1.424-0.586,2.663-1.172,3.714-1.758c-0.493-0.386-0.859-0.712-1.098-0.979l2.416-1.797c0.333,0.293,0.805,0.673,1.418,1.139
		c0.932-0.692,1.724-1.358,2.376-1.997c-1.038-0.466-1.557-1.298-1.557-2.496v-3.036h3.275v2.497c0,0.572,0.286,0.858,0.858,0.858
		l4.014-0.12c0.24,0,0.459-0.076,0.659-0.229s0.399-0.716,0.599-1.688l2.637,1.298c-0.133,1.252-0.583,2.11-1.348,2.576
		c-0.766,0.466-2.54,0.659-5.322,0.579c-0.146,0.279-0.486,0.659-1.019,1.139h10.044v2.416c-1.438,1.385-2.948,2.569-4.532,3.555
		C117.51,111.814,120.825,112.319,124.925,112.559z M124.107,83.144h-11.543c-0.133,0.533-0.339,1.052-0.619,1.558h8.688v9.945
		h3.255v5.151h-3.016c0.799,0.985,1.591,2.17,2.376,3.555l-2.576,1.678c-1.237-2.224-2.522-4.087-3.854-5.592l2.336-1.638
		c0.254,0.253,0.66,0.699,1.219,1.338v-1.957h-19.13v2.616c0.519-0.825,0.832-1.331,0.938-1.518l2.456,1.238
		c-0.918,1.904-2.23,3.728-3.934,5.472l-2.196-1.837c0.985-0.919,1.87-1.997,2.656-3.235h-3.435v-5.271h3.275v-9.905h7.149
		c0.292-0.626,0.498-1.158,0.619-1.598H98.546v-2.775h25.561V83.144z M117.097,88.176v-1.338h-12.46v1.338H117.097z M117.097,91.332
		v-1.357h-12.46v1.357H117.097z M117.097,94.647v-1.438h-12.46v1.438H117.097z M115.021,107.487h-8.188
		c1.318,0.919,2.769,1.697,4.354,2.336C112.119,109.357,113.396,108.579,115.021,107.487z M113.763,98.86l-1.199,2.077
		c-1.305-0.706-2.396-1.179-3.274-1.418l1.038-2.017C111.379,97.742,112.525,98.195,113.763,98.86z"/>
	<path fill="#134556" d="M165.443,104.372l-2.936,1.897c-0.625-0.76-1.471-1.651-2.535-2.677c-9,0.746-18.846,1.146-29.535,1.198
		l-0.619-3.075c6.283,0,11.602-0.08,15.955-0.239V98.9h-12.6V87.079h12.6v-2.077h-16.115v-3.035h16.115v-2.117h3.475v2.117h15.956
		v3.035h-15.956v2.077h12.641V98.9h-2.456C161.628,100.59,163.632,102.415,165.443,104.372z M137.067,107.248
		c-1.238,2.929-2.683,5.378-4.333,7.349l-3.076-1.997c1.718-1.943,3.109-4.181,4.174-6.71L137.067,107.248z M145.773,91.651v-1.877
		h-9.125v1.877H145.773z M145.773,96.204v-2.017h-9.125v2.017H145.773z M157.794,109.524c-0.146,1.943-0.525,3.358-1.138,4.243
		s-1.598,1.328-2.956,1.328h-11.482c-0.865-0.04-1.557-0.373-2.076-0.999s-0.779-1.331-0.779-2.116v-5.592h3.555v4.453
		c0,0.652,0.326,0.979,0.979,0.979l8.667-0.04c1.091,0,1.638-1.078,1.638-3.234L157.794,109.524z M152.404,108.545l-3.156,1.677
		c-1.105-1.53-2.17-2.716-3.195-3.554l3.115-1.758C150.552,106.123,151.63,107.333,152.404,108.545z M158.375,91.651v-1.877h-9.127
		v1.877H158.375z M158.375,96.204v-2.017h-9.127v2.017H158.375z M158.375,98.9h-9.127v2.416c3.209-0.079,5.744-0.22,7.609-0.419
		c-0.427-0.359-0.793-0.646-1.1-0.858L158.375,98.9z M165.443,112.798l-3.275,1.678c-0.745-1.758-2.309-4.254-4.692-7.488
		l3.115-1.418C162.441,107.833,164.058,110.243,165.443,112.798z"/>
</g>
<path fill="#134556" d="M92.274,149.805c-0.883,0-1.732,0.354-2.359,0.982c-0.627,0.633-0.978,1.489-0.978,2.383v6.73
	c0,0.896,0.351,1.75,0.978,2.381c0.626,0.629,1.476,0.984,2.359,0.984c0.887,0,1.735-0.355,2.362-0.984
	c0.624-0.631,0.977-1.484,0.977-2.381v-6.73c0-0.894-0.353-1.75-0.977-2.383C94.009,150.159,93.161,149.805,92.274,149.805z
	 M149.785,153.17c0.885,0,1.734-0.354,2.36-0.984c0.625-0.63,0.978-1.488,0.978-2.381v-13.467c0-0.893-0.352-1.746-0.978-2.379
	s-1.476-0.986-2.36-0.986H72.246c-0.885,0-1.735,0.354-2.36,0.986c-0.626,0.633-0.978,1.486-0.978,2.379v13.467
	c0,0.893,0.352,1.751,0.978,2.381c0.625,0.631,1.475,0.984,2.36,0.984c0.886,0,1.735,0.354,2.361,0.983
	c0.625,0.632,0.976,1.489,0.976,2.382s-0.351,1.748-0.976,2.381c-0.626,0.631-1.476,0.984-2.361,0.984
	c-0.885,0-1.735,0.354-2.36,0.984c-0.626,0.633-0.978,1.488-0.978,2.381v13.466c0,0.892,0.352,1.747,0.978,2.378
	c0.625,0.633,1.475,0.988,2.36,0.988h77.539c0.885,0,1.734-0.355,2.36-0.988c0.625-0.631,0.978-1.486,0.978-2.378v-13.466
	c0-0.893-0.352-1.748-0.978-2.381c-0.626-0.631-1.476-0.984-2.36-0.984c-0.887,0-1.734-0.354-2.361-0.984
	c-0.625-0.633-0.977-1.488-0.977-2.381s0.354-1.75,0.977-2.382C148.05,153.524,148.899,153.17,149.785,153.17z M146.447,147.042
	c-1.932,0.709-3.605,1.998-4.783,3.697c-1.181,1.698-1.814,3.725-1.814,5.797s0.634,4.099,1.814,5.793
	c1.178,1.699,2.852,2.991,4.783,3.699v7.338H95.613c0-0.893-0.353-1.75-0.977-2.381c-0.627-0.631-1.476-0.986-2.362-0.986
	c-0.883,0-1.732,0.355-2.359,0.986s-0.978,1.488-0.978,2.381H75.584v-7.338c1.934-0.708,3.604-2,4.785-3.699
	c1.181-1.694,1.814-3.721,1.814-5.793s-0.633-4.099-1.814-5.797c-1.18-1.699-2.851-2.988-4.785-3.697v-7.338h13.353
	c0,0.895,0.351,1.752,0.978,2.381c0.626,0.634,1.476,0.987,2.359,0.987c0.887,0,1.735-0.354,2.362-0.987
	c0.624-0.629,0.977-1.486,0.977-2.381h50.834V147.042L146.447,147.042z"/>
</svg>
