<?xml version="1.0" encoding="utf-8"?>
<!-- Generator: Adobe Illustrator 16.0.0, SVG Export Plug-In . SVG Version: 6.00 Build 0)  -->
<!DOCTYPE svg PUBLIC "-//W3C//DTD SVG 1.1//EN" "http://www.w3.org/Graphics/SVG/1.1/DTD/svg11.dtd">
<svg version="1.1" id="圖層_1" xmlns="http://www.w3.org/2000/svg" xmlns:xlink="http://www.w3.org/1999/xlink" x="0px" y="0px"
	 width="1200px" height="50.902px" viewBox="0 0 1200 50.902" enable-background="new 0 0 1200 50.902" xml:space="preserve">
<path fill="#1687A7" d="M27.106,39.853c-1.084-8.25-10.001-8.582-10.001-8.582s-2.396-11.813-13.75-12.057
	c-1.225,0-2.34,0.164-3.355,0.456v31.237h20.8C20.8,50.911,28.189,48.104,27.106,39.853z"/>
<path fill="#276678" d="M25.464,35.975l-9.556-8.557c0,0,2.112-20.554,13.223-20.333c11.111,0.224,13.556,20.224,13.556,20.224
	L25.464,35.975z"/>
<path fill="#276678" d="M317.834,41.229l-15.666-1.515c0,0,4.283-27.326,15.395-27.104s13.555,20.223,13.555,20.223L317.834,41.229z
	"/>
<path fill="#276678" d="M388.75,40.725l-17.11-16.431c0,0,2.111-20.555,13.222-20.333c11.111,0.225,13.555,20.223,13.555,20.223
	L388.75,40.725z"/>
<path fill="#276678" d="M60.213,19.892c0,0,2.5-6.775,8.667-8.333c6.167-1.556,9,2.333,9,2.333S82.324,2.67,91.38,3.559
	c13.833,1.836,12.284,22.27,12.284,22.27l-2.95,11.564L60.881,34.85L60.213,19.892z"/>
<path fill="#276678" d="M122.428,30.339c-0.389-12.611,8.001-9.776,8.001-9.776s2.666-11.778,12.777-11.335
	c12.875,1.307,11.889,18.333,11.889,18.333s3.25-1.526,5,0.777c1.75,2.307-1.929,15.61-1.929,15.61s-12.538-2.872-19.222-5.665
	C131.361,35.112,124.082,31.104,122.428,30.339z"/>
<path fill="#276678" d="M180.361,33.911l-4.034-8.195c0,0,4.112-6.556,10.333-6.556c6.223,0,7.889,3.111,7.889,3.111
	s3.81-16.335,14.517-16.225c10.706,0.112,13.706,15.001,13.706,15.001s6.556,0.556,9,6.223c2.445,5.667-2.555,9.667-2.555,9.667
	l-41.001,1.776L180.361,33.911z"/>
<path fill="#276678" d="M247.173,24.258c0,0,3.365-7.168,9.587-7.168c6.222,0,9.496,3.953,9.496,3.953s1.494-20.97,15.76-21.021
	c17.037,1.378,20.152,30.889,20.152,30.889l-27.328,8.38l-13.673-6.603L247.173,24.258z"/>
<path fill="#1687A7" d="M25.38,50.909h46.167c0,0,5.861-6.069,3.75-12.791c-2.111-6.726-10.458-6.25-10.458-6.25
	S64.714,6.019,50.776,5.424c-11.507-0.57-14.453,20.42-14.453,20.42s-9.332-0.02-13.332,9.022S25.38,50.909,25.38,50.909z"/>
<path fill="#1687A7" d="M96.882,34.867c0,0,2.945-22.165,15.334-21.958c12.833,0.834,14.111,15.253,14.111,15.253
	s11.444-1.31,9.667,14.08c0,5.835-9.535,8.639-9.535,8.639l-30.91,0.028L96.882,34.867z"/>
<path fill="#1687A7" d="M273.834,42.186c0,0,5.077-24.14,17.466-23.933c12.834,0.835,13.756,16.326,13.756,16.326
	s6.889-2.358,9,8.162c0,5.834-7.516,8.166-7.516,8.166h-30.943L273.834,42.186z"/>
<path fill="#1687A7" d="M363.31,34.867c0,0-0.819-26.291-13.965-26.998c-10.854-0.009-13.532,12.095-13.532,12.095
	s-13.134-2.555-12.033,11.612c0.75,6.665,7.338,19.333,7.338,19.333h33.525L363.31,34.867z"/>
<path fill="#1687A7" d="M153.278,42.437c0,0,2.215-23.224,15.465-23.224c11.355,0.244,13.75,12.058,13.75,12.058
	s8.917,0.332,10,8.582c1.083,8.251-6.305,11.056-6.305,11.056h-25.104L153.278,42.437z"/>
<path fill="#1687A7" d="M228.519,35.576c0,0,0.333-22.777,14.444-22.777c12.444,0.334,14.333,15.111,14.333,15.111
	s8.111,0.11,10.222,9.223c2.11,9.111-2.606,13.776-2.606,13.776l-37.275-0.021L228.519,35.576z"/>
<path fill="#D3E0EA" d="M57.046,50.909h40.167c0,0,5.777-3.444,4.166-11.557c-1.611-8.108-10.111-8.335-10.111-8.335
	S89.129,18.66,77.796,18.826c-13.75,0.501-14.083,17.5-14.083,17.5s-7.583-1.082-8.75,6C54.047,47.743,57.046,50.909,57.046,50.909z
	"/>
<path fill="#D3E0EA" d="M254.244,50.909h26.187c0,0,3.767-2.244,2.717-7.533c-1.051-5.288-6.593-5.436-6.593-5.436
	s-1.394-8.059-8.783-7.948c-8.964,0.327-9.182,11.408-9.182,11.408s-4.945-0.706-5.705,3.91
	C252.287,48.844,254.244,50.909,254.244,50.909z"/>
<path fill="#D3E0EA" d="M119.16,50.909h41.75c0,0,1.083-4.723-1.473-7.998c-2.555-3.277-7.333-3.141-7.333-3.141
	s-3.333-10.526-13.945-9.776c-10.61,0.749-11.167,14.249-11.167,14.249s-3.417-0.334-5.75,1.584
	C118.91,47.743,119.16,50.909,119.16,50.909z"/>
<path fill="#D3E0EA" d="M177.755,50.909h54.044c0,0,5.167-6.527,1.111-12.442c-4.056-5.918-11-5.334-11-5.334
	s-4.334-13.972-19.223-11.751c-14.888,2.223-15.11,17.195-15.11,17.195s-6.111-1-9,3C175.688,45.577,177.755,50.909,177.755,50.909z
	"/>
<path fill="#D3E0EA" d="M301.601,50.909h30.743c0,0,6.534-7.361,3.959-13.224c-2.575-5.859-7.958-5.008-7.958-5.008
	s-1.855-6.214-10.064-5.716c-9.941,0.604-9.47,10.409-9.47,10.409s-5.443-0.964-7.968,4.038
	C298.318,46.41,301.601,50.909,301.601,50.909z"/>
<path fill="#D3E0EA" d="M40.16,40.911c-2.583-5.835-8.444-5.112-8.444-5.112s-2.777-10.89-13.667-9.889
	C7.16,26.909,6.826,40.017,6.826,40.017S2.681,39.132,0,41.528v9.381h38.049C38.049,50.909,42.743,46.743,40.16,40.911z"/>
<path fill="#1687A7" d="M389.69,38.184l-1.356,12.725h7.363h4.304V19.671C390.034,22.56,389.69,38.184,389.69,38.184z"/>
<path fill="#D3E0EA" d="M400.001,41.528c-0.391,0.35-0.751,0.769-1.063,1.271c-2.446,3.945,0.667,8.11,0.667,8.11h0.396V41.528z"/>
<path fill="#D3E0EA" d="M350.114,50.909h39.176c0,0,5.288-3.396,3.044-9.611c-1.82-4.021-5.867-4.124-5.867-4.124
	s-1.3-22.515-15.524-22.922c-13.411,0.489-13.201,16.06-13.201,16.06s-8.992-0.232-11.575,8.267
	C343.935,45.923,350.114,50.909,350.114,50.909z"/>
<ellipse fill="#FFFFFF" cx="1.459" cy="22.367" rx="0.266" ry="0.533"/>
<ellipse fill="#FFFFFF" cx="22.355" cy="28.144" rx="0.266" ry="0.534"/>
<ellipse fill="#FFFFFF" cx="2.226" cy="21.304" rx="0.234" ry="0.89"/>
<ellipse fill="#FFFFFF" cx="10.242" cy="24.453" rx="0.396" ry="1.103"/>
<ellipse fill="#FFFFFF" cx="25.872" cy="12.422" rx="0.51" ry="0.963"/>
<ellipse fill="#FFFFFF" cx="29.584" cy="11.114" rx="0.44" ry="0.847"/>
<ellipse fill="#FFFFFF" cx="27.384" cy="10.033" rx="0.303" ry="0.571"/>
<ellipse fill="#FFFFFF" cx="14.093" cy="32.204" rx="0.25" ry="0.699"/>
<ellipse fill="#FFFFFF" cx="24.556" cy="29.596" rx="0.251" ry="0.7"/>
<ellipse fill="#FFFFFF" cx="74.196" cy="24.429" rx="0.25" ry="0.7"/>
<ellipse fill="#FFFFFF" cx="86.368" cy="26.799" rx="0.348" ry="0.971"/>
<ellipse fill="#FFFFFF" cx="82.544" cy="23.669" rx="0.273" ry="0.76"/>
<ellipse fill="#FFFFFF" cx="72.95" cy="22.909" rx="0.378" ry="1.054"/>
<ellipse fill="#FFFFFF" cx="97.376" cy="10.38" rx="0.812" ry="1.735"/>
<ellipse fill="#FFFFFF" cx="108.167" cy="16.268" rx="0.482" ry="1.034"/>
<ellipse fill="#FFFFFF" cx="106.71" cy="18.036" rx="0.585" ry="1.271"/>
<ellipse fill="#FFFFFF" cx="109.459" cy="17.585" rx="0.308" ry="0.658"/>
<ellipse fill="#FFFFFF" cx="118.164" cy="18.662" rx="0.443" ry="1.03"/>
<ellipse fill="#FFFFFF" cx="116.843" cy="19.82" rx="0.221" ry="0.514"/>
<ellipse fill="#FFFFFF" cx="120.154" cy="18.475" rx="0.111" ry="0.438"/>
<path fill="#FFFFFF" d="M175.967,24.085c0.074,0,0.134,0.238,0.134,0.532c0,0.29-0.06,0.527-0.134,0.527
	c-0.075,0-0.134-0.237-0.134-0.527C175.833,24.324,175.892,24.085,175.967,24.085z"/>
<ellipse fill="#FFFFFF" cx="120.911" cy="19.413" rx="0.333" ry="0.749"/>
<ellipse fill="#FFFFFF" cx="119.5" cy="19.937" rx="0.32" ry="0.934"/>
<ellipse fill="#FFFFFF" cx="84.206" cy="25.545" rx="0.527" ry="1.471"/>
<ellipse fill="#FFFFFF" cx="138.421" cy="13.427" rx="0.898" ry="1.767"/>
<ellipse fill="#FFFFFF" cx="133.566" cy="35.092" rx="0.601" ry="1.259"/>
<ellipse fill="#FFFFFF" cx="135.838" cy="15.743" rx="0.618" ry="1.216"/>
<ellipse fill="#FFFFFF" cx="145.457" cy="13.316" rx="0.535" ry="1.253"/>
<ellipse fill="#FFFFFF" cx="146.753" cy="14.728" rx="0.35" ry="0.819"/>
<ellipse fill="#FFFFFF" cx="134.921" cy="33.483" rx="0.285" ry="0.666"/>
<ellipse fill="#FFFFFF" cx="172.756" cy="22.749" rx="0.184" ry="0.43"/>
<ellipse fill="#FFFFFF" cx="172.181" cy="22.031" rx="0.128" ry="0.304"/>
<ellipse fill="#FFFFFF" cx="147.868" cy="13.112" rx="0.258" ry="0.719"/>
<ellipse fill="#FFFFFF" cx="68.19" cy="14.872" rx="0.361" ry="1.006"/>
<ellipse fill="#FFFFFF" cx="66.967" cy="16.272" rx="0.215" ry="0.599"/>
<ellipse fill="#FFFFFF" cx="68.83" cy="13.538" rx="0.145" ry="0.403"/>
<ellipse fill="#FFFFFF" cx="95.156" cy="7.96" rx="0.442" ry="1.235"/>
<ellipse fill="#FFFFFF" cx="12.874" cy="31.024" rx="0.424" ry="1.181"/>
<ellipse fill="#FFFFFF" cx="23.349" cy="30.521" rx="0.332" ry="0.924"/>
<ellipse fill="#FFFFFF" cx="47.391" cy="10.989" rx="0.427" ry="1.188"/>
<ellipse fill="#FFFFFF" cx="53.662" cy="12.876" rx="0.459" ry="0.924"/>
<ellipse fill="#FFFFFF" cx="57.648" cy="13.276" rx="0.199" ry="0.401"/>
<ellipse fill="#FFFFFF" cx="56.23" cy="11.505" rx="0.341" ry="0.95"/>
<ellipse fill="#FFFFFF" cx="49.975" cy="7.886" rx="0.287" ry="0.801"/>
<ellipse fill="#FFFFFF" cx="51.899" cy="9.212" rx="0.211" ry="0.589"/>
<ellipse fill="#FFFFFF" cx="11.07" cy="23.35" rx="0.178" ry="0.45"/>
<ellipse fill="#FFFFFF" cx="211.399" cy="10.27" rx="0.169" ry="0.469"/>
<ellipse fill="#FFFFFF" cx="237.17" cy="17.809" rx="0.169" ry="0.47"/>
<ellipse fill="#FFFFFF" cx="212.652" cy="9.223" rx="0.418" ry="0.897"/>
<ellipse fill="#FFFFFF" cx="214.781" cy="10.919" rx="0.697" ry="1.491"/>
<ellipse fill="#FFFFFF" cx="213.399" cy="12.831" rx="0.329" ry="0.916"/>
<ellipse fill="#FFFFFF" cx="199.014" cy="27.263" rx="0.255" ry="0.708"/>
<ellipse fill="#FFFFFF" cx="238.769" cy="18.924" rx="0.254" ry="0.708"/>
<ellipse fill="#FFFFFF" cx="236.022" cy="19.777" rx="0.305" ry="0.853"/>
<ellipse fill="#FFFFFF" cx="174.876" cy="23.553" rx="0.633" ry="1.063"/>
<path fill="#FFFFFF" d="M241.834,17.34c0,0.87-0.42,1.576-0.937,1.576c-0.519,0-0.94-0.706-0.94-1.576
	c0-0.871,0.422-1.575,0.94-1.575C241.414,15.763,241.834,16.469,241.834,17.34z"/>
<ellipse fill="#FFFFFF" cx="173.639" cy="22.139" rx="0.356" ry="0.716"/>
<ellipse fill="#FFFFFF" cx="195.446" cy="29.199" rx="0.904" ry="1.935"/>
<ellipse fill="#FFFFFF" cx="197.593" cy="31.906" rx="0.444" ry="1.239"/>
<ellipse fill="#FFFFFF" cx="286.981" cy="22.277" rx="0.438" ry="1.219"/>
<ellipse fill="#FFFFFF" cx="238.077" cy="16.505" rx="0.438" ry="1.219"/>
<ellipse fill="#FFFFFF" cx="287.959" cy="4.115" rx="0.325" ry="0.694"/>
<ellipse fill="#FFFFFF" cx="285.781" cy="24.142" rx="0.301" ry="0.645"/>
<ellipse fill="#FFFFFF" cx="285.105" cy="22.532" rx="0.186" ry="0.4"/>
<path fill="#FFFFFF" d="M290.31,6.663c0,1.024-0.296,1.854-0.664,1.854c-0.366,0-0.665-0.829-0.665-1.854
	c0-1.021,0.298-1.854,0.665-1.854S290.31,5.639,290.31,6.663z"/>
<ellipse fill="#FFFFFF" cx="319.042" cy="14.992" rx="0.354" ry="0.822"/>
<ellipse fill="#FFFFFF" cx="317.985" cy="15.916" rx="0.177" ry="0.411"/>
<ellipse fill="#FFFFFF" cx="320.63" cy="14.841" rx="0.089" ry="0.35"/>
<ellipse fill="#FFFFFF" cx="321.235" cy="15.592" rx="0.266" ry="0.599"/>
<ellipse fill="#FFFFFF" cx="320.107" cy="16.009" rx="0.256" ry="0.746"/>
<path fill="#FFFFFF" d="M270.99,32.569c0,0.329-0.067,0.599-0.152,0.599c-0.082,0-0.15-0.27-0.15-0.599
	c0-0.33,0.068-0.599,0.15-0.599C270.923,31.97,270.99,32.239,270.99,32.569z"/>
<path fill="#FFFFFF" d="M272.924,34.903c0,0.188-0.067,0.34-0.152,0.34c-0.082,0-0.15-0.152-0.15-0.34s0.068-0.34,0.15-0.34
	C272.857,34.563,272.924,34.717,272.924,34.903z"/>
<ellipse fill="#FFFFFF" cx="271.874" cy="33.852" rx="0.455" ry="1.024"/>
<ellipse fill="#FFFFFF" cx="324.05" cy="30.002" rx="0.168" ry="0.47"/>
<ellipse fill="#FFFFFF" cx="311.629" cy="33.868" rx="0.493" ry="1.054"/>
<ellipse fill="#FFFFFF" cx="323.19" cy="31.222" rx="0.419" ry="0.896"/>
<ellipse fill="#FFFFFF" cx="324.915" cy="32.566" rx="0.696" ry="1.492"/>
<ellipse fill="#FFFFFF" cx="312.778" cy="32.393" rx="0.269" ry="0.749"/>
<ellipse fill="#FFFFFF" cx="326.278" cy="34.339" rx="0.329" ry="0.917"/>
<path fill="#FFFFFF" d="M356.233,15.017c0,1.085-0.315,1.965-0.705,1.965c-0.388,0-0.704-0.88-0.704-1.965s0.315-1.962,0.704-1.962
	C355.918,13.055,356.233,13.932,356.233,15.017z"/>
<ellipse fill="#FFFFFF" cx="343.215" cy="11.883" rx="0.46" ry="0.924"/>
<ellipse fill="#FFFFFF" cx="354.128" cy="17.739" rx="0.2" ry="0.401"/>
<ellipse fill="#FFFFFF" cx="353.929" cy="12.807" rx="0.341" ry="0.726"/>
<ellipse fill="#FFFFFF" cx="342.084" cy="13.054" rx="0.288" ry="0.801"/>
<ellipse fill="#FFFFFF" cx="357.146" cy="16.392" rx="0.212" ry="0.589"/>
<path fill="#FFFFFF" d="M389.156,9.484c0,1.087-0.413,1.968-0.922,1.968c-0.507,0-0.922-0.881-0.922-1.968
	c0-1.085,0.415-1.964,0.922-1.964C388.744,7.52,389.156,8.399,389.156,9.484z"/>
<ellipse fill="#FFFFFF" cx="391.39" cy="9.804" rx="0.399" ry="0.803"/>
<ellipse fill="#FFFFFF" cx="350.535" cy="35.773" rx="0.576" ry="1.224"/>
<ellipse fill="#FFFFFF" cx="376.522" cy="20.552" rx="0.928" ry="1.629"/>
<ellipse fill="#FFFFFF" cx="375.172" cy="18.297" rx="0.287" ry="0.751"/>
<ellipse fill="#FFFFFF" cx="377.949" cy="22.246" rx="0.188" ry="0.495"/>
<ellipse fill="#FFFFFF" cx="390.219" cy="11.195" rx="0.423" ry="1.18"/>
<ellipse fill="#FFFFFF" cx="272.043" cy="11.615" rx="0.168" ry="0.47"/>
<ellipse fill="#FFFFFF" cx="291.589" cy="8.391" rx="0.419" ry="0.896"/>
<ellipse fill="#FFFFFF" cx="272.227" cy="8.155" rx="0.697" ry="1.492"/>
<ellipse fill="#FFFFFF" cx="270.786" cy="10.229" rx="0.328" ry="0.915"/>
<path fill="#1687A7" d="M427.105,39.853c-1.084-8.249-10-8.582-10-8.582s-2.396-11.813-13.75-12.056
	c-1.226,0-2.341,0.163-3.356,0.456v31.236h20.8C420.8,50.91,428.19,48.104,427.105,39.853z"/>
<path fill="#276678" d="M425.465,35.961l-9.556-8.558c0,0,2.111-20.554,13.223-20.333c11.111,0.225,13.558,20.224,13.558,20.224
	L425.465,35.961z"/>
<path fill="#276678" d="M717.834,41.215L702.168,39.7c0,0,4.283-27.326,15.395-27.104s13.558,20.222,13.558,20.222L717.834,41.215z"
	/>
<path fill="#276678" d="M788.752,40.711l-17.111-16.43c0,0,2.111-20.558,13.224-20.333c11.11,0.222,13.557,20.222,13.557,20.222
	L788.752,40.711z"/>
<path fill="#276678" d="M460.214,19.878c0,0,2.5-6.776,8.667-8.334c6.167-1.555,9,2.334,9,2.334s4.444-11.222,13.5-10.334
	c13.833,1.836,12.283,22.27,12.283,22.27l-2.95,11.564l-39.833-2.542L460.214,19.878z"/>
<path fill="#276678" d="M522.428,30.324c-0.389-12.612,8-9.777,8-9.777s2.667-11.777,12.778-11.334
	c12.875,1.306,11.889,18.333,11.889,18.333s3.25-1.526,4.999,0.777c1.75,2.306-1.927,15.609-1.927,15.609
	s-12.538-2.872-19.222-5.665C531.361,35.097,524.082,31.089,522.428,30.324z"/>
<path fill="#276678" d="M580.361,33.894l-4.033-8.193c0,0,4.109-6.557,10.333-6.557c6.223,0,7.888,3.11,7.888,3.11
	s3.811-16.334,14.519-16.223c10.705,0.11,13.705,15,13.705,15s6.557,0.557,9,6.223c2.444,5.665-2.558,9.667-2.558,9.667
	l-40.999,1.776L580.361,33.894z"/>
<path fill="#276678" d="M647.174,24.243c0,0,3.365-7.168,9.586-7.168c6.226,0,9.496,3.952,9.496,3.952s1.494-20.97,15.762-21.021
	c17.035,1.381,20.15,30.89,20.15,30.89l-27.326,8.379l-13.674-6.602L647.174,24.243z"/>
<path fill="#1687A7" d="M425.38,50.909h46.167c0,0,5.861-6.069,3.75-12.792c-2.111-6.724-10.458-6.249-10.458-6.249
	s-0.125-25.849-14.063-26.443c-11.509-0.57-14.453,20.42-14.453,20.42s-9.332-0.021-13.332,9.022
	C418.992,43.908,425.38,50.909,425.38,50.909z"/>
<path fill="#1687A7" d="M496.883,34.867c0,0,2.943-22.166,15.333-21.958c12.833,0.834,14.111,15.252,14.111,15.252
	s11.442-1.309,9.666,14.082c0,5.833-9.534,8.639-9.534,8.639l-30.91,0.027L496.883,34.867z"/>
<path fill="#1687A7" d="M673.836,42.187c0,0,5.076-24.141,17.465-23.933c12.834,0.835,13.756,16.325,13.756,16.325
	s6.89-2.358,9,8.162c0,5.833-7.516,8.166-7.516,8.166h-30.943L673.836,42.187z"/>
<path fill="#1687A7" d="M763.311,34.867c0,0-0.819-26.292-13.965-26.999c-10.854-0.009-13.533,12.097-13.533,12.097
	s-13.131-2.556-12.032,11.611c0.752,6.665,7.34,19.333,7.34,19.333h33.524L763.311,34.867z"/>
<path fill="#1687A7" d="M553.279,42.435c0,0,2.215-23.223,15.464-23.223c11.354,0.244,13.75,12.057,13.75,12.057
	s8.917,0.333,10,8.582c1.083,8.251-6.306,11.058-6.306,11.058h-25.104L553.279,42.435z"/>
<path fill="#1687A7" d="M628.521,35.576c0,0,0.331-22.777,14.44-22.777c12.445,0.334,14.334,15.111,14.334,15.111
	s8.111,0.109,10.223,9.223c2.111,9.111-2.604,13.776-2.604,13.776l-37.275-0.021L628.521,35.576z"/>
<path fill="#D3E0EA" d="M457.047,50.909h40.167c0,0,5.778-3.444,4.167-11.557c-1.611-8.111-10.111-8.334-10.111-8.334
	s-2.139-12.359-13.473-12.193c-13.75,0.502-14.083,17.5-14.083,17.5s-7.583-1.082-8.75,6.001
	C454.047,47.743,457.047,50.909,457.047,50.909z"/>
<path fill="#D3E0EA" d="M654.244,50.909h26.188c0,0,3.769-2.244,2.718-7.533c-1.05-5.288-6.593-5.436-6.593-5.436
	s-1.395-8.059-8.782-7.949c-8.966,0.327-9.183,11.41-9.183,11.41s-4.947-0.708-5.707,3.909
	C652.289,48.844,654.244,50.909,654.244,50.909z"/>
<path fill="#D3E0EA" d="M519.16,50.909h41.75c0,0,1.084-4.725-1.473-7.999c-2.557-3.276-7.334-3.141-7.334-3.141
	s-3.331-10.526-13.943-9.775c-10.611,0.748-11.167,14.249-11.167,14.249s-3.417-0.335-5.75,1.584
	C518.911,47.743,519.16,50.909,519.16,50.909z"/>
<path fill="#D3E0EA" d="M577.756,50.909h54.043c0,0,5.168-6.526,1.111-12.442c-4.058-5.917-11-5.333-11-5.333
	s-4.332-13.974-19.221-11.752c-14.893,2.224-15.112,17.194-15.112,17.194s-6.112-1-9,3
	C575.688,45.576,577.756,50.909,577.756,50.909z"/>
<path fill="#D3E0EA" d="M701.602,50.909h30.742c0,0,6.535-7.361,3.961-13.223c-2.573-5.86-7.957-5.008-7.957-5.008
	s-1.854-6.214-10.063-5.716c-9.943,0.604-9.471,10.407-9.471,10.407s-5.443-0.964-7.97,4.038
	C698.318,46.409,701.602,50.909,701.602,50.909z"/>
<path fill="#D3E0EA" d="M440.161,40.909c-2.584-5.833-8.445-5.11-8.445-5.11s-2.776-10.891-13.667-9.889
	c-10.889,0.998-11.222,14.107-11.222,14.107s-4.146-0.886-6.826,1.511v9.381h38.048C438.049,50.909,442.744,46.743,440.161,40.909z"
	/>
<path fill="#1687A7" d="M789.689,38.185l-1.355,12.724h7.363h4.305V19.672C790.035,22.56,789.689,38.185,789.689,38.185z"/>
<path fill="#D3E0EA" d="M800.002,41.528c-0.391,0.351-0.752,0.77-1.063,1.271c-2.445,3.944,0.666,8.109,0.666,8.109h0.396
	L800.002,41.528L800.002,41.528z"/>
<path fill="#D3E0EA" d="M750.115,50.909h39.176c0,0,5.289-3.396,3.045-9.61c-1.82-4.022-5.867-4.125-5.867-4.125
	s-1.301-22.516-15.522-22.921c-13.412,0.487-13.199,16.06-13.199,16.06s-8.996-0.233-11.578,8.265
	C743.936,45.923,750.115,50.909,750.115,50.909z"/>
<ellipse fill="#FFFFFF" cx="401.459" cy="22.352" rx="0.267" ry="0.533"/>
<ellipse fill="#FFFFFF" cx="422.354" cy="28.129" rx="0.269" ry="0.533"/>
<ellipse fill="#FFFFFF" cx="402.226" cy="21.289" rx="0.234" ry="0.89"/>
<ellipse fill="#FFFFFF" cx="410.243" cy="24.438" rx="0.396" ry="1.103"/>
<ellipse fill="#FFFFFF" cx="425.872" cy="12.406" rx="0.511" ry="0.964"/>
<ellipse fill="#FFFFFF" cx="429.585" cy="11.098" rx="0.441" ry="0.847"/>
<ellipse fill="#FFFFFF" cx="427.385" cy="10.019" rx="0.305" ry="0.57"/>
<ellipse fill="#FFFFFF" cx="414.093" cy="32.19" rx="0.25" ry="0.699"/>
<ellipse fill="#FFFFFF" cx="424.557" cy="29.583" rx="0.251" ry="0.7"/>
<ellipse fill="#FFFFFF" cx="474.196" cy="24.414" rx="0.251" ry="0.7"/>
<ellipse fill="#FFFFFF" cx="486.368" cy="26.783" rx="0.348" ry="0.971"/>
<ellipse fill="#FFFFFF" cx="482.545" cy="23.654" rx="0.272" ry="0.76"/>
<ellipse fill="#FFFFFF" cx="472.95" cy="22.894" rx="0.378" ry="1.054"/>
<path fill="#FFFFFF" d="M497.376,8.63c0.449,0,0.813,0.776,0.813,1.732c0,0.962-0.363,1.736-0.813,1.736
	c-0.447,0-0.813-0.774-0.813-1.736C496.563,9.407,496.929,8.63,497.376,8.63z"/>
<ellipse fill="#FFFFFF" cx="508.168" cy="16.253" rx="0.482" ry="1.033"/>
<ellipse fill="#FFFFFF" cx="506.71" cy="18.021" rx="0.585" ry="1.27"/>
<ellipse fill="#FFFFFF" cx="509.459" cy="17.57" rx="0.308" ry="0.658"/>
<ellipse fill="#FFFFFF" cx="518.165" cy="18.648" rx="0.442" ry="1.029"/>
<ellipse fill="#FFFFFF" cx="516.843" cy="19.804" rx="0.222" ry="0.514"/>
<ellipse fill="#FFFFFF" cx="520.156" cy="18.458" rx="0.107" ry="0.438"/>
<ellipse fill="#FFFFFF" cx="575.967" cy="24.6" rx="0.134" ry="0.53"/>
<ellipse fill="#FFFFFF" cx="520.911" cy="19.396" rx="0.333" ry="0.75"/>
<ellipse fill="#FFFFFF" cx="519.5" cy="19.921" rx="0.321" ry="0.934"/>
<ellipse fill="#FFFFFF" cx="484.206" cy="25.53" rx="0.528" ry="1.471"/>
<ellipse fill="#FFFFFF" cx="538.421" cy="13.411" rx="0.898" ry="1.767"/>
<ellipse fill="#FFFFFF" cx="533.566" cy="35.075" rx="0.601" ry="1.26"/>
<ellipse fill="#FFFFFF" cx="535.839" cy="15.728" rx="0.618" ry="1.216"/>
<ellipse fill="#FFFFFF" cx="545.457" cy="13.302" rx="0.535" ry="1.254"/>
<ellipse fill="#FFFFFF" cx="546.754" cy="14.713" rx="0.35" ry="0.82"/>
<ellipse fill="#FFFFFF" cx="534.922" cy="33.469" rx="0.285" ry="0.667"/>
<ellipse fill="#FFFFFF" cx="572.757" cy="22.735" rx="0.186" ry="0.431"/>
<ellipse fill="#FFFFFF" cx="572.181" cy="22.015" rx="0.13" ry="0.304"/>
<ellipse fill="#FFFFFF" cx="547.868" cy="13.096" rx="0.257" ry="0.719"/>
<ellipse fill="#FFFFFF" cx="468.191" cy="14.855" rx="0.358" ry="1.006"/>
<ellipse fill="#FFFFFF" cx="466.967" cy="16.257" rx="0.215" ry="0.6"/>
<ellipse fill="#FFFFFF" cx="468.832" cy="13.524" rx="0.144" ry="0.403"/>
<ellipse fill="#FFFFFF" cx="495.156" cy="7.947" rx="0.441" ry="1.235"/>
<path fill="#FFFFFF" d="M412.875,29.827c0.233,0,0.423,0.53,0.423,1.181c0,0.654-0.19,1.184-0.423,1.184
	c-0.234,0-0.424-0.527-0.424-1.184C412.451,30.357,412.641,29.827,412.875,29.827z"/>
<ellipse fill="#FFFFFF" cx="423.35" cy="30.506" rx="0.332" ry="0.924"/>
<ellipse fill="#FFFFFF" cx="447.392" cy="10.974" rx="0.429" ry="1.188"/>
<ellipse fill="#FFFFFF" cx="453.663" cy="12.86" rx="0.459" ry="0.924"/>
<ellipse fill="#FFFFFF" cx="457.646" cy="13.26" rx="0.2" ry="0.401"/>
<ellipse fill="#FFFFFF" cx="456.229" cy="11.49" rx="0.342" ry="0.95"/>
<ellipse fill="#FFFFFF" cx="449.975" cy="7.871" rx="0.288" ry="0.801"/>
<ellipse fill="#FFFFFF" cx="451.896" cy="9.196" rx="0.213" ry="0.589"/>
<ellipse fill="#FFFFFF" cx="411.07" cy="23.336" rx="0.178" ry="0.45"/>
<ellipse fill="#FFFFFF" cx="611.4" cy="10.254" rx="0.168" ry="0.469"/>
<ellipse fill="#FFFFFF" cx="637.172" cy="17.795" rx="0.17" ry="0.469"/>
<ellipse fill="#FFFFFF" cx="612.652" cy="9.206" rx="0.42" ry="0.897"/>
<ellipse fill="#FFFFFF" cx="614.781" cy="10.903" rx="0.697" ry="1.491"/>
<ellipse fill="#FFFFFF" cx="613.4" cy="12.814" rx="0.325" ry="0.916"/>
<ellipse fill="#FFFFFF" cx="599.015" cy="27.249" rx="0.255" ry="0.708"/>
<ellipse fill="#FFFFFF" cx="638.77" cy="18.909" rx="0.257" ry="0.708"/>
<ellipse fill="#FFFFFF" cx="636.023" cy="19.762" rx="0.303" ry="0.853"/>
<ellipse fill="#FFFFFF" cx="574.876" cy="23.537" rx="0.634" ry="1.063"/>
<path fill="#FFFFFF" d="M641.836,17.326c0,0.869-0.42,1.575-0.938,1.575c-0.521,0-0.941-0.706-0.941-1.575
	c0-0.871,0.422-1.576,0.941-1.576C641.416,15.75,641.836,16.455,641.836,17.326z"/>
<ellipse fill="#FFFFFF" cx="573.64" cy="22.125" rx="0.355" ry="0.716"/>
<ellipse fill="#FFFFFF" cx="595.446" cy="29.185" rx="0.903" ry="1.934"/>
<ellipse fill="#FFFFFF" cx="597.593" cy="31.89" rx="0.444" ry="1.239"/>
<ellipse fill="#FFFFFF" cx="686.982" cy="22.262" rx="0.438" ry="1.219"/>
<ellipse fill="#FFFFFF" cx="638.078" cy="16.49" rx="0.438" ry="1.219"/>
<ellipse fill="#FFFFFF" cx="687.959" cy="4.1" rx="0.326" ry="0.694"/>
<ellipse fill="#FFFFFF" cx="685.781" cy="24.125" rx="0.301" ry="0.645"/>
<ellipse fill="#FFFFFF" cx="685.107" cy="22.518" rx="0.186" ry="0.4"/>
<path fill="#FFFFFF" d="M690.311,6.647c0,1.023-0.297,1.854-0.664,1.854c-0.364,0-0.663-0.83-0.663-1.854
	c0-1.023,0.299-1.854,0.663-1.854C690.014,4.794,690.311,5.625,690.311,6.647z"/>
<ellipse fill="#FFFFFF" cx="719.043" cy="14.977" rx="0.354" ry="0.823"/>
<ellipse fill="#FFFFFF" cx="717.986" cy="15.9" rx="0.178" ry="0.411"/>
<ellipse fill="#FFFFFF" cx="720.633" cy="14.825" rx="0.088" ry="0.349"/>
<ellipse fill="#FFFFFF" cx="721.236" cy="15.576" rx="0.266" ry="0.599"/>
<ellipse fill="#FFFFFF" cx="720.109" cy="15.995" rx="0.256" ry="0.747"/>
<path fill="#FFFFFF" d="M670.992,32.553c0,0.328-0.068,0.599-0.152,0.599c-0.082,0-0.149-0.271-0.149-0.599
	c0-0.331,0.067-0.6,0.149-0.6C670.924,31.956,670.992,32.222,670.992,32.553z"/>
<path fill="#FFFFFF" d="M672.924,34.888c0,0.188-0.063,0.339-0.147,0.339s-0.15-0.151-0.15-0.339s0.066-0.341,0.15-0.341
	S672.924,34.703,672.924,34.888z"/>
<ellipse fill="#FFFFFF" cx="671.875" cy="33.836" rx="0.455" ry="1.024"/>
<ellipse fill="#FFFFFF" cx="724.051" cy="29.987" rx="0.17" ry="0.469"/>
<ellipse fill="#FFFFFF" cx="711.631" cy="33.854" rx="0.492" ry="1.054"/>
<ellipse fill="#FFFFFF" cx="723.191" cy="31.207" rx="0.42" ry="0.896"/>
<ellipse fill="#FFFFFF" cx="724.916" cy="32.551" rx="0.695" ry="1.492"/>
<ellipse fill="#FFFFFF" cx="712.779" cy="32.379" rx="0.268" ry="0.749"/>
<ellipse fill="#FFFFFF" cx="726.279" cy="34.323" rx="0.328" ry="0.917"/>
<path fill="#FFFFFF" d="M756.234,15.002c0,1.086-0.314,1.965-0.705,1.965c-0.39,0-0.705-0.879-0.705-1.965
	c0-1.085,0.315-1.962,0.705-1.962C755.92,13.041,756.234,13.917,756.234,15.002z"/>
<ellipse fill="#FFFFFF" cx="743.215" cy="11.867" rx="0.461" ry="0.924"/>
<ellipse fill="#FFFFFF" cx="754.131" cy="17.724" rx="0.197" ry="0.4"/>
<ellipse fill="#FFFFFF" cx="753.93" cy="12.791" rx="0.34" ry="0.726"/>
<ellipse fill="#FFFFFF" cx="742.084" cy="13.04" rx="0.289" ry="0.801"/>
<ellipse fill="#FFFFFF" cx="757.146" cy="16.377" rx="0.213" ry="0.589"/>
<path fill="#FFFFFF" d="M789.158,9.469c0,1.087-0.414,1.966-0.922,1.966s-0.922-0.879-0.922-1.966s0.414-1.965,0.922-1.965
	S789.158,8.384,789.158,9.469z"/>
<ellipse fill="#FFFFFF" cx="791.391" cy="9.788" rx="0.4" ry="0.803"/>
<path fill="#FFFFFF" d="M750.535,34.535c0.315,0,0.576,0.547,0.576,1.224c0,0.676-0.261,1.224-0.576,1.224
	c-0.316,0-0.574-0.548-0.574-1.224C749.961,35.082,750.219,34.535,750.535,34.535z"/>
<ellipse fill="#FFFFFF" cx="776.521" cy="20.538" rx="0.93" ry="1.629"/>
<ellipse fill="#FFFFFF" cx="775.172" cy="18.281" rx="0.289" ry="0.752"/>
<ellipse fill="#FFFFFF" cx="777.951" cy="22.229" rx="0.188" ry="0.496"/>
<path fill="#FFFFFF" d="M790.219,10c0.234,0,0.424,0.527,0.424,1.18c0,0.653-0.188,1.181-0.424,1.181
	c-0.231,0-0.424-0.525-0.424-1.181C789.795,10.528,789.986,10,790.219,10z"/>
<ellipse fill="#FFFFFF" cx="672.043" cy="11.598" rx="0.17" ry="0.47"/>
<ellipse fill="#FFFFFF" cx="691.59" cy="8.375" rx="0.418" ry="0.896"/>
<ellipse fill="#FFFFFF" cx="672.229" cy="8.139" rx="0.695" ry="1.492"/>
<path fill="#FFFFFF" d="M670.787,9.299c0.184,0,0.326,0.41,0.326,0.915c0,0.506-0.146,0.915-0.326,0.915s-0.328-0.409-0.328-0.915
	C670.459,9.709,670.605,9.299,670.787,9.299z"/>
<path fill="#1687A7" d="M827.107,39.853c-1.084-8.249-10-8.581-10-8.581s-2.396-11.813-13.75-12.057
	c-1.228,0-2.343,0.163-3.355,0.455v31.237h20.801C820.803,50.911,828.189,48.105,827.107,39.853z"/>
<path fill="#276678" d="M825.467,35.946l-9.557-8.557c0,0,2.111-20.557,13.223-20.332c11.111,0.221,13.56,20.222,13.56,20.222
	L825.467,35.946z"/>
<path fill="#276678" d="M1117.836,41.2l-15.668-1.514c0,0,4.285-27.328,15.396-27.104c11.11,0.223,13.555,20.223,13.555,20.223
	L1117.836,41.2z"/>
<path fill="#276678" d="M1188.752,40.695l-17.111-16.43c0,0,2.111-20.557,13.224-20.333s13.557,20.222,13.557,20.222
	L1188.752,40.695z"/>
<path fill="#276678" d="M860.215,19.862c0,0,2.5-6.775,8.666-8.333c6.166-1.555,9.002,2.335,9.002,2.335s4.443-11.224,13.498-10.335
	c13.834,1.837,12.285,22.269,12.285,22.269l-2.951,11.567l-39.832-2.545L860.215,19.862z"/>
<path fill="#276678" d="M922.43,30.308c-0.389-12.612,8-9.779,8-9.779s2.668-11.776,12.777-11.333
	c12.875,1.307,11.889,18.333,11.889,18.333s3.252-1.526,5,0.778c1.75,2.305-1.928,15.609-1.928,15.609s-12.537-2.873-19.223-5.666
	C931.363,35.083,924.082,31.075,922.43,30.308z"/>
<path fill="#276678" d="M980.361,33.879l-4.033-8.193c0,0,4.113-6.557,10.334-6.557c6.223,0,7.889,3.111,7.889,3.111
	s3.81-16.334,14.519-16.224c10.704,0.111,13.704,15.001,13.704,15.001s6.558,0.557,9.003,6.223c2.442,5.666-2.56,9.667-2.56,9.667
	l-41,1.776L980.361,33.879z"/>
<path fill="#276678" d="M1047.176,24.227c0,0,3.363-7.168,9.586-7.168c6.224,0,9.494,3.953,9.494,3.953s1.496-20.972,15.762-21.021
	c17.037,1.38,20.15,30.889,20.15,30.889l-27.326,8.381l-13.674-6.603L1047.176,24.227z"/>
<path fill="#1687A7" d="M825.381,50.909h46.168c0,0,5.859-6.069,3.75-12.791c-2.111-6.725-10.457-6.25-10.457-6.25
	S864.715,6.02,850.778,5.424c-11.509-0.569-14.453,20.42-14.453,20.42s-9.332-0.019-13.332,9.023
	C818.992,43.908,825.381,50.909,825.381,50.909z"/>
<path fill="#1687A7" d="M896.885,34.867c0,0,2.943-22.166,15.332-21.958c12.834,0.834,14.111,15.252,14.111,15.252
	s11.443-1.308,9.668,14.081c0,5.835-9.537,8.639-9.537,8.639l-30.908,0.028L896.885,34.867z"/>
<path fill="#1687A7" d="M1073.836,42.187c0,0,5.076-24.142,17.465-23.934c12.834,0.835,13.756,16.327,13.756,16.327
	s6.892-2.359,9,8.161c0,5.834-7.514,8.166-7.514,8.166h-30.945L1073.836,42.187z"/>
<path fill="#1687A7" d="M1163.313,34.867c0,0-0.819-26.291-13.967-26.998c-10.854-0.009-13.531,12.095-13.531,12.095
	s-13.135-2.555-12.032,11.612c0.748,6.665,7.338,19.333,7.338,19.333h33.524L1163.313,34.867z"/>
<path fill="#1687A7" d="M953.279,42.436c0,0,2.215-23.222,15.465-23.222c11.354,0.242,13.75,12.056,13.75,12.056
	s8.918,0.333,10,8.583c1.084,8.251-6.305,11.056-6.305,11.056h-25.105L953.279,42.436z"/>
<path fill="#1687A7" d="M1028.521,35.576c0,0,0.334-22.776,14.442-22.776c12.443,0.334,14.332,15.109,14.332,15.109
	s8.113,0.111,10.224,9.225c2.11,9.11-2.605,13.775-2.605,13.775l-37.275-0.021L1028.521,35.576z"/>
<path fill="#D3E0EA" d="M857.047,50.909h40.168c0,0,5.777-3.445,4.166-11.557c-1.609-8.11-10.111-8.334-10.111-8.334
	s-2.139-12.358-13.471-12.193c-13.75,0.502-14.084,17.5-14.084,17.5s-7.584-1.082-8.75,6.001
	C854.049,47.743,857.047,50.909,857.047,50.909z"/>
<path fill="#D3E0EA" d="M1054.244,50.909h26.188c0,0,3.769-2.244,2.718-7.533c-1.052-5.289-6.593-5.435-6.593-5.435
	s-1.396-8.06-8.782-7.949c-8.966,0.326-9.185,11.409-9.185,11.409s-4.942-0.708-5.705,3.91
	C1052.289,48.844,1054.244,50.909,1054.244,50.909z"/>
<path fill="#D3E0EA" d="M919.162,50.909h41.75c0,0,1.082-4.723-1.473-7.999c-2.558-3.276-7.334-3.14-7.334-3.14
	s-3.334-10.527-13.943-9.776c-10.611,0.748-11.168,14.249-11.168,14.249s-3.416-0.334-5.75,1.583S919.162,50.909,919.162,50.909z"/>
<path fill="#D3E0EA" d="M977.756,50.909h54.045c0,0,5.166-6.527,1.111-12.442c-4.055-5.917-11-5.334-11-5.334
	s-4.334-13.973-19.223-11.751c-14.892,2.223-15.109,17.195-15.109,17.195s-6.113-1-9.002,3S977.756,50.909,977.756,50.909z"/>
<path fill="#D3E0EA" d="M1101.602,50.909h30.744c0,0,6.533-7.361,3.959-13.223c-2.573-5.86-7.957-5.009-7.957-5.009
	s-1.854-6.214-10.063-5.716c-9.939,0.605-9.469,10.408-9.469,10.408s-5.441-0.963-7.968,4.039
	C1098.318,46.409,1101.602,50.909,1101.602,50.909z"/>
<path fill="#D3E0EA" d="M840.162,40.91c-2.584-5.834-8.445-5.111-8.445-5.111s-2.774-10.89-13.666-9.889
	c-10.887,1-11.223,14.108-11.223,14.108s-4.146-0.888-6.826,1.51v9.381h38.047C838.049,50.909,842.746,46.743,840.162,40.91z"/>
<path fill="#1687A7" d="M1189.691,38.185l-1.357,12.724h7.363h4.305V19.671C1190.035,22.561,1189.691,38.185,1189.691,38.185z"/>
<path fill="#D3E0EA" d="M1200.002,41.528c-0.391,0.35-0.752,0.769-1.063,1.271c-2.445,3.945,0.666,8.11,0.666,8.11h0.396
	L1200.002,41.528L1200.002,41.528z"/>
<path fill="#D3E0EA" d="M1150.115,50.909h39.176c0,0,5.289-3.396,3.045-9.611c-1.82-4.021-5.867-4.124-5.867-4.124
	s-1.299-22.515-15.522-22.922c-13.412,0.489-13.201,16.06-13.201,16.06s-8.992-0.232-11.574,8.267
	C1143.936,45.922,1150.115,50.909,1150.115,50.909z"/>
<path fill="#FFFFFF" d="M801.461,21.804c0.146,0,0.266,0.237,0.266,0.533c0,0.293-0.118,0.531-0.266,0.531
	c-0.148,0-0.268-0.238-0.268-0.531C801.193,22.043,801.313,21.804,801.461,21.804z"/>
<ellipse fill="#FFFFFF" cx="822.357" cy="28.114" rx="0.266" ry="0.534"/>
<ellipse fill="#FFFFFF" cx="802.227" cy="21.275" rx="0.234" ry="0.889"/>
<ellipse fill="#FFFFFF" cx="810.244" cy="24.422" rx="0.395" ry="1.103"/>
<ellipse fill="#FFFFFF" cx="825.873" cy="12.391" rx="0.512" ry="0.963"/>
<ellipse fill="#FFFFFF" cx="829.586" cy="11.083" rx="0.439" ry="0.847"/>
<ellipse fill="#FFFFFF" cx="827.385" cy="10.003" rx="0.306" ry="0.57"/>
<ellipse fill="#FFFFFF" cx="814.094" cy="32.174" rx="0.252" ry="0.699"/>
<ellipse fill="#FFFFFF" cx="824.557" cy="29.567" rx="0.252" ry="0.699"/>
<ellipse fill="#FFFFFF" cx="874.197" cy="24.399" rx="0.25" ry="0.7"/>
<ellipse fill="#FFFFFF" cx="886.369" cy="26.769" rx="0.35" ry="0.971"/>
<ellipse fill="#FFFFFF" cx="882.545" cy="23.638" rx="0.273" ry="0.76"/>
<ellipse fill="#FFFFFF" cx="872.951" cy="22.879" rx="0.377" ry="1.054"/>
<ellipse fill="#FFFFFF" cx="897.377" cy="10.35" rx="0.813" ry="1.735"/>
<ellipse fill="#FFFFFF" cx="908.168" cy="16.238" rx="0.482" ry="1.034"/>
<ellipse fill="#FFFFFF" cx="906.713" cy="18.005" rx="0.584" ry="1.271"/>
<path fill="#FFFFFF" d="M909.459,16.895c0.172,0,0.311,0.296,0.311,0.659c0,0.362-0.139,0.656-0.311,0.656
	c-0.168,0-0.307-0.294-0.307-0.656C909.152,17.191,909.291,16.895,909.459,16.895z"/>
<ellipse fill="#FFFFFF" cx="918.166" cy="18.632" rx="0.443" ry="1.029"/>
<ellipse fill="#FFFFFF" cx="916.844" cy="19.789" rx="0.224" ry="0.514"/>
<ellipse fill="#FFFFFF" cx="920.156" cy="18.444" rx="0.111" ry="0.438"/>
<ellipse fill="#FFFFFF" cx="975.969" cy="24.585" rx="0.135" ry="0.53"/>
<ellipse fill="#FFFFFF" cx="920.912" cy="19.382" rx="0.334" ry="0.75"/>
<ellipse fill="#FFFFFF" cx="919.502" cy="19.906" rx="0.32" ry="0.934"/>
<ellipse fill="#FFFFFF" cx="884.207" cy="25.514" rx="0.527" ry="1.471"/>
<ellipse fill="#FFFFFF" cx="938.422" cy="13.396" rx="0.898" ry="1.767"/>
<ellipse fill="#FFFFFF" cx="933.566" cy="35.06" rx="0.602" ry="1.26"/>
<ellipse fill="#FFFFFF" cx="935.84" cy="15.714" rx="0.617" ry="1.216"/>
<ellipse fill="#FFFFFF" cx="945.457" cy="13.287" rx="0.537" ry="1.253"/>
<ellipse fill="#FFFFFF" cx="946.754" cy="14.698" rx="0.352" ry="0.82"/>
<ellipse fill="#FFFFFF" cx="934.924" cy="33.455" rx="0.283" ry="0.667"/>
<ellipse fill="#FFFFFF" cx="972.758" cy="22.719" rx="0.185" ry="0.431"/>
<ellipse fill="#FFFFFF" cx="972.182" cy="22" rx="0.131" ry="0.304"/>
<ellipse fill="#FFFFFF" cx="947.871" cy="13.081" rx="0.256" ry="0.719"/>
<ellipse fill="#FFFFFF" cx="868.193" cy="14.841" rx="0.358" ry="1.007"/>
<ellipse fill="#FFFFFF" cx="866.969" cy="16.241" rx="0.215" ry="0.599"/>
<ellipse fill="#FFFFFF" cx="868.832" cy="13.509" rx="0.146" ry="0.403"/>
<ellipse fill="#FFFFFF" cx="895.158" cy="7.93" rx="0.44" ry="1.235"/>
<ellipse fill="#FFFFFF" cx="812.877" cy="30.993" rx="0.422" ry="1.182"/>
<path fill="#FFFFFF" d="M823.35,29.567c0.187,0,0.334,0.413,0.334,0.925c0,0.51-0.147,0.924-0.334,0.924
	c-0.182,0-0.33-0.414-0.33-0.924C823.02,29.98,823.168,29.567,823.35,29.567z"/>
<ellipse fill="#FFFFFF" cx="847.393" cy="10.958" rx="0.429" ry="1.188"/>
<ellipse fill="#FFFFFF" cx="853.662" cy="12.844" rx="0.461" ry="0.925"/>
<ellipse fill="#FFFFFF" cx="857.65" cy="13.245" rx="0.194" ry="0.401"/>
<ellipse fill="#FFFFFF" cx="856.23" cy="11.474" rx="0.34" ry="0.951"/>
<ellipse fill="#FFFFFF" cx="849.977" cy="7.857" rx="0.287" ry="0.801"/>
<ellipse fill="#FFFFFF" cx="851.9" cy="9.18" rx="0.209" ry="0.59"/>
<ellipse fill="#FFFFFF" cx="811.072" cy="23.32" rx="0.178" ry="0.45"/>
<ellipse fill="#FFFFFF" cx="1011.4" cy="10.239" rx="0.17" ry="0.469"/>
<ellipse fill="#FFFFFF" cx="1037.172" cy="17.78" rx="0.168" ry="0.47"/>
<ellipse fill="#FFFFFF" cx="1012.652" cy="9.193" rx="0.42" ry="0.896"/>
<ellipse fill="#FFFFFF" cx="1014.783" cy="10.888" rx="0.695" ry="1.491"/>
<ellipse fill="#FFFFFF" cx="1013.4" cy="12.8" rx="0.328" ry="0.916"/>
<ellipse fill="#FFFFFF" cx="999.018" cy="27.232" rx="0.252" ry="0.708"/>
<path fill="#FFFFFF" d="M1038.768,18.184c0.146,0,0.259,0.316,0.259,0.709c0,0.392-0.113,0.707-0.259,0.707
	c-0.139,0-0.252-0.315-0.252-0.707S1038.629,18.184,1038.768,18.184z"/>
<ellipse fill="#FFFFFF" cx="1036.023" cy="19.746" rx="0.305" ry="0.853"/>
<ellipse fill="#FFFFFF" cx="974.877" cy="23.522" rx="0.635" ry="1.063"/>
<path fill="#FFFFFF" d="M1041.836,17.309c0,0.87-0.422,1.575-0.938,1.575c-0.521,0-0.939-0.705-0.939-1.575
	c0-0.871,0.422-1.576,0.939-1.576C1041.414,15.733,1041.836,16.438,1041.836,17.309z"/>
<ellipse fill="#FFFFFF" cx="973.641" cy="22.109" rx="0.355" ry="0.716"/>
<ellipse fill="#FFFFFF" cx="995.447" cy="29.168" rx="0.901" ry="1.935"/>
<ellipse fill="#FFFFFF" cx="997.594" cy="31.875" rx="0.445" ry="1.239"/>
<ellipse fill="#FFFFFF" cx="1086.982" cy="22.246" rx="0.438" ry="1.219"/>
<ellipse fill="#FFFFFF" cx="1038.078" cy="16.474" rx="0.438" ry="1.219"/>
<ellipse fill="#FFFFFF" cx="1087.961" cy="4.084" rx="0.324" ry="0.694"/>
<ellipse fill="#FFFFFF" cx="1085.783" cy="24.111" rx="0.299" ry="0.645"/>
<ellipse fill="#FFFFFF" cx="1085.105" cy="22.501" rx="0.188" ry="0.4"/>
<path fill="#FFFFFF" d="M1090.313,6.633c0,1.024-0.299,1.854-0.663,1.854c-0.367,0-0.666-0.828-0.666-1.854
	c0-1.022,0.301-1.854,0.666-1.854C1090.014,4.778,1090.313,5.609,1090.313,6.633z"/>
<ellipse fill="#FFFFFF" cx="1119.043" cy="14.962" rx="0.355" ry="0.822"/>
<ellipse fill="#FFFFFF" cx="1117.988" cy="15.885" rx="0.176" ry="0.411"/>
<ellipse fill="#FFFFFF" cx="1120.633" cy="14.811" rx="0.088" ry="0.349"/>
<ellipse fill="#FFFFFF" cx="1121.236" cy="15.561" rx="0.268" ry="0.599"/>
<ellipse fill="#FFFFFF" cx="1120.107" cy="15.978" rx="0.258" ry="0.747"/>
<path fill="#FFFFFF" d="M1070.992,32.539c0,0.33-0.066,0.6-0.152,0.6c-0.082,0-0.147-0.27-0.147-0.6s0.065-0.599,0.147-0.599
	C1070.926,31.94,1070.992,32.209,1070.992,32.539z"/>
<path fill="#FFFFFF" d="M1072.926,34.874c0,0.188-0.065,0.339-0.149,0.339c-0.082,0-0.15-0.151-0.15-0.339
	c0-0.188,0.068-0.339,0.15-0.339C1072.859,34.535,1072.926,34.685,1072.926,34.874z"/>
<ellipse fill="#FFFFFF" cx="1071.875" cy="33.822" rx="0.455" ry="1.024"/>
<ellipse fill="#FFFFFF" cx="1124.051" cy="29.972" rx="0.17" ry="0.47"/>
<ellipse fill="#FFFFFF" cx="1111.631" cy="33.839" rx="0.492" ry="1.054"/>
<ellipse fill="#FFFFFF" cx="1123.191" cy="31.192" rx="0.418" ry="0.896"/>
<ellipse fill="#FFFFFF" cx="1124.916" cy="32.535" rx="0.697" ry="1.492"/>
<ellipse fill="#FFFFFF" cx="1112.779" cy="32.364" rx="0.268" ry="0.749"/>
<ellipse fill="#FFFFFF" cx="1126.279" cy="34.307" rx="0.33" ry="0.916"/>
<path fill="#FFFFFF" d="M1156.234,14.987c0,1.086-0.314,1.966-0.705,1.966c-0.39,0-0.703-0.88-0.703-1.966
	c0-1.085,0.313-1.964,0.703-1.964C1155.92,13.023,1156.234,13.902,1156.234,14.987z"/>
<ellipse fill="#FFFFFF" cx="1143.217" cy="11.852" rx="0.459" ry="0.924"/>
<ellipse fill="#FFFFFF" cx="1154.129" cy="17.708" rx="0.201" ry="0.4"/>
<ellipse fill="#FFFFFF" cx="1153.93" cy="12.776" rx="0.343" ry="0.726"/>
<ellipse fill="#FFFFFF" cx="1142.086" cy="13.024" rx="0.287" ry="0.801"/>
<ellipse fill="#FFFFFF" cx="1157.148" cy="16.363" rx="0.213" ry="0.589"/>
<path fill="#FFFFFF" d="M1189.158,9.456c0,1.086-0.414,1.966-0.922,1.966c-0.509,0-0.922-0.88-0.922-1.966s0.413-1.965,0.922-1.965
	C1188.744,7.491,1189.158,8.37,1189.158,9.456z"/>
<ellipse fill="#FFFFFF" cx="1191.393" cy="9.774" rx="0.398" ry="0.803"/>
<ellipse fill="#FFFFFF" cx="1150.537" cy="35.742" rx="0.574" ry="1.223"/>
<ellipse fill="#FFFFFF" cx="1176.523" cy="20.521" rx="0.928" ry="1.629"/>
<ellipse fill="#FFFFFF" cx="1175.174" cy="18.265" rx="0.287" ry="0.752"/>
<ellipse fill="#FFFFFF" cx="1177.951" cy="22.215" rx="0.188" ry="0.495"/>
<ellipse fill="#FFFFFF" cx="1190.221" cy="11.164" rx="0.424" ry="1.18"/>
<ellipse fill="#FFFFFF" cx="1072.043" cy="11.584" rx="0.17" ry="0.47"/>
<ellipse fill="#FFFFFF" cx="1091.592" cy="8.361" rx="0.418" ry="0.896"/>
<ellipse fill="#FFFFFF" cx="1072.229" cy="8.125" rx="0.697" ry="1.492"/>
<ellipse fill="#FFFFFF" cx="1070.787" cy="10.199" rx="0.328" ry="0.916"/>
</svg>
