<svg width="50" height="50" viewBox="0 0 50 50" fill="none" xmlns="http://www.w3.org/2000/svg">
<path d="M26.4812 27.5001L20.7299 33.2251C20.4955 33.4575 20.3095 33.734 20.1825 34.0386C20.0556 34.3433 19.9902 34.67 19.9902 35.0001C19.9902 35.3301 20.0556 35.6569 20.1825 35.9615C20.3095 36.2662 20.4955 36.5427 20.7299 36.7751C20.9623 37.0094 21.2389 37.1954 21.5436 37.3223C21.8483 37.4492 22.1752 37.5146 22.5053 37.5146C22.8354 37.5146 23.1622 37.4492 23.467 37.3223C23.7717 37.1954 24.0482 37.0094 24.2807 36.7751L34.283 26.7751C34.5107 26.5374 34.6892 26.257 34.8082 25.9501C35.0583 25.3415 35.0583 24.6588 34.8082 24.0501C34.6892 23.7433 34.5107 23.4629 34.283 23.2251L24.2807 13.2252C24.0475 12.9921 23.7708 12.8072 23.4661 12.681C23.1615 12.5549 22.835 12.49 22.5053 12.49C22.1756 12.49 21.8491 12.5549 21.5444 12.681C21.2398 12.8072 20.963 12.9921 20.7299 13.2252C20.4967 13.4583 20.3118 13.735 20.1856 14.0396C20.0594 14.3441 19.9945 14.6705 19.9945 15.0002C19.9945 15.3298 20.0594 15.6562 20.1856 15.9608C20.3118 16.2653 20.4967 16.5421 20.7299 16.7752L26.4812 22.5001H2.50059C1.83739 22.5001 1.20136 22.7635 0.732405 23.2324C0.263454 23.7012 0 24.3371 0 25.0001C0 25.6632 0.263454 26.299 0.732405 26.7679C1.20136 27.2367 1.83739 27.5001 2.50059 27.5001H26.4812ZM25.0059 0.000249233C20.3325 -0.0206101 15.7468 1.26827 11.7689 3.72071C7.79106 6.17314 4.58021 9.69097 2.50059 13.8752C2.20215 14.4719 2.15304 15.1627 2.36407 15.7957C2.5751 16.4286 3.02897 16.9518 3.62585 17.2502C4.22273 17.5485 4.91371 17.5976 5.5468 17.3866C6.17988 17.1757 6.70321 16.7219 7.00164 16.1252C8.58249 12.9335 10.9872 10.2217 13.9672 8.27018C16.9471 6.31861 20.3943 5.19802 23.9525 5.0242C27.5107 4.85039 31.0507 5.62966 34.2068 7.28149C37.3629 8.93331 40.0206 11.3978 41.9051 14.4202C43.7897 17.4426 44.8327 20.9133 44.9265 24.4736C45.0204 28.0339 44.1615 31.5547 42.4388 34.6721C40.716 37.7895 38.1918 40.3904 35.1271 42.2061C32.0624 44.0218 28.5683 44.9863 25.0059 45C21.2772 45.0162 17.6195 43.9809 14.4526 42.0132C11.2857 40.0454 8.73794 37.2248 7.10167 33.8751C6.80323 33.2783 6.27991 32.8246 5.64682 32.6136C5.01374 32.4026 4.32275 32.4517 3.72587 32.7501C3.129 33.0485 2.67512 33.5716 2.46409 34.2046C2.25307 34.8375 2.30217 35.5283 2.60061 36.1251C4.58315 40.1138 7.59559 43.5006 11.3263 45.9351C15.0571 48.3697 19.3707 49.7635 23.8209 49.9725C28.2711 50.1814 32.6964 49.198 36.639 47.1238C40.5815 45.0496 43.8982 41.96 46.246 38.1746C48.5938 34.3892 49.8874 30.0454 49.993 25.5926C50.0986 21.1398 49.0123 16.7396 46.8466 12.8473C44.6809 8.95488 41.5143 5.71164 37.6745 3.453C33.8347 1.19436 29.461 0.00234035 25.0059 0.000249233V0.000249233Z" fill="#333333"/>
</svg>
