<?xml version="1.0" encoding="utf-8"?>
<!-- Generator: Adobe Illustrator 16.0.0, SVG Export Plug-In . SVG Version: 6.00 Build 0)  -->
<!DOCTYPE svg PUBLIC "-//W3C//DTD SVG 1.1//EN" "http://www.w3.org/Graphics/SVG/1.1/DTD/svg11.dtd">
<svg version="1.1" id="圖層_1" xmlns="http://www.w3.org/2000/svg" xmlns:xlink="http://www.w3.org/1999/xlink" x="0px" y="0px"
	 width="58px" height="58px" viewBox="0 0 58 58" enable-background="new 0 0 58 58" xml:space="preserve">
<path fill="#333333" d="M29,0c-5.635,0.011-11.146,1.659-15.86,4.743c-4.715,3.084-8.43,7.472-10.693,12.628
	C0.183,22.527-0.531,28.23,0.393,33.785c0.923,5.554,3.442,10.721,7.252,14.869c2.721,2.947,6.023,5.299,9.698,6.906
	C21.018,57.17,24.987,58,29,58s7.982-0.83,11.657-2.439c3.675-1.607,6.978-3.959,9.698-6.906c3.81-4.148,6.329-9.315,7.252-14.869
	c0.924-5.555,0.209-11.258-2.054-16.414c-2.263-5.157-5.979-9.544-10.693-12.628C40.146,1.659,34.635,0.011,29,0L29,0z M29,52.254
	c-6.019-0.01-11.8-2.351-16.125-6.531c1.313-3.195,3.547-5.928,6.419-7.851c2.871-1.923,6.25-2.95,9.707-2.95
	c3.457,0,6.836,1.027,9.707,2.95s5.105,4.655,6.418,7.851C40.8,49.903,35.02,52.244,29,52.254z M23.189,23.224
	c0-1.148,0.341-2.271,0.979-3.226c0.638-0.955,1.546-1.699,2.608-2.139c1.062-0.439,2.23-0.554,3.357-0.33
	c1.127,0.224,2.163,0.777,2.976,1.589s1.365,1.847,1.59,2.973c0.225,1.126,0.109,2.294-0.33,3.354
	c-0.44,1.061-1.186,1.968-2.141,2.605C31.273,28.689,30.149,29.03,29,29.03c-1.541,0-3.019-0.611-4.109-1.7
	S23.189,24.764,23.189,23.224z M49.077,40.643c-2.597-4.438-6.591-7.889-11.36-9.813c1.479-1.676,2.443-3.743,2.775-5.953
	c0.334-2.209,0.021-4.469-0.899-6.505c-0.92-2.037-2.409-3.765-4.288-4.978c-1.879-1.212-4.068-1.857-6.305-1.857
	c-2.237,0-4.426,0.645-6.305,1.857c-1.879,1.212-3.368,2.941-4.288,4.978c-0.92,2.037-1.233,4.296-0.9,6.505
	c0.333,2.21,1.297,4.277,2.776,5.953c-4.769,1.924-8.764,5.375-11.36,9.813c-2.069-3.521-3.162-7.529-3.167-11.613
	c0-6.159,2.449-12.066,6.808-16.421C16.923,8.253,22.835,5.806,29,5.806c6.164,0,12.077,2.447,16.436,6.802
	c4.359,4.355,6.809,10.262,6.809,16.421C52.239,33.113,51.146,37.121,49.077,40.643L49.077,40.643z"/>
</svg>
