<?xml version="1.0" encoding="utf-8"?>
<!-- Generator: Adobe Illustrator 16.0.0, SVG Export Plug-In . SVG Version: 6.00 Build 0)  -->
<!DOCTYPE svg PUBLIC "-//W3C//DTD SVG 1.1//EN" "http://www.w3.org/Graphics/SVG/1.1/DTD/svg11.dtd">
<svg version="1.1" id="圖層_1" xmlns="http://www.w3.org/2000/svg" xmlns:xlink="http://www.w3.org/1999/xlink" x="0px" y="0px"
	 width="58px" height="61px" viewBox="0 0 58 61" enable-background="new 0 0 58 61" xml:space="preserve">
<path fill="#333333" d="M41.15,9.214c0.74,0.418,1.616,0.528,2.438,0.306c0.821-0.222,1.521-0.759,1.945-1.494
	c0.352-0.619,0.9-1.103,1.559-1.378s1.389-0.325,2.078-0.141s1.299,0.59,1.73,1.156c0.434,0.565,0.665,1.258,0.66,1.968
	c0,0.852-0.34,1.668-0.943,2.271c-0.605,0.602-1.425,0.94-2.279,0.94c-0.855,0-1.675,0.338-2.279,0.94s-0.943,1.419-0.943,2.271
	s0.339,1.668,0.943,2.27s1.424,0.94,2.279,0.94c1.697-0.001,3.363-0.447,4.832-1.293c1.47-0.846,2.689-2.063,3.537-3.527
	S58,11.318,58,9.628s-0.448-3.351-1.297-4.815c-0.85-1.463-2.07-2.679-3.539-3.524C51.693,0.444,50.027,0,48.33,0
	s-3.364,0.445-4.834,1.291c-1.469,0.846-2.689,2.062-3.538,3.525c-0.213,0.366-0.351,0.771-0.407,1.191
	c-0.055,0.42-0.026,0.847,0.084,1.255c0.111,0.409,0.303,0.792,0.563,1.127S40.781,9.004,41.15,9.214z M55.009,32.105
	c-0.846-0.109-1.7,0.119-2.378,0.637c-0.676,0.518-1.119,1.281-1.231,2.124c-0.677,5.442-3.327,10.45-7.452,14.081
	c-4.126,3.631-9.441,5.635-14.947,5.632H10.984l2.095-2.087c0.6-0.602,0.937-1.416,0.937-2.264s-0.337-1.662-0.937-2.264
	c-3.143-3.143-5.281-7.141-6.146-11.492s-0.418-8.86,1.284-12.959c1.703-4.099,4.584-7.604,8.283-10.074
	c3.699-2.47,8.048-3.795,12.501-3.808c0.855,0,1.675-0.338,2.279-0.94c0.604-0.602,0.943-1.419,0.943-2.271
	c0-0.851-0.34-1.668-0.943-2.27C30.675,3.549,29.855,3.21,29,3.21c-5.449,0.022-10.781,1.574-15.387,4.476
	c-4.605,2.902-8.296,7.038-10.65,11.933C0.608,24.515-0.314,29.972,0.3,35.366c0.615,5.394,2.743,10.505,6.14,14.75L0.929,55.51
	c-0.447,0.451-0.75,1.025-0.871,1.648c-0.121,0.622-0.053,1.267,0.194,1.852c0.242,0.586,0.652,1.088,1.18,1.441
	C1.959,60.807,2.581,60.996,3.217,61H29c7.063,0.001,13.883-2.564,19.182-7.217s8.712-11.07,9.6-18.05
	c0.059-0.42,0.033-0.847-0.074-1.257s-0.296-0.795-0.554-1.133c-0.258-0.337-0.579-0.62-0.948-0.832
	C55.838,32.299,55.431,32.16,55.009,32.105L55.009,32.105z M49.563,22.698c-0.587-0.258-1.238-0.336-1.869-0.225l-0.58,0.193
	l-0.58,0.289l-0.484,0.417c-0.289,0.296-0.52,0.645-0.676,1.027c-0.191,0.4-0.279,0.842-0.258,1.284
	c-0.01,0.428,0.066,0.854,0.225,1.252c0.167,0.386,0.408,0.735,0.709,1.028c0.302,0.297,0.658,0.533,1.051,0.692
	c0.393,0.16,0.814,0.241,1.238,0.238c0.854,0,1.674-0.338,2.279-0.94c0.604-0.603,0.943-1.419,0.943-2.271
	c0.011-0.421-0.078-0.839-0.258-1.22c-0.347-0.771-0.966-1.389-1.74-1.734V22.698z"/>
</svg>
