<?xml version="1.0" encoding="utf-8"?>
<!-- Generator: Adobe Illustrator 16.0.0, SVG Export Plug-In . SVG Version: 6.00 Build 0)  -->
<!DOCTYPE svg PUBLIC "-//W3C//DTD SVG 1.1//EN" "http://www.w3.org/Graphics/SVG/1.1/DTD/svg11.dtd">
<svg version="1.1" id="圖層_1" xmlns="http://www.w3.org/2000/svg" xmlns:xlink="http://www.w3.org/1999/xlink" x="0px" y="0px"
	 width="43px" height="43px" viewBox="0 0 43 43" enable-background="new 0 0 43 43" xml:space="preserve">
<path fill="#276678" d="M26.548,21.497l15.394-15.36c0.674-0.674,1.053-1.589,1.053-2.542c0-0.954-0.379-1.868-1.053-2.542
	C41.268,0.379,40.353,0,39.399,0c-0.954,0-1.868,0.379-2.542,1.053L21.5,16.449L6.143,1.053C5.468,0.379,4.554,0,3.601,0
	S1.733,0.379,1.059,1.053C0.385,1.727,0.006,2.642,0.006,3.595c0,0.953,0.379,1.868,1.053,2.542l15.393,15.36L1.059,36.857
	c-0.335,0.332-0.602,0.729-0.784,1.164C0.094,38.458,0,38.926,0,39.398s0.094,0.941,0.275,1.377
	c0.182,0.437,0.448,0.832,0.784,1.166c0.333,0.335,0.729,0.602,1.165,0.783C2.66,42.906,3.128,43,3.601,43s0.94-0.094,1.377-0.275
	c0.436-0.182,0.832-0.448,1.165-0.783L21.5,26.545l15.357,15.396c0.333,0.335,0.729,0.602,1.165,0.783S38.927,43,39.399,43
	s0.94-0.094,1.377-0.275s0.832-0.448,1.165-0.783c0.335-0.334,0.602-0.729,0.783-1.166C42.906,40.34,43,39.871,43,39.398
	s-0.094-0.94-0.275-1.377c-0.182-0.436-0.448-0.832-0.783-1.164L26.548,21.497z"/>
</svg>
